<svg  xmlns="http://www.w3.org/2000/svg" width="16" height="16" viewBox="0 0 16 16">
  <path id="Rounded_Rectangle_664_copy_4" d="M1315,1762a1,1,0,0,1-1-1v-2.61l-3.33,3.32a0.984,0.984,0,0,1-1.4,0,1.027,1.027,0,0,1,0-1.42l3.3-3.29H1310a1,1,0,0,1,0-2h4.87a0.955,0.955,0,0,1,.83.27,1.042,1.042,0,0,1,.28.61c0,0.04.02,0.08,0.02,0.12v5A1,1,0,0,1,1315,1762Zm-11.57,7H1306a1,1,0,0,1,0,2h-4.87a0.947,0.947,0,0,1-1.1-.87,0.5,0.5,0,0,1-.03-0.13v-5a1,1,0,0,1,2,0v2.61l3.33-3.32a0.984,0.984,0,0,1,1.4,0,1.027,1.027,0,0,1,0,1.42Z" transform="translate(-1300 -1755)"/>
</svg>