<svg width="10" height="10" viewBox="0 0 10 10" fill="none" xmlns="http://www.w3.org/2000/svg">
<path d="M4.6918 6.77024L1.6943 3.34399C1.34055 2.94086 1.62805 2.30774 2.16492 2.30774H8.15992C8.28007 2.30764 8.39771 2.34217 8.49874 2.4072C8.59977 2.47224 8.67992 2.56501 8.72958 2.67442C8.77924 2.78383 8.79631 2.90524 8.77874 3.0241C8.76118 3.14296 8.70973 3.25424 8.63055 3.34461L5.63305 6.76961C5.57438 6.83675 5.50204 6.89055 5.42086 6.92741C5.33969 6.96428 5.25157 6.98335 5.16242 6.98335C5.07327 6.98335 4.98515 6.96428 4.90398 6.92741C4.82281 6.89055 4.75046 6.83675 4.6918 6.76961V6.77024Z" fill="#728EAE"/>
</svg>