<svg width="195" height="48" viewBox="0 0 195 48" fill="none" xmlns="http://www.w3.org/2000/svg">
<path d="M55.2506 24.0062C55.2437 24.9587 55.3277 25.9097 55.5017 26.8461C55.6445 27.6813 55.919 28.4886 56.3149 29.2377C56.6632 29.8844 57.164 30.4364 57.7737 30.846C58.4382 31.264 59.2132 31.4724 59.9978 31.4439C60.6892 31.4877 61.3795 31.3442 61.9962 31.0286C62.6128 30.7129 63.1328 30.2367 63.5014 29.6502C64.2608 28.4544 64.6434 26.5651 64.6434 24.0181C64.6452 23.0689 64.5692 22.121 64.4162 21.1842C64.291 20.3495 64.0283 19.5414 63.639 18.7926C63.2999 18.142 62.8074 17.5838 62.204 17.1664C61.5474 16.7456 60.7771 16.5368 59.9978 16.5685C59.2994 16.5275 58.6026 16.6718 57.9778 16.9868C57.3531 17.3018 56.8228 17.7762 56.4404 18.3622C55.6432 19.5579 55.2447 21.4313 55.2447 23.9823M49.8637 22.8164H53.0205C53.1481 20.1977 53.7978 18.1828 54.9696 16.7718C56.1415 15.3608 57.8136 14.6553 59.9859 14.6553C61.0822 14.6168 62.1721 14.8381 63.1666 15.301C64.0333 15.7352 64.7712 16.3886 65.3071 17.1963C65.8811 18.0981 66.2863 19.0969 66.5028 20.1439C66.7706 21.4055 66.8989 22.6926 66.8855 23.9823C66.8855 26.9956 66.3175 29.3074 65.1815 30.9177C64.0455 32.528 62.3136 33.3252 59.9859 33.3093C58.9342 33.3345 57.8896 33.1305 56.9247 32.7114C56.0777 32.3184 55.3406 31.7229 54.7783 30.9775C54.1767 30.1645 53.7382 29.2428 53.4869 28.2631C53.186 27.1019 53.0156 25.9107 52.9787 24.7117H49.8458V33.0522H47.7352V14.9602H49.8458L49.8637 22.8164Z" fill="#2C2624"/>
<path d="M75.9789 24.6517H69.8147V26.565H75.9789V24.6517Z" fill="#2C2624"/>
<path d="M91.0517 32.2987C90.4792 32.7212 89.8158 33.0038 89.1145 33.1238C88.2932 33.2834 87.4581 33.3615 86.6214 33.357C85.5993 33.3612 84.5855 33.1746 83.6319 32.8069C82.7029 32.4316 81.8695 31.8536 81.1926 31.1149C80.439 30.2707 79.8689 29.2792 79.5185 28.2032C79.0903 26.8505 78.8883 25.4365 78.9206 24.018C78.8826 22.5564 79.1094 21.1 79.5902 19.7192C79.9815 18.641 80.5923 17.6556 81.3839 16.8255C82.0821 16.1013 82.9313 15.54 83.8711 15.1813C84.7642 14.8385 85.7126 14.6622 86.6692 14.6611C87.5056 14.6484 88.3417 14.7064 89.1683 14.8345C89.7359 14.9226 90.2915 15.0751 90.8245 15.2889L90.2804 17.1842C89.1766 16.7237 87.9829 16.5193 86.7888 16.5863C86.0832 16.5884 85.384 16.7201 84.7261 16.9749C84.0368 17.2504 83.4222 17.6847 82.9324 18.2425C82.3476 18.9101 81.9079 19.6919 81.641 20.5383C81.2917 21.6683 81.1281 22.8476 81.1567 24.03C81.1375 25.1316 81.2929 26.2294 81.6171 27.2825C81.8802 28.1333 82.3089 28.9237 82.8786 29.6082C83.3894 30.2143 84.0342 30.6933 84.7619 31.0073C85.5073 31.3207 86.3091 31.4774 87.1176 31.4677C87.7904 31.4808 88.4619 31.4044 89.1145 31.2405C89.6213 31.1122 90.1067 30.9108 90.5554 30.6426L91.0517 32.2987Z" fill="#2C2624"/>
<path d="M95.0277 24.0061C95.0221 24.9605 95.1203 25.9128 95.3207 26.846C95.4894 27.6879 95.7965 28.4961 96.2295 29.2376C96.6149 29.8897 97.1498 30.4409 97.79 30.8459C98.4684 31.2572 99.2509 31.4647 100.044 31.4438C100.764 31.4744 101.48 31.3267 102.129 31.0138C102.777 30.7008 103.339 30.2324 103.763 29.6501C104.664 28.4543 105.114 26.581 105.114 24.03C105.115 23.0777 105.017 22.1279 104.821 21.196C104.651 20.3536 104.342 19.5453 103.906 18.8045C103.511 18.1474 102.968 17.5908 102.322 17.1782C101.637 16.7625 100.845 16.5548 100.044 16.5804C99.3296 16.5509 98.619 16.6994 97.9762 17.0125C97.3333 17.3255 96.7783 17.7934 96.361 18.374C95.4761 19.5698 95.0277 21.4591 95.0277 23.9941M92.7857 23.9941C92.7857 20.9808 93.4134 18.667 94.669 17.0527C95.9246 15.4384 97.7182 14.6412 100.05 14.6611C101.169 14.6234 102.281 14.8423 103.302 15.3009C104.206 15.739 104.989 16.3893 105.586 17.1962C106.215 18.0842 106.668 19.0849 106.92 20.1437C107.222 21.4003 107.367 22.6898 107.35 23.9822C107.35 26.9955 106.718 29.3073 105.455 30.9176C104.191 32.5279 102.398 33.3251 100.074 33.3092C98.9624 33.3374 97.8595 33.1082 96.8513 32.6395C95.9528 32.1991 95.1751 31.5465 94.5853 30.7383C93.9481 29.8752 93.4851 28.8964 93.2221 27.8564C92.9176 26.6001 92.771 25.3107 92.7857 24.018" fill="#2C2624"/>
<path d="M121.592 18.374C121.353 18.374 121.048 18.374 120.671 18.374C120.36 18.3794 120.052 18.4318 119.756 18.5295V29.2735C119.979 29.3156 120.205 29.3376 120.432 29.3392C120.713 29.3392 120.988 29.3392 121.263 29.3392C121.819 29.3449 122.37 29.2307 122.877 29.0044C123.396 28.7697 123.851 28.4152 124.205 27.9701C124.617 27.4505 124.923 26.8554 125.107 26.2183C125.341 25.4123 125.452 24.5759 125.436 23.737C125.444 22.999 125.353 22.2632 125.167 21.5488C125.017 20.9368 124.76 20.356 124.408 19.8329C124.103 19.3773 123.693 19.002 123.212 18.7387C122.717 18.4827 122.167 18.3533 121.61 18.3621M115.99 29.3512H116.331C116.474 29.3512 116.629 29.3512 116.803 29.3512C116.969 29.3454 117.135 29.3274 117.299 29.2974C117.441 29.2775 117.58 29.2475 117.718 29.2077V18.4757C117.514 18.4757 117.263 18.4159 116.97 18.3979C116.677 18.38 116.402 18.3979 116.169 18.3979C115.61 18.3926 115.057 18.511 114.549 18.7447C114.033 18.9894 113.583 19.3519 113.233 19.803C112.832 20.3402 112.535 20.9489 112.361 21.5966C112.132 22.3932 112.023 23.2194 112.038 24.0479C112.029 24.8026 112.124 25.5549 112.319 26.284C112.482 26.8917 112.753 27.4649 113.12 27.976C113.446 28.4238 113.874 28.7868 114.369 29.0343C114.874 29.2789 115.429 29.4017 115.99 29.393M117.694 31.0731C117.362 31.1312 117.026 31.1671 116.689 31.1807C116.307 31.1807 115.948 31.1807 115.607 31.1807C114.836 31.1866 114.072 31.0466 113.353 30.7682C112.647 30.488 112.016 30.0456 111.512 29.4767C110.965 28.8203 110.558 28.0595 110.316 27.2406C109.997 26.1989 109.846 25.1132 109.867 24.024C109.852 22.9607 110.003 21.9015 110.316 20.8851C110.577 20.0285 111.008 19.2333 111.583 18.5474C112.125 17.92 112.799 17.4199 113.556 17.0826C114.364 16.7441 115.233 16.5752 116.109 16.5863C116.331 16.5863 116.606 16.5863 116.934 16.5863C117.195 16.5956 117.454 16.6216 117.712 16.6641V14.4459H119.828V16.7478C120.181 16.6528 120.545 16.6006 120.91 16.5923C121.323 16.5923 121.664 16.5923 121.939 16.5923C122.717 16.585 123.488 16.7376 124.205 17.0407C124.896 17.349 125.509 17.8087 125.998 18.386C126.546 19.0462 126.952 19.8112 127.194 20.634C127.501 21.6514 127.646 22.7106 127.625 23.7729C127.645 24.8696 127.478 25.9617 127.128 27.0015C126.841 27.8551 126.388 28.6434 125.795 29.3213C125.256 29.9331 124.583 30.412 123.828 30.7203C123.07 31.0341 122.257 31.1927 121.436 31.1867C121.251 31.1867 120.976 31.1867 120.611 31.1448C120.332 31.1349 120.054 31.0887 119.786 31.0073V33.5842H117.67L117.694 31.0731Z" fill="#2C2624"/>
<path d="M141.101 16.8793H135.546V33.0521H133.436V16.8793H127.882V14.9661H141.101V16.8793Z" fill="#2C2624"/>
<path d="M26.857 25.0165C26.7809 29.2446 28.3303 33.3407 31.1857 36.46C34.1764 33.1948 35.8927 28.9627 36.0212 24.5368C36.1496 20.1108 34.6816 15.7864 31.8853 12.3533C28.5132 15.4085 26.857 20.1258 26.857 25.0165Z" fill="#349936"/>
<path d="M26.8568 25.0165C26.7807 29.2446 28.3301 33.3407 31.1855 36.46C33.7854 33.6235 35.4255 30.0399 35.8729 26.2182V21.7939C35.46 18.3297 34.0684 15.0549 31.8611 12.3533C28.489 15.4085 26.8329 20.1258 26.8329 25.0165" fill="#349936"/>
<path d="M13.2373 6.38643V22.1347H20.6391C21.3506 16.389 24.0052 11.8571 28.1007 8.88559C25.1384 6.83622 21.6225 5.73722 18.0204 5.73474C16.404 5.73669 14.7953 5.95589 13.2373 6.38643Z" fill="#349936"/>
<path d="M13.2373 6.38643V22.1347H20.6391C21.3506 16.389 24.0052 11.8571 28.1007 8.88559C25.1384 6.83622 21.6225 5.73722 18.0204 5.73474C16.404 5.73669 14.7953 5.95589 13.2373 6.38643Z" fill="#349936"/>
<path d="M13.2373 26.3138V41.6077C15.4965 42.2406 17.8588 42.419 20.1874 42.1327C22.516 41.8464 24.7647 41.101 26.8033 39.9396C23.0247 36.7649 20.7527 32.0954 20.4837 26.3138H13.2373Z" fill="#349936"/>
<path d="M13.2373 26.3138V41.6077C13.7037 41.7393 14.176 41.8469 14.6603 41.9425H21.3865C23.2897 41.5766 25.1198 40.9 26.8033 39.9396C23.0247 36.7649 20.7527 32.0954 20.4837 26.3138H13.2373Z" fill="#349936"/>
<path d="M5.67287e-05 24.0061C-0.00675416 26.7431 0.599808 29.4468 1.77517 31.9186C2.95052 34.3904 4.6648 36.5673 6.79202 38.2896V9.72266C4.66545 11.4455 2.95163 13.6226 1.77634 16.0942C0.601042 18.5658 -0.00589949 21.2693 5.67287e-05 24.0061Z" fill="#349936"/>
<path d="M5.67287e-05 24.0061C-0.00675416 26.7431 0.599808 29.4468 1.77517 31.9186C2.95052 34.3904 4.6648 36.5673 6.79202 38.2896V9.72266C4.66545 11.4455 2.95163 13.6226 1.77634 16.0942C0.601042 18.5658 -0.00589949 21.2693 5.67287e-05 24.0061Z" fill="#349936"/>
<path d="M165.919 29.5126C166.971 28.9148 168.131 28.0777 169.386 27.1988C168.929 25.3438 168.727 23.4347 168.789 21.5249C168.789 17.6745 169.129 12.9931 172.472 12.9931C175.814 12.9931 176.149 17.6745 176.149 21.5249C176.149 22.0032 176.149 22.4875 176.149 22.9718C177.734 22.1753 179.419 21.5942 181.159 21.2439C181.069 10.7032 176.208 9.2085 172.495 9.2085C168.783 9.2085 163.82 10.7211 163.82 21.5249C163.82 25.3334 164.418 27.9821 165.381 29.8176L165.919 29.5126Z" fill="#349936"/>
<path d="M182.54 31.1747H183.024H183.491C183.616 31.1747 183.676 31.2285 183.676 31.3421C183.684 31.3735 183.684 31.4063 183.676 31.4378C183.417 31.94 183.172 32.4362 182.941 32.9265C182.707 33.4167 182.498 33.8592 182.343 34.2598C182.187 34.6603 182.014 34.9952 181.906 35.2582C181.837 35.4094 181.785 35.5678 181.751 35.7306C181.751 35.8741 181.811 35.9518 181.936 35.9518C182.036 35.9395 182.132 35.9048 182.217 35.8501C182.352 35.7756 182.48 35.6896 182.6 35.593C182.737 35.4854 182.863 35.3718 182.994 35.2463C183.108 35.1409 183.216 35.0291 183.317 34.9115C183.366 34.9135 183.413 34.9325 183.449 34.9653C183.467 34.9819 183.481 35.0023 183.49 35.025C183.5 35.0478 183.504 35.0723 183.503 35.0968C183.375 35.268 183.235 35.4298 183.084 35.5811C182.934 35.7317 182.772 35.8697 182.6 35.9936C182.443 36.1052 182.272 36.1957 182.092 36.2627C181.946 36.3268 181.79 36.3613 181.631 36.3643C181.075 36.3643 180.794 36.1012 180.794 35.5632C180.815 35.4003 180.86 35.2412 180.926 35.0908C181.003 34.8517 181.117 34.5527 181.255 34.194C181.392 33.8353 181.565 33.4347 181.763 32.9982L182.414 31.5454C182.274 31.5623 182.138 31.607 182.015 31.6768C181.892 31.7466 181.784 31.8401 181.697 31.9519C181.469 32.2287 181.269 32.5271 181.099 32.8428C180.896 33.1896 180.699 33.5722 180.501 33.9788C180.31 34.3728 180.09 34.7524 179.844 35.1147C179.621 35.4457 179.354 35.7436 179.048 35.9996C178.774 36.2334 178.428 36.3663 178.068 36.3763C177.934 36.3778 177.802 36.3502 177.68 36.2955C177.558 36.2408 177.45 36.1602 177.362 36.0594C177.177 35.8457 177.077 35.5711 177.081 35.2881C177.073 35.1697 177.091 35.051 177.132 34.9397C177.173 34.8285 177.237 34.7271 177.32 34.6424C177.455 34.5063 177.637 34.4271 177.829 34.4212C178.163 34.4212 178.331 34.5826 178.331 34.9055C178.331 35.025 178.286 35.1402 178.205 35.2283C178.122 35.324 178.044 35.4197 177.954 35.5093C177.883 35.5795 177.826 35.6628 177.787 35.7545C177.787 35.8322 177.787 35.9159 177.93 35.9936C178.087 36.0206 178.247 36.0125 178.4 35.9702C178.553 35.9278 178.695 35.8521 178.815 35.7485C179.111 35.5021 179.367 35.2118 179.574 34.8875C179.829 34.5051 180.057 34.1056 180.256 33.6918C180.465 33.2809 180.697 32.8817 180.95 32.496C181.158 32.1545 181.409 31.841 181.697 31.5633C181.811 31.4456 181.948 31.3518 182.099 31.2871C182.25 31.2225 182.412 31.1883 182.576 31.1866C182.576 31.1866 182.54 31.1866 182.54 31.1747Z" fill="#349936"/>
<path d="M187.622 31.946C187.595 32.3507 187.466 32.7419 187.246 33.0829C187.026 33.4238 186.724 33.7033 186.366 33.8951C185.825 34.2926 185.195 34.5513 184.531 34.6484C184.42 34.9089 184.351 35.1854 184.327 35.4675C184.327 35.8561 184.537 36.0654 184.925 36.0654C185.341 36.0323 185.737 35.8739 186.061 35.611C186.354 35.408 186.612 35.1598 186.827 34.8756C186.97 34.7979 187.06 34.8756 187.096 35.0251C186.875 35.3257 186.611 35.5917 186.312 35.8143C185.876 36.1713 185.338 36.3806 184.776 36.4122C184.602 36.4388 184.425 36.4247 184.258 36.3708C184.09 36.3169 183.938 36.2248 183.813 36.1017C183.687 35.9787 183.593 35.8281 183.536 35.662C183.479 35.4959 183.461 35.3187 183.484 35.1447C183.532 34.1702 183.931 33.2462 184.608 32.5439C185.356 31.671 186.055 31.2345 186.713 31.2345C187.371 31.2345 187.622 31.4438 187.622 31.946ZM186.934 31.8443C186.934 31.6291 186.857 31.5275 186.701 31.5275C186.546 31.5275 186.133 31.8384 185.697 32.4602C185.291 33.0207 184.944 33.6218 184.662 34.2538C184.96 34.2176 185.247 34.1223 185.506 33.9734C185.766 33.8245 185.993 33.6251 186.175 33.3869C186.61 32.9846 186.881 32.4349 186.934 31.8443Z" fill="#349936"/>
<path d="M195 31.4079C195 31.372 194.928 31.5155 194.767 31.8264C194.54 32.2927 194.223 32.9684 193.834 33.8472C193.53 34.4544 193.289 35.0916 193.117 35.7485C193.117 35.9159 193.218 35.9996 193.416 35.9996C193.822 35.9996 194.223 35.6469 194.611 34.9294C194.815 34.8636 194.922 34.9294 194.928 35.0311C194.765 35.3276 194.557 35.5977 194.313 35.8322C194.039 36.1514 193.65 36.3492 193.23 36.3823C192.591 36.3823 192.28 36.1371 192.28 35.6289C192.347 35.025 192.521 34.4378 192.794 33.8951C192.976 33.4431 193.188 33.0037 193.428 32.5797L193.374 32.49C192.758 33.0129 192.215 33.6162 191.76 34.2837C191.334 34.8545 190.949 35.4538 190.606 36.0773C190.54 36.2268 190.271 36.3225 189.805 36.3823C189.649 36.4062 189.571 36.3763 189.571 36.2926C189.571 36.2388 189.828 35.6947 190.343 34.6125C190.857 33.5304 191.21 32.8189 191.275 32.6216L191.21 32.5379C190.588 33.0566 190.042 33.6604 189.589 34.3315C189.063 35.0012 188.645 35.5632 188.316 36.0176C188.24 36.1207 188.136 36.1997 188.017 36.2448C187.879 36.3205 187.726 36.3635 187.568 36.3703C187.541 36.3743 187.513 36.3718 187.486 36.363C187.46 36.3542 187.436 36.3394 187.416 36.3196C187.396 36.2999 187.381 36.2758 187.372 36.2493C187.364 36.2228 187.361 36.1947 187.365 36.167C187.634 35.4943 187.942 34.8375 188.286 34.2C188.664 33.5484 188.94 32.8427 189.105 32.1074C189.105 31.9041 189.027 31.7965 188.872 31.7965C188.872 31.7965 188.651 31.8563 188.274 31.9759C188.226 31.9759 188.19 31.94 188.166 31.8682C188.136 31.7965 188.13 31.7427 188.166 31.7068C188.545 31.4156 189.01 31.2579 189.488 31.2584C189.93 31.2584 190.157 31.4557 190.157 31.8563C189.997 32.6576 189.702 33.4259 189.284 34.1282H189.356C189.759 33.5814 190.205 33.0675 190.689 32.5917C191.052 32.188 191.453 31.8197 191.885 31.4916C192.132 31.3427 192.416 31.2661 192.704 31.2704C192.86 31.2704 192.937 31.3122 192.937 31.4019C192.937 31.4019 192.86 31.5454 192.704 31.8563L191.754 33.7755C192.397 32.8808 193.178 32.0938 194.067 31.4437C194.285 31.2968 194.54 31.2159 194.803 31.2106C194.91 31.2225 195 31.2823 195 31.4079Z" fill="#349936"/>
<path d="M153.285 34.4331C162.624 35.5691 168.872 28.3526 178.618 24.5381C182.402 23.0554 186.922 24.1973 190.438 26.3318C185.523 26.8041 182.755 28.4901 180.358 29.9191C171.449 35.3 164.316 41.237 153.363 37.6916C151.766 37.1983 150.315 36.3172 149.142 35.1268C147.968 33.9364 147.107 32.4738 146.637 30.8697C146.637 30.8697 149.507 33.9608 153.285 34.4331Z" fill="url(#paint0_linear_5243_22799)"/>
<path d="M156.245 29.0523C155.647 29.5665 154.529 30.0866 152.658 30.0866C150.7 30.0361 148.77 29.6035 146.978 28.8131L146.876 30.5111C148.451 32.0063 150.378 33.078 152.479 33.6261C154.243 33.8983 156.048 33.7341 157.734 33.1478C158.606 32.833 159.415 32.3676 160.126 31.7726C160.892 31.1393 161.512 30.3475 161.944 29.4516C162.375 28.5558 162.607 27.5772 162.625 26.583C162.66 25.1906 162.183 23.8336 161.285 22.7685C160.419 21.8007 159.256 21.1469 157.979 20.9091V20.8075C160.7 20.4308 162.451 18.2605 162.451 15.3667C162.472 14.3731 162.221 13.3926 161.725 12.5316C161.228 11.6706 160.506 10.9618 159.635 10.482C157.573 9.28622 154.577 9.2085 153.818 9.2085C151.609 9.24212 149.413 9.55552 147.283 10.1412L147.558 14.0633C149.316 13.393 151.177 13.0309 153.059 12.9931C154.069 12.9241 155.08 13.1307 155.982 13.591C156.369 13.7908 156.695 14.0912 156.925 14.4605C157.156 14.8298 157.282 15.2544 157.292 15.6896C157.317 16.1923 157.217 16.6935 157 17.1476C156.782 17.6018 156.455 17.9945 156.048 18.2904C155.707 18.5355 154.601 19.1872 151.923 19.1872H149.71V22.9718H152.186C153.184 22.9718 155.008 23.0734 156.072 23.7969C156.501 24.0928 156.851 24.4896 157.091 24.9525C157.331 25.4154 157.453 25.9302 157.447 26.4515C157.455 26.9474 157.351 27.4388 157.143 27.8891C156.935 28.3394 156.628 28.7369 156.245 29.0523Z" fill="#349936"/>
<defs>
<linearGradient id="paint0_linear_5243_22799" x1="147.055" y1="34.3075" x2="190.755" y2="28.9445" gradientUnits="userSpaceOnUse">
<stop stop-color="#C5962E"/>
<stop offset="0.08" stop-color="#F3DB7B"/>
<stop offset="0.1" stop-color="#F3DB7B"/>
<stop offset="0.14" stop-color="#E1C265"/>
<stop offset="0.19" stop-color="#CBA64C"/>
<stop offset="0.24" stop-color="#BB913A"/>
<stop offset="0.29" stop-color="#B2842F"/>
<stop offset="0.34" stop-color="#AF802B"/>
<stop offset="0.64" stop-color="#AF802B"/>
<stop offset="0.68" stop-color="#B48630"/>
<stop offset="0.72" stop-color="#C0973F"/>
<stop offset="0.78" stop-color="#D5B358"/>
<stop offset="0.83" stop-color="#F2DA7A"/>
<stop offset="0.84" stop-color="#F3DB7B"/>
<stop offset="0.87" stop-color="#F3DB7B"/>
<stop offset="1" stop-color="#C5962E"/>
</linearGradient>
</defs>
</svg>
