<svg width="110" height="32" viewBox="0 0 110 32" fill="none" xmlns="http://www.w3.org/2000/svg">
<path d="M40.341 15.7105H42.7359C42.8389 13.7009 43.3339 12.1564 44.2207 11.077C45.1075 9.9976 46.3739 9.45863 48.0199 9.46009C48.8529 9.43656 49.6797 9.6125 50.4322 9.97346C51.0887 10.3057 51.6473 10.8057 52.052 11.4236C52.4878 12.1105 52.7954 12.8719 52.9598 13.6702C53.1603 14.6331 53.2566 15.6151 53.2472 16.599C53.2472 18.9011 52.8169 20.665 51.9562 21.8906C51.0955 23.1163 49.7834 23.7313 48.0199 23.7357C47.2241 23.7538 46.4341 23.5958 45.7055 23.2728C45.064 22.9749 44.5048 22.5229 44.077 21.9565C43.6252 21.3335 43.2963 20.629 43.1082 19.881C42.878 18.9948 42.7487 18.0851 42.7228 17.1694H40.3497V23.501H38.7495V9.69703H40.3497L40.341 15.7105ZM44.4319 16.588C44.4287 17.3157 44.4928 18.0421 44.6235 18.7578C44.7341 19.3873 44.9413 19.9957 45.2374 20.5611C45.5032 21.0583 45.8832 21.4841 46.3456 21.8029C46.8468 22.1264 47.4337 22.2886 48.0286 22.268C49.2217 22.268 50.1063 21.8073 50.6825 20.8858C51.2573 19.9666 51.5534 18.534 51.5534 16.588C51.5552 15.8641 51.497 15.1412 51.3792 14.427C51.282 13.7952 51.0842 13.1833 50.7936 12.6149C50.5357 12.1178 50.1622 11.6909 49.705 11.371C49.2073 11.049 48.624 10.8875 48.0329 10.9081C46.8398 10.9081 45.9421 11.3724 45.3398 12.3012C44.7374 13.2299 44.4363 14.6589 44.4363 16.588" fill="#1D1D1B"/>
<path d="M60.1329 17.0903H55.4629V18.5493H60.1329V17.0903Z" fill="#1D1D1B"/>
<path d="M71.5505 22.9283C71.1177 23.2508 70.6159 23.4665 70.0853 23.558C69.4618 23.6782 68.8282 23.7377 68.1933 23.7357C67.4154 23.7414 66.6434 23.5985 65.9182 23.3145C65.212 23.0297 64.5787 22.588 64.0655 22.0223C63.5004 21.3773 63.0742 20.6213 62.8136 19.8021C62.484 18.7676 62.3273 17.6852 62.3499 16.599C62.3206 15.4798 62.494 14.3647 62.8615 13.3082C63.153 12.4847 63.6129 11.732 64.2113 11.0989C64.7392 10.5469 65.3815 10.1192 66.0924 9.8462C66.7689 9.58602 67.4867 9.4522 68.2108 9.4513C68.8439 9.44152 69.4767 9.48481 70.1027 9.58074C70.5322 9.64801 70.9528 9.76354 71.3568 9.92518L70.9758 11.3929C70.3574 11.077 69.475 10.919 68.3283 10.919C67.7949 10.9203 67.2663 11.0214 66.7695 11.2174C66.2402 11.4237 65.7677 11.7547 65.3913 12.1827C64.9493 12.6935 64.6172 13.2911 64.416 13.9378C64.1504 14.7995 64.0261 15.6991 64.048 16.6012C64.0319 17.443 64.1488 18.282 64.3942 19.0868C64.5933 19.7356 64.9182 20.3381 65.35 20.8595C65.7371 21.3222 66.2262 21.6873 66.7782 21.9257C67.3416 22.1649 67.9478 22.2851 68.5591 22.2789C69.0727 22.2883 69.5852 22.2286 70.0831 22.1012C70.4656 22.004 70.8322 21.8518 71.1717 21.6493L71.5505 22.9283Z" fill="#1D1D1B"/>
<path d="M72.863 16.599C72.863 14.2983 73.3383 12.533 74.289 11.3029C75.2397 10.0729 76.5961 9.45861 78.3581 9.46008C79.2093 9.43817 80.054 9.61382 80.827 9.97345C81.5114 10.3065 82.1042 10.8037 82.5535 11.4214C83.0331 12.0974 83.377 12.8613 83.5659 13.6701C83.7953 14.6289 83.905 15.6128 83.8925 16.599C83.8925 18.9011 83.4149 20.6657 82.4599 21.8928C81.5048 23.1199 80.1376 23.7342 78.3581 23.7357C77.5171 23.7562 76.6828 23.5813 75.9197 23.2245C75.2387 22.8898 74.6496 22.3919 74.2041 21.7744C73.724 21.0984 73.3794 20.3345 73.1895 19.5256C72.9623 18.5665 72.8527 17.5828 72.863 16.5968M74.559 16.5968C74.5543 17.3258 74.6273 18.0532 74.7767 18.7665C74.9061 19.4013 75.1378 20.0105 75.4625 20.5699C75.7542 21.0724 76.1601 21.498 76.6469 21.8116C77.1592 22.1299 77.7521 22.2915 78.3538 22.2767C78.9008 22.2973 79.4444 22.181 79.936 21.9383C80.4275 21.6956 80.8518 21.334 81.171 20.8858C81.8517 19.9585 82.1921 18.5289 82.1921 16.5968C82.1961 15.8707 82.1231 15.1463 81.9744 14.4358C81.8458 13.7967 81.611 13.184 81.2799 12.6237C80.9803 12.1223 80.5706 11.6967 80.0824 11.3797C79.563 11.0615 78.9636 10.9008 78.3559 10.9168C77.8127 10.8968 77.2732 11.0137 76.7862 11.257C76.2991 11.5003 75.8801 11.8622 75.567 12.3099C74.8935 13.2343 74.5568 14.6632 74.5568 16.5968" fill="#1D1D1B"/>
<path d="M91.7086 21.9629C91.4555 22.0036 91.2004 22.03 90.9444 22.0419C90.657 22.0419 90.3827 22.0594 90.1258 22.0594C89.5424 22.0631 88.9634 21.9567 88.4189 21.7457C87.8842 21.5321 87.4074 21.1937 87.0277 20.7585C86.6085 20.2591 86.2945 19.6792 86.1046 19.0538C85.865 18.2584 85.7511 17.43 85.7671 16.5989C85.7554 15.7882 85.8692 14.9806 86.1046 14.2053C86.3018 13.5505 86.6292 12.9429 87.0669 12.4195C87.4774 11.9404 87.9882 11.559 88.5626 11.3028C89.1722 11.0414 89.8291 10.9106 90.4915 10.9189C90.6592 10.9189 90.8704 10.9189 91.1186 10.9408C91.3163 10.9473 91.5134 10.9671 91.7086 11.0001V9.3042H93.3088V11.0593C93.5761 10.9879 93.8509 10.9489 94.1274 10.943C94.4431 10.9277 94.7 10.9211 94.909 10.9211C95.4989 10.9163 96.0836 11.0335 96.6268 11.2655C97.1555 11.4974 97.6257 11.8461 98.0027 12.2857C98.4216 12.7886 98.7342 13.3724 98.9215 14.0013C99.1525 14.7781 99.2627 15.5862 99.2481 16.397C99.2647 17.2362 99.1373 18.0719 98.8714 18.8673C98.6541 19.5203 98.3108 20.1235 97.8612 20.6422C97.4511 21.1055 96.9429 21.4699 96.3742 21.7084C95.7994 21.9453 95.1838 22.0653 94.5628 22.0616C94.4191 22.0616 94.2101 22.0616 93.9336 22.0331C93.7217 22.024 93.5117 21.9879 93.3088 21.9256V23.9001H91.7086V21.9629ZM90.4153 20.6795H90.6744C90.7833 20.6795 90.8921 20.6795 91.0315 20.6685C91.1708 20.6576 91.284 20.6488 91.4081 20.6312C91.5154 20.6145 91.6216 20.591 91.726 20.561V12.38C91.5378 12.3491 91.3481 12.3286 91.1577 12.3186C90.94 12.3186 90.7223 12.2989 90.5503 12.2989C90.1278 12.2957 89.7099 12.3871 89.3268 12.5665C88.9345 12.7534 88.593 13.0335 88.3318 13.3826C88.0269 13.7871 87.8015 14.2465 87.6678 14.7363C87.496 15.3446 87.4146 15.9752 87.4261 16.6076C87.4209 17.1832 87.4941 17.7568 87.6438 18.3123C87.7672 18.7768 87.9738 19.2148 88.2534 19.6045C88.4986 19.9414 88.8194 20.215 89.1896 20.4031C89.5707 20.5917 89.9908 20.6864 90.4153 20.6795ZM94.6782 12.2989C94.4975 12.2989 94.2667 12.2989 93.9815 12.3186C93.7456 12.3248 93.5118 12.3647 93.287 12.4371V20.6225C93.4567 20.6522 93.6285 20.6684 93.8008 20.6707C94.0185 20.6707 94.221 20.6817 94.4278 20.6817C94.8482 20.6847 95.2645 20.5979 95.6492 20.4272C96.0466 20.2487 96.3953 19.9762 96.666 19.633C96.9781 19.2357 97.2109 18.7812 97.3518 18.2947C97.6694 17.1314 97.6851 15.9053 97.3975 14.7341C97.2829 14.2647 97.0876 13.8192 96.8205 13.4177C96.5891 13.0634 96.2721 12.7742 95.8992 12.5773C95.5264 12.3804 95.1099 12.2823 94.6891 12.2923" fill="#1D1D1B"/>
<path d="M109.455 11.156H105.248V23.5009H103.646V11.156H99.4419V9.69702H109.455V11.156Z" fill="#1D1D1B"/>
<path d="M23.3389 16.8928C23.3389 20.6839 24.6452 24.3367 27.0988 26.9189C29.6987 24.0594 31.191 20.3528 31.3029 16.4762C31.4148 12.5997 30.139 8.8119 27.7084 5.80493C24.7801 8.4705 23.3389 12.5818 23.3389 16.8928Z" fill="#349936"/>
<path d="M23.3389 16.8929C23.3389 20.684 24.6452 24.3368 27.0988 26.919C29.3665 24.436 30.8008 21.2966 31.1984 17.946V14.0628C30.8412 11.0295 29.6328 8.16181 27.715 5.79626C24.7801 8.47061 23.3389 12.5819 23.3389 16.8929Z" fill="#349936"/>
<path d="M11.5034 0.5748V14.3612H17.9347C18.5552 9.3284 20.863 5.36624 24.4357 2.75772C22.5713 1.45956 20.4461 0.591006 18.211 0.213738C15.976 -0.163531 13.6859 -0.0402585 11.5034 0.5748Z" fill="#349936"/>
<path d="M11.5034 0.5748V14.3612H17.9347C18.5552 9.3284 20.863 5.36624 24.4357 2.75772C22.5713 1.45956 20.4461 0.591006 18.211 0.213738C15.976 -0.163531 13.6859 -0.0402585 11.5034 0.5748Z" fill="#349936"/>
<path d="M11.5034 18.0227V31.4273C12.8561 31.8062 14.2535 31.9988 15.6574 31.9999C18.3357 32.0023 20.9682 31.3006 23.2949 29.964C20.0139 27.1756 18.0349 23.0862 17.8019 18.0227H11.5034Z" fill="#349936"/>
<path d="M11.5034 18.0227V31.4273C11.9084 31.5392 12.3199 31.6467 12.7379 31.7191H18.5857C20.2394 31.3973 21.8295 30.8044 23.2927 29.964C20.0118 27.1756 18.0327 23.084 17.7998 18.0227H11.5034Z" fill="#349936"/>
<path d="M3.91079e-05 16C-0.00460961 18.3964 0.523298 20.7634 1.54502 22.9273C2.56674 25.0912 4.05634 26.9971 5.9045 28.5052V3.49487C4.05587 5.00249 2.56593 6.90832 1.54416 9.07234C0.522399 11.2363 -0.00523197 13.6036 3.91079e-05 16Z" fill="#349936"/>
<path d="M3.91079e-05 16C-0.00460961 18.3964 0.523298 20.7634 1.54502 22.9273C2.56674 25.0912 4.05634 26.9971 5.9045 28.5052V3.49487C4.05587 5.00249 2.56593 6.90832 1.54416 9.07234C0.522399 11.2363 -0.00523197 13.6036 3.91079e-05 16Z" fill="#349936"/>
</svg>
