<svg width="226" height="52" viewBox="0 0 226 52" fill="none" xmlns="http://www.w3.org/2000/svg">
<path d="M106.842 20.8077L107.223 20.9638L106.578 23.6222C105.735 24.0818 104.814 24.4201 103.815 24.6389C102.814 24.8585 101.796 24.9679 100.757 24.9679C99.8353 24.9679 99.0413 24.9153 98.3772 24.811C98.3185 24.7898 97.828 24.6864 96.9075 24.4981C96.4567 24.3938 95.9224 24.1903 95.3046 23.8884C94.6876 23.5865 94.1682 23.2889 93.748 22.9964C93.3254 22.7055 92.9209 22.3502 92.5289 21.9339C92.2146 21.6014 91.8912 21.2046 91.5571 20.745C90.931 19.8478 90.4653 18.8896 90.161 17.867C89.8583 16.8452 89.7061 15.7403 89.7061 14.5514C89.7061 12.6121 89.9567 10.945 90.4546 9.54753C90.955 8.15092 91.8325 6.85776 93.0864 5.66891C94.145 4.6895 95.4038 3.96449 96.8636 3.49556C98.3226 3.02578 99.8362 2.79089 101.404 2.79089C102.444 2.79089 103.492 2.92318 104.551 3.18266C105.608 3.44383 106.559 3.81355 107.401 4.29265C107.302 4.7107 107.19 5.21524 107.062 5.81052C106.934 6.4041 106.823 6.96206 106.726 7.48357H106.314C105.764 6.65001 105.059 5.98266 104.197 5.48236C103.334 4.98205 102.413 4.7319 101.433 4.7319C99.1596 4.7319 97.4062 5.72318 96.1722 7.70404C95.0929 9.4356 94.5544 11.5725 94.5544 14.1164C94.5544 15.3036 94.6926 16.4466 94.9671 17.5414C95.2409 18.6361 95.6809 19.6053 96.2905 20.449C96.8984 21.2936 97.6717 21.9508 98.6113 22.4206C99.5533 22.8887 100.542 23.1244 101.58 23.1244C102.482 23.1244 103.412 22.909 104.373 22.4816C105.332 22.0551 106.156 21.4954 106.842 20.8077Z" fill="#1A3B9F"/>
<path d="M112.545 11.3621C111.617 11.3621 110.965 11.379 110.589 11.413C110.215 11.4469 109.505 11.5418 108.458 11.6979C108.557 11.385 108.606 11.0203 108.606 10.6031C108.606 10.2902 108.557 9.94596 108.458 9.57031C108.654 9.57031 109.845 9.62543 112.036 9.73312C112.914 9.77637 113.784 9.79757 114.648 9.79757C115.408 9.79757 116.465 9.76026 117.813 9.68394C119.162 9.60932 120.1 9.57031 120.628 9.57031C120.531 9.94172 120.48 10.2818 120.48 10.5904C120.48 10.961 120.531 11.3222 120.628 11.675C119.981 11.5919 119.325 11.5181 118.657 11.4554C117.991 11.3926 117.307 11.3629 116.6 11.3629V13.5897V19.6756C116.6 20.7635 116.609 21.631 116.618 22.278C116.631 22.9276 116.673 23.6907 116.747 24.5692C116.42 24.5692 115.973 24.5421 115.408 24.487C114.84 24.4327 114.499 24.4056 114.385 24.4056C114.095 24.4056 113.706 24.4327 113.217 24.487C112.729 24.5421 112.434 24.5692 112.339 24.5692L112.426 22.4985L112.545 19.4865V14.7192V11.3621Z" fill="#1A3B9F"/>
<path d="M127.771 24.9678C125.596 24.9678 123.862 24.2919 122.57 22.9394C121.275 21.5861 120.628 19.7553 120.628 17.4446C120.628 16.2591 120.781 15.1771 121.086 14.1985C121.388 13.2208 121.892 12.3262 122.599 11.5138C123.187 10.827 123.97 10.2716 124.951 9.84334C125.929 9.41766 126.881 9.20312 127.802 9.20312C128.8 9.20312 129.788 9.37611 130.769 9.71869C131.75 10.063 132.544 10.5845 133.15 11.2798C133.758 11.976 134.224 12.8104 134.547 13.7779C134.871 14.7455 135.033 15.7384 135.033 16.7586C135.033 19.1939 134.407 21.1502 133.151 22.6265C131.818 24.1876 130.025 24.9678 127.771 24.9678ZM127.977 10.548C127.076 10.548 126.372 11.0687 125.862 12.1083C125.467 12.8994 125.225 13.8568 125.126 14.9795C125.126 15.25 125.105 15.6469 125.067 16.165C125.029 16.6848 125.009 17.0816 125.009 17.3513C125.009 18.9531 125.145 20.242 125.419 21.2197C125.871 22.8012 126.655 23.5915 127.771 23.5915C128.516 23.5915 129.104 23.2591 129.535 22.5926C129.828 22.1364 130.085 21.4283 130.299 20.471C130.396 20.0555 130.486 19.3847 130.563 18.4587C130.643 17.5328 130.682 16.7993 130.682 16.2582C130.682 16.0089 130.668 15.7283 130.638 15.4154C130.607 15.105 130.583 14.865 130.563 14.6988C130.563 13.6991 130.377 12.8155 130.006 12.0464C129.535 11.0475 128.86 10.548 127.977 10.548Z" fill="#1A3B9F"/>
<path d="M149.522 24.5695C149.188 24.5695 148.915 24.5585 148.7 24.5373C147.835 24.4491 147.357 24.4058 147.261 24.4058C146.926 24.4058 146.49 24.433 145.952 24.4872C145.412 24.5424 145.103 24.5695 145.025 24.5695C144.575 22.9422 143.91 20.8757 143.025 18.3717C142.635 17.2871 142.183 16.044 141.674 14.6465C140.99 16.2119 140.363 17.7662 139.794 19.3112C139.164 21.0224 138.598 22.7743 138.089 24.5695L136.884 24.4677L135.738 24.5695C136.795 22.1011 137.853 19.5699 138.91 16.9768C140.106 14.0479 141.077 11.5379 141.822 9.44678C142.037 9.49935 142.224 9.54345 142.38 9.58415C142.538 9.62316 142.683 9.64181 142.82 9.64181C142.938 9.64181 143.104 9.61552 143.319 9.5638C143.535 9.51122 143.703 9.47391 143.819 9.44678C144.662 11.8313 145.582 14.3523 146.583 17.0081C147.464 19.3299 148.445 21.8501 149.522 24.5695Z" fill="#1A3B9F"/>
<path d="M151.168 24.6161L151.255 22.5445L151.375 19.5299L151.461 14.7592C151.461 14.1936 151.432 13.3355 151.375 12.1848C151.313 11.0341 151.286 10.1649 151.286 9.57898L151.551 9.61035L153.667 9.70363C153.882 9.70363 154.225 9.68328 154.698 9.64088C155.165 9.59933 155.52 9.57898 155.752 9.57898L155.52 13.6136C155.52 14.3005 155.498 15.3155 155.459 16.6578C155.421 18.0019 155.402 18.6947 155.402 18.7354C156.639 17.2981 157.797 15.8599 158.879 14.4226C159.959 12.9844 161.105 11.3699 162.323 9.57898C162.58 9.57898 162.835 9.58407 163.091 9.59424C163.349 9.60527 163.606 9.61035 163.862 9.61035H164.336C164.473 9.59 164.581 9.57898 164.662 9.57898L164.455 13.6136C164.455 14.3047 164.436 15.4631 164.398 17.0869C164.357 18.7116 164.337 19.5859 164.337 19.7122C164.337 20.801 164.347 21.6719 164.37 22.3214C164.388 22.971 164.456 23.735 164.572 24.6161C164.243 24.6161 163.784 24.5804 163.207 24.5109C162.629 24.4405 162.281 24.4049 162.162 24.4049C161.869 24.4049 161.472 24.4405 160.973 24.5109C160.473 24.5804 160.175 24.6161 160.075 24.6161L160.164 22.5394L160.281 19.5198V15.2723C159.012 16.7096 157.805 18.2045 156.66 19.7572C155.516 21.309 154.406 22.9286 153.331 24.6169C153.078 24.6169 152.714 24.6169 152.236 24.6169C151.757 24.6161 151.403 24.6161 151.168 24.6161Z" fill="#1A3B9F"/>
<path d="M167.159 14.661C167.159 14.0784 167.139 13.1126 167.099 11.7626C167.059 10.4118 167.042 9.68341 167.042 9.57996L167.306 9.61133L169.423 9.70461C169.637 9.70461 169.98 9.68426 170.45 9.64186C170.921 9.60031 171.274 9.57996 171.509 9.57996C171.398 10.5356 171.323 11.2572 171.28 11.7448C171.238 12.2324 171.216 12.8294 171.216 13.5349V14.6245C171.216 15.3309 171.397 15.8499 171.762 16.1823C172.127 16.5147 172.606 16.68 173.198 16.68C173.572 16.68 173.98 16.6088 174.426 16.4621C174.869 16.3179 175.26 16.1305 175.593 15.9024C175.593 15.8617 175.593 15.7625 175.593 15.6056C175.593 15.4505 175.593 15.1545 175.593 14.7187C175.593 14.1378 175.574 13.1618 175.536 11.7923C175.497 10.422 175.478 9.68426 175.478 9.58081L175.744 9.61218L177.873 9.70546C178.092 9.70546 178.436 9.68511 178.91 9.64271C179.382 9.60116 179.736 9.58081 179.972 9.58081L179.767 13.6171C179.767 14.3057 179.75 15.4589 179.71 17.0752C179.671 18.6931 179.652 19.5631 179.652 19.6895C179.652 20.7749 179.662 21.6398 179.68 22.286C179.7 22.9321 179.767 23.6953 179.887 24.5704C179.552 24.5704 179.097 24.5433 178.521 24.4881C177.942 24.4339 177.596 24.4067 177.478 24.4067C177.184 24.4067 176.786 24.4339 176.286 24.4881C175.787 24.5433 175.486 24.5704 175.391 24.5704L175.478 22.4912L175.594 19.4682V17.4932C174.947 17.9528 174.248 18.3022 173.501 18.5405C172.753 18.7821 172.036 18.9009 171.347 18.9009C170.148 18.9009 169.164 18.5786 168.398 17.9333C167.572 17.2278 167.16 16.2823 167.16 15.0969V14.661H167.159Z" fill="#1A3B9F"/>
<path d="M187.027 15.8041L189.367 15.8973L191.792 15.8041V14.7416C191.792 14.1777 191.771 13.3229 191.733 12.1764C191.692 11.0283 191.673 10.1642 191.673 9.57996L191.94 9.61133L194.069 9.70461C194.288 9.70461 194.632 9.68426 195.106 9.64186C195.578 9.60031 195.933 9.57996 196.169 9.57996L195.963 13.6163C195.963 14.3049 195.944 15.4581 195.906 17.0743C195.867 18.6923 195.848 19.5623 195.848 19.6886C195.848 20.774 195.858 21.639 195.876 22.2851C195.895 22.9313 195.963 23.6944 196.083 24.5695C195.749 24.5695 195.293 24.5424 194.716 24.4873C194.137 24.433 193.788 24.4059 193.673 24.4059C193.38 24.4059 192.982 24.433 192.483 24.4873C191.982 24.5424 191.684 24.5695 191.586 24.5695L191.673 22.5022L191.792 19.497V17.712L189.424 17.6187L187.028 17.712V19.6852C187.028 20.7698 187.04 21.6373 187.059 22.2834C187.078 22.9304 187.147 23.6936 187.267 24.5695C186.933 24.5695 186.477 24.5424 185.898 24.4873C185.321 24.433 184.972 24.4059 184.856 24.4059C184.561 24.4059 184.163 24.433 183.665 24.4873C183.166 24.5424 182.866 24.5695 182.767 24.5695L182.855 22.5047L182.974 19.5004L183.061 14.745C183.061 14.1811 183.028 13.3246 182.959 12.1781C182.89 11.0308 182.855 10.1651 182.855 9.58081L183.123 9.61218L185.25 9.70546C185.468 9.70546 185.815 9.68511 186.287 9.64271C186.761 9.60116 187.117 9.58081 187.353 9.58081L187.117 13.6155L187.027 15.8041Z" fill="#1A3B9F"/>
<path d="M200.227 13.2691H200.021L199.639 11.3926C200.325 10.7261 201.152 10.2097 202.122 9.84589C203.093 9.48041 204.078 9.2981 205.077 9.2981C206.522 9.2981 207.723 9.59913 208.677 10.2046C209.865 10.955 210.454 12.0498 210.454 13.4888V15.5841L210.368 20.1513L210.454 21.9346C210.454 22.1644 210.521 22.4196 210.656 22.7003C210.786 22.9827 210.947 23.1641 211.137 23.2472C211.213 23.2684 211.306 23.2896 211.421 23.31C211.534 23.332 211.638 23.3422 211.733 23.3422C211.827 23.3422 211.932 23.3422 212.045 23.3422C212.081 23.3642 212.102 23.516 212.102 23.7984V24.1223C211.908 24.2521 211.66 24.3776 211.367 24.4971C211.073 24.6167 210.846 24.7083 210.69 24.7736C210.494 24.8168 210.284 24.8609 210.059 24.9042C209.834 24.9466 209.632 24.9686 209.456 24.9686C208.77 24.9686 208.173 24.7651 207.663 24.3572C207.155 23.9502 206.781 23.3931 206.546 22.685C206.172 23.3837 205.65 23.9383 204.973 24.3504C204.297 24.7626 203.566 24.9686 202.784 24.9686C201.529 24.9686 200.515 24.6142 199.741 23.9027C198.965 23.1921 198.582 22.1779 198.582 20.8619C198.582 20.1513 198.733 19.4873 199.04 18.8708C199.346 18.2544 199.774 17.7744 200.328 17.4276C200.879 17.0825 201.481 16.8052 202.136 16.5974C202.214 16.5771 202.836 16.41 204.002 16.0963C204.455 15.9716 204.82 15.8665 205.097 15.7825C205.529 15.6367 205.886 15.4688 206.16 15.2814C206.321 15.1347 206.424 14.9736 206.474 14.7955C206.522 14.6174 206.547 14.3825 206.547 14.09C206.547 13.3785 206.268 12.7671 205.708 12.2558C205.151 11.7445 204.518 11.4884 203.813 11.4884C203.227 11.4884 202.658 11.608 202.109 11.8462C201.558 12.0871 201.041 12.4364 200.55 12.8952L200.227 13.2691ZM203.636 17.8753C203.284 18.1899 203.037 18.5503 202.901 18.959C202.763 19.3678 202.694 19.8664 202.694 20.4523C202.694 21.1434 202.817 21.7149 203.068 22.1652C203.317 22.6155 203.739 22.8411 204.338 22.8411C205.173 22.8411 205.771 22.4951 206.127 21.804C206.406 21.2596 206.546 20.504 206.546 19.5407C206.546 19.2049 206.546 18.7021 206.546 18.0322C206.546 17.3606 206.546 16.8586 206.546 16.5228L205.369 17.057C204.978 17.2258 204.683 17.3403 204.49 17.403C204.116 17.5506 203.834 17.7066 203.636 17.8753Z" fill="#1A3B9F"/>
<path d="M222.301 9.67408H222.771H223.212H223.566C224.508 9.67408 225.172 9.64186 225.564 9.57996L225.357 13.6163C225.357 14.3049 225.338 15.4581 225.301 17.0743C225.26 18.6923 225.24 19.5623 225.24 19.6886C225.24 20.5018 225.246 21.3159 225.252 22.1291C225.258 22.9423 225.294 23.7563 225.358 24.5695C225.03 24.5695 224.592 24.5424 224.039 24.4873C223.49 24.433 223.156 24.4059 223.038 24.4059C222.73 24.4059 222.333 24.433 221.849 24.4873C221.368 24.5424 221.087 24.5695 221.008 24.5695L221.169 22.5022L221.331 19.497V18.3378H220.863C220.279 19.0264 219.744 19.7582 219.257 20.529C218.889 21.1353 218.185 22.481 217.153 24.5695C216.621 24.5255 216.158 24.4881 215.766 24.4551C215.369 24.422 215.115 24.4059 214.997 24.4059C214.601 24.4059 214.104 24.433 213.503 24.4873C212.903 24.5424 212.573 24.5695 212.513 24.5695V24.3508C213.277 23.1399 213.972 22.0545 214.599 21.0929C215.442 19.8201 216.227 18.6931 216.952 17.712C216.029 17.4203 215.296 17.0031 214.747 16.4612C213.982 15.7116 213.599 14.7933 213.599 13.7087C213.599 12.2918 214.099 11.2496 215.101 10.5814C216.099 9.91321 217.451 9.58081 219.155 9.58081L222.301 9.67408ZM221.332 12.653L221.214 11.236H220.598C219.735 11.236 219.029 11.4633 218.48 11.9136C217.932 12.3647 217.659 12.999 217.659 13.8173C217.659 14.7195 217.96 15.442 218.568 15.9889C219.119 16.4706 219.793 16.7114 220.598 16.7114H221.332C221.332 16.1246 221.332 15.4318 221.332 14.6356C221.332 13.8385 221.332 13.1771 221.332 12.653Z" fill="#1A3B9F"/>
<path d="M101.6 49.2086H101.351C100.935 48.7024 100.307 48.3725 99.4673 48.2199C98.6278 48.0656 97.5931 47.9892 96.3624 47.9892H95.489C93.7944 47.9892 92.6629 48.0257 92.098 48.0978C90.9335 48.2419 90.1031 48.6116 89.6044 49.2095H89.3794C89.4629 48.794 89.5043 48.3055 89.5043 47.745C89.5043 47.3304 89.4629 46.9428 89.3794 46.5808H90.3024C91.9483 42.7606 93.4528 38.9227 94.8158 35.0653L95.6636 35.1747L96.5121 35.0653C97.7751 38.8133 99.1803 42.6521 100.727 46.5808H101.599C101.515 46.9428 101.475 47.3304 101.475 47.745C101.475 47.963 101.482 48.1961 101.499 48.4497C101.516 48.7024 101.55 48.9551 101.6 49.2086ZM97.0117 46.4705C96.6627 45.2198 96.3145 44.0784 95.9646 43.0439C95.8306 42.6809 95.4063 41.5116 94.6926 39.5358C94.2096 40.7323 93.7687 41.8838 93.3701 42.9896C92.9218 44.2047 92.5223 45.3648 92.1733 46.4705C92.4727 46.4705 93.0119 46.4883 93.7944 46.5248C94.5751 46.5604 95.0242 46.5782 95.14 46.5782C95.3898 46.5782 95.6685 46.5731 95.9745 46.5638C96.2847 46.557 96.6288 46.5265 97.0117 46.4705Z" fill="#1A3B9F"/>
<path d="M102.997 48.1988L103.071 46.4036L103.17 43.7936L103.246 39.6614C103.246 39.1713 103.221 38.4285 103.17 37.4312C103.122 36.4349 103.098 35.6827 103.098 35.174L103.322 35.2002L105.117 35.2825C105.3 35.2825 105.59 35.2647 105.992 35.2282C106.388 35.1926 106.69 35.174 106.888 35.174L106.69 38.6684C106.69 39.2637 106.671 40.1431 106.638 41.3065C106.604 42.469 106.589 43.0686 106.589 43.1042C107.639 41.8594 108.622 40.6145 109.538 39.3706C110.454 38.124 111.429 36.7257 112.46 35.174C112.678 35.174 112.895 35.179 113.114 35.1867C113.332 35.196 113.549 35.2002 113.766 35.2002H114.169C114.285 35.1833 114.376 35.174 114.444 35.174L114.271 38.6684C114.271 39.268 114.254 40.272 114.219 41.6787C114.187 43.0855 114.171 43.8428 114.171 43.9513C114.171 44.8951 114.177 45.6498 114.196 46.212C114.21 46.7751 114.27 47.4365 114.369 48.1996C114.086 48.1996 113.699 48.1683 113.211 48.1081C112.72 48.047 112.425 48.0173 112.325 48.0173C112.076 48.0173 111.74 48.047 111.315 48.1081C110.89 48.1683 110.638 48.1996 110.554 48.1996L110.63 46.3994L110.727 43.7851V40.1049C109.651 41.3514 108.626 42.6446 107.656 43.9903C106.686 45.3343 105.745 46.7377 104.832 48.1996C104.617 48.1996 104.308 48.1996 103.901 48.1996C103.497 48.1988 103.194 48.1988 102.997 48.1988Z" fill="#1A3B9F"/>
<path d="M117.81 38.3709H117.635L117.31 36.7453C117.891 36.1678 118.595 35.721 119.419 35.403C120.241 35.0884 121.076 34.929 121.924 34.929C123.15 34.929 124.17 35.1918 124.977 35.715C125.983 36.3654 126.488 37.3143 126.488 38.56V40.3746L126.412 44.3304L126.488 45.8737C126.488 46.073 126.543 46.2935 126.657 46.5368C126.767 46.7811 126.905 46.9413 127.065 47.0126C127.128 47.0304 127.209 47.0482 127.305 47.0668C127.401 47.0846 127.49 47.0931 127.571 47.0931C127.65 47.0931 127.739 47.0931 127.833 47.0931C127.866 47.1126 127.882 47.2449 127.882 47.4883V47.7698C127.717 47.8826 127.509 47.9903 127.259 48.0954C127.009 48.198 126.819 48.2777 126.687 48.3337C126.519 48.3702 126.34 48.4075 126.151 48.4456C125.959 48.4829 125.789 48.5024 125.641 48.5024C125.058 48.5024 124.55 48.3244 124.118 47.9733C123.685 47.6197 123.371 47.1372 123.17 46.525C122.854 47.1287 122.409 47.6087 121.837 47.9657C121.263 48.3244 120.643 48.5024 119.981 48.5024C118.914 48.5024 118.055 48.1938 117.398 47.5781C116.741 46.9625 116.413 46.0857 116.413 44.946C116.413 44.3296 116.542 43.7555 116.802 43.2213C117.06 42.687 117.426 42.2707 117.895 41.9722C118.363 41.6729 118.875 41.432 119.428 41.2506C119.494 41.2336 120.024 41.0895 121.01 40.8164C121.395 40.7079 121.706 40.618 121.941 40.5451C122.309 40.4187 122.61 40.2746 122.846 40.1109C122.978 39.9846 123.066 39.8446 123.109 39.6895C123.151 39.536 123.171 39.3316 123.171 39.0781C123.171 38.4633 122.935 37.9342 122.46 37.4907C121.986 37.0463 121.45 36.825 120.853 36.825C120.354 36.825 119.872 36.9293 119.406 37.1362C118.941 37.3448 118.499 37.6476 118.083 38.0436L117.81 38.3709ZM120.701 42.3589C120.403 42.6302 120.196 42.9431 120.078 43.2984C119.963 43.6529 119.903 44.0837 119.903 44.5916C119.903 45.1903 120.009 45.6838 120.22 46.0738C120.432 46.4656 120.79 46.6589 121.298 46.6589C122.005 46.6589 122.513 46.3596 122.817 45.7601C123.054 45.2886 123.171 44.6348 123.171 43.7996C123.171 43.5096 123.171 43.0737 123.171 42.492C123.171 41.912 123.171 41.4778 123.171 41.1861L122.176 41.6483C121.841 41.7941 121.592 41.895 121.426 41.9485C121.11 42.0774 120.868 42.2147 120.701 42.3589Z" fill="#1A3B9F"/>
<path d="M137.137 35.1682C137.052 35.4947 137.013 35.7932 137.013 36.0645C137.013 36.3918 137.053 36.709 137.137 37.0159C136.541 36.9447 135.972 36.8811 135.426 36.8268C134.882 36.7726 134.302 36.7454 133.691 36.7454H133.02L132.972 38.6712V43.9295C132.972 44.869 132.978 45.6186 132.996 46.1783C133.013 46.7379 133.072 47.3985 133.169 48.1583C132.887 48.1583 132.498 48.1345 132.002 48.0871C131.51 48.0387 131.213 48.0158 131.112 48.0158C130.86 48.0158 130.523 48.0387 130.095 48.0871C129.67 48.1345 129.414 48.1583 129.332 48.1583L129.43 46.3682L129.529 43.7658V39.6472C129.529 39.1605 129.514 38.4185 129.481 37.4247C129.446 36.43 129.429 35.6821 129.429 35.175C129.974 35.2106 130.568 35.2479 131.213 35.2835C131.856 35.3192 132.476 35.3378 133.071 35.3378H133.591C134.832 35.3378 136.013 35.2801 137.137 35.1682Z" fill="#1A3B9F"/>
<path d="M142.174 40.5654L144.156 40.6468L146.214 40.5654V39.6436C146.214 39.1569 146.197 38.4166 146.163 37.4219C146.13 36.4289 146.113 35.6793 146.113 35.174L146.338 35.2002L148.146 35.2825C148.33 35.2825 148.623 35.2647 149.024 35.2282C149.427 35.1926 149.728 35.174 149.928 35.174L149.754 38.671C149.754 39.2663 149.736 40.266 149.703 41.666C149.67 43.066 149.652 43.8207 149.652 43.9293C149.652 44.8697 149.662 45.6193 149.679 46.1798C149.695 46.7394 149.754 47.3992 149.852 48.1581C149.57 48.1581 149.184 48.1343 148.696 48.0869C148.204 48.0385 147.909 48.0156 147.81 48.0156C147.56 48.0156 147.224 48.0385 146.8 48.0869C146.376 48.1343 146.122 48.1581 146.039 48.1581L146.114 46.3663L146.214 43.7647V42.2189L144.206 42.1366L142.173 42.2189V43.9267C142.173 44.868 142.182 45.6176 142.198 46.1789C142.214 46.7386 142.273 47.3983 142.372 48.1589C142.09 48.1589 141.703 48.1352 141.213 48.0877C140.722 48.0394 140.428 48.0165 140.327 48.0165C140.079 48.0165 139.74 48.0394 139.318 48.0877C138.894 48.1352 138.64 48.1589 138.556 48.1589L138.631 46.3689L138.732 43.7664L138.807 39.6478C138.807 39.1611 138.778 38.4191 138.72 37.4253C138.661 36.4306 138.632 35.6827 138.632 35.1756L138.858 35.2019L140.666 35.2842C140.849 35.2842 141.142 35.2664 141.544 35.2299C141.946 35.1943 142.249 35.1756 142.45 35.1756L142.25 38.6701L142.174 40.5654Z" fill="#1A3B9F"/>
<path d="M157.983 48.5041C156.139 48.5041 154.666 47.919 153.571 46.7454C152.471 45.5735 151.924 43.9878 151.924 41.9883C151.924 40.9614 152.054 40.0244 152.312 39.1764C152.568 38.3302 152.996 37.5551 153.596 36.8522C154.096 36.2577 154.758 35.7744 155.592 35.4047C156.422 35.0341 157.227 34.8501 158.01 34.8501C158.856 34.8501 159.696 34.9993 160.528 35.2961C161.361 35.5938 162.033 36.044 162.548 36.6478C163.064 37.2524 163.458 37.9723 163.734 38.8118C164.007 39.6488 164.144 40.5103 164.144 41.3922C164.144 43.502 163.612 45.197 162.548 46.4766C161.419 47.8283 159.896 48.5041 157.983 48.5041ZM158.158 36.0144C157.393 36.0144 156.796 36.4638 156.363 37.3652C156.029 38.0503 155.824 38.878 155.74 39.8531C155.74 40.0855 155.723 40.4289 155.689 40.88C155.656 41.3294 155.639 41.6729 155.639 41.9069C155.639 43.2942 155.756 44.411 155.987 45.2581C156.372 46.6267 157.035 47.3127 157.982 47.3127C158.614 47.3127 159.113 47.0236 159.479 46.447C159.729 46.0501 159.946 45.4387 160.128 44.6086C160.211 44.249 160.286 43.6682 160.352 42.866C160.417 42.0629 160.45 41.4287 160.45 40.9606C160.45 40.7443 160.439 40.501 160.415 40.2313C160.389 39.96 160.368 39.7539 160.352 39.6081C160.352 38.744 160.194 37.9791 159.88 37.3109C159.48 36.4468 158.908 36.0144 158.158 36.0144Z" fill="#1A3B9F"/>
<path d="M176.663 36.1476L175.716 38.9128H175.114C175.018 38.1267 174.749 37.4814 174.319 36.982C173.885 36.4817 173.303 36.2307 172.571 36.2307C171.524 36.2307 170.734 36.8421 170.204 38.0691C169.787 39.023 169.58 40.1407 169.58 41.4177C169.58 42.2665 169.63 42.978 169.73 43.5538C169.829 44.1304 170.05 44.6849 170.39 45.2166C170.731 45.7475 171.143 46.1307 171.624 46.3648C172.107 46.5988 172.663 46.715 173.296 46.715C173.761 46.715 174.235 46.5988 174.718 46.3639C175.198 46.129 175.591 45.8212 175.891 45.4439L176.314 45.8212L175.717 47.4205C175.416 47.7097 174.91 47.9522 174.194 48.1515C173.478 48.3499 172.865 48.4499 172.35 48.4499C171.417 48.4499 170.579 48.3329 169.83 48.098C168.916 47.8106 168.174 47.3578 167.61 46.743C166.414 45.4244 165.815 43.809 165.815 41.8934C165.815 39.7438 166.414 38.0368 167.61 36.7725C168.807 35.509 170.395 34.8756 172.374 34.8756C173.121 34.8756 173.877 34.9825 174.643 35.1936C175.408 35.4064 176.08 35.7236 176.663 36.1476Z" fill="#1A3B9F"/>
<path d="M180.602 36.7182C179.815 36.7182 179.262 36.7334 178.945 36.7614C178.625 36.7903 178.023 36.8734 177.136 37.009C177.217 36.7394 177.259 36.4239 177.259 36.0618C177.259 35.7913 177.217 35.4929 177.136 35.1681C177.299 35.1681 178.313 35.2147 180.171 35.3072C180.917 35.3453 181.656 35.364 182.385 35.364C183.031 35.364 183.927 35.3309 185.072 35.2656C186.215 35.2003 187.013 35.1672 187.46 35.1672C187.377 35.4878 187.334 35.782 187.334 36.05C187.334 36.3714 187.378 36.6843 187.46 36.9895C186.91 36.9158 186.353 36.8539 185.789 36.7987C185.223 36.7453 184.641 36.7173 184.045 36.7173V38.6456V43.9175C184.045 44.8612 184.048 45.6117 184.06 46.1731C184.068 46.7361 184.106 47.395 184.17 48.1573C183.891 48.1573 183.512 48.1336 183.032 48.0861C182.551 48.0377 182.261 48.0149 182.163 48.0149C181.919 48.0149 181.59 48.0377 181.174 48.0861C180.757 48.1336 180.51 48.1573 180.427 48.1573L180.503 46.363L180.603 43.7555V39.625V36.7182H180.602Z" fill="#1A3B9F"/>
<path d="M188.881 48.1988L188.955 46.4036L189.054 43.7936L189.13 39.6614C189.13 39.1713 189.106 38.4285 189.054 37.4312C189.006 36.4349 188.981 35.6827 188.981 35.174L189.207 35.2002L191.001 35.2825C191.184 35.2825 191.475 35.2647 191.874 35.2282C192.271 35.1926 192.57 35.174 192.771 35.174L192.57 38.6684C192.57 39.2637 192.555 40.1431 192.522 41.3065C192.488 42.469 192.473 43.0686 192.473 43.1042C193.522 41.8594 194.505 40.6145 195.42 39.3706C196.337 38.124 197.311 36.7257 198.344 35.174C198.561 35.174 198.778 35.179 198.995 35.1867C199.213 35.196 199.431 35.2002 199.649 35.2002H200.05C200.166 35.1833 200.26 35.174 200.326 35.174L200.151 38.6684C200.151 39.268 200.135 40.272 200.101 41.6787C200.068 43.0855 200.051 43.8428 200.051 43.9513C200.051 44.8951 200.059 45.6498 200.075 46.212C200.092 46.7751 200.151 47.4365 200.249 48.1996C199.966 48.1996 199.58 48.1683 199.091 48.1081C198.601 48.047 198.306 48.0173 198.206 48.0173C197.957 48.0173 197.619 48.047 197.195 48.1081C196.774 48.1683 196.518 48.1996 196.434 48.1996L196.511 46.3994L196.61 43.7851V40.1049C195.531 41.3514 194.507 42.6446 193.536 43.9903C192.565 45.3343 191.624 46.7377 190.714 48.1996C190.497 48.1996 190.188 48.1996 189.783 48.1996C189.379 48.1988 189.079 48.1988 188.881 48.1988Z" fill="#1A3B9F"/>
<path d="M209.355 40.104L211.349 43.5722L213.795 47.935V48.1512C213.528 48.1512 213.165 48.1283 212.707 48.0842C212.246 48.0393 211.977 48.0164 211.892 48.0164C211.593 48.0164 211.211 48.0393 210.742 48.0842C210.276 48.1283 210.007 48.1512 209.941 48.1512L209.267 46.8301L208.417 45.2113L207.065 42.893C206.898 42.6046 206.806 42.452 206.789 42.4342C206.655 42.2544 206.506 42.1552 206.339 42.1366L206.265 42.8378V44.2395V45.9134C206.265 46.1822 206.284 46.5867 206.325 47.126C206.367 47.6662 206.388 48.0088 206.388 48.1512C206.14 48.1512 205.801 48.1283 205.373 48.0842C204.942 48.0393 204.688 48.0164 204.603 48.0164C204.355 48.0164 204.017 48.0393 203.589 48.0842C203.159 48.1283 202.903 48.1512 202.821 48.1512V47.4737C202.821 46.987 202.849 46.2365 202.908 45.2257C202.966 44.2158 202.995 43.5272 202.995 43.166V38.2622L202.82 35.1476C203.117 35.2002 203.506 35.2375 203.978 35.2553C204.453 35.2731 204.722 35.2824 204.789 35.2824C205.153 35.2824 205.433 35.2731 205.624 35.2553C205.814 35.2375 206.127 35.2002 206.56 35.1476C206.5 35.7658 206.437 36.5035 206.367 37.365C206.294 38.2266 206.263 38.9838 206.263 39.6384C206.263 39.8377 206.263 40.0294 206.263 40.2091C206.263 40.3914 206.285 40.645 206.337 40.9723C206.387 41.0249 206.461 41.0359 206.562 40.9986C207.332 40.1464 208.128 39.2034 208.947 38.1681C209.667 37.2616 210.413 36.2728 211.183 35.2002L212.388 35.2553L213.518 35.2002V35.4181C213.069 36.0142 212.38 36.7986 211.447 37.7746C210.453 38.8227 209.754 39.6003 209.355 40.104Z" fill="#1A3B9F"/>
<path d="M215.714 38.3709H215.54L215.217 36.7453C215.798 36.1678 216.5 35.721 217.323 35.403C218.146 35.0884 218.982 34.929 219.829 34.929C221.057 34.929 222.075 35.1918 222.885 35.715C223.89 36.3654 224.392 37.3143 224.392 38.56V40.3746L224.317 44.3304L224.392 45.8737C224.392 46.073 224.447 46.2935 224.561 46.5368C224.674 46.7811 224.809 46.9413 224.97 47.0126C225.034 47.0304 225.115 47.0482 225.21 47.0668C225.308 47.0846 225.396 47.0931 225.476 47.0931C225.556 47.0931 225.644 47.0931 225.74 47.0931C225.772 47.1126 225.789 47.2449 225.789 47.4883V47.7698C225.622 47.8826 225.415 47.9903 225.165 48.0954C224.916 48.198 224.725 48.2777 224.592 48.3337C224.425 48.3702 224.248 48.4075 224.056 48.4456C223.865 48.4829 223.693 48.5024 223.544 48.5024C222.964 48.5024 222.457 48.3244 222.024 47.9733C221.593 47.6197 221.274 47.1372 221.076 46.525C220.758 47.1287 220.315 47.6087 219.741 47.9657C219.168 48.3244 218.549 48.5024 217.884 48.5024C216.82 48.5024 215.959 48.1938 215.304 47.5781C214.644 46.9625 214.319 46.0857 214.319 44.946C214.319 44.3296 214.448 43.7555 214.707 43.2213C214.968 42.687 215.331 42.2707 215.799 41.9722C216.269 41.6729 216.781 41.432 217.333 41.2506C217.399 41.2336 217.928 41.0895 218.915 40.8164C219.3 40.7079 219.609 40.618 219.844 40.5451C220.212 40.4187 220.515 40.2746 220.749 40.1109C220.884 39.9846 220.973 39.8446 221.014 39.6895C221.054 39.536 221.076 39.3316 221.076 39.0781C221.076 38.4633 220.839 37.9342 220.366 37.4907C219.891 37.0463 219.355 36.825 218.757 36.825C218.259 36.825 217.775 36.9293 217.311 37.1362C216.845 37.3448 216.404 37.6476 215.988 38.0436L215.714 38.3709ZM218.608 42.3589C218.309 42.6302 218.1 42.9431 217.983 43.2984C217.867 43.6529 217.81 44.0837 217.81 44.5916C217.81 45.1903 217.915 45.6838 218.127 46.0738C218.337 46.4656 218.696 46.6589 219.202 46.6589C219.911 46.6589 220.419 46.3596 220.722 45.7601C220.958 45.2886 221.077 44.6348 221.077 43.7996C221.077 43.5096 221.077 43.0737 221.077 42.492C221.077 41.912 221.077 41.4778 221.077 41.1861L220.081 41.6483C219.747 41.7941 219.498 41.895 219.332 41.9485C219.015 42.0774 218.774 42.2147 218.608 42.3589Z" fill="#1A3B9F"/>
<path fill-rule="evenodd" clip-rule="evenodd" d="M48.611 19.5491H42.7355V0.767412H59.0204C74.2042 0.639368 84 10.2223 84 26.0649C84 41.9049 73.5906 51.3623 59.0204 51.3623H58.8985H42.7355V32.4526H48.611L48.6143 32.4764C48.6143 33.254 48.611 33.5117 48.611 34.1121V45.2298H60.9797V32.4518H73.4703V19.5491H60.9797V6.77188H48.611V18.0151M42.7355 51.3623H42.3665V44.4607C38.0822 49.1881 31.8368 52 24.9796 52C11.144 52 0 40.3752 0 26.0657C0 11.6265 11.144 0 24.9796 0C31.8368 0 38.0822 2.93906 42.3665 7.53844V0.76826H42.7355V19.5499H42.3665H36.8558C34.7771 14.6936 30.2465 11.3721 25.1023 11.3721C17.9997 11.3721 12.1233 17.8879 12.1233 26.0657C12.1233 34.1121 17.9988 40.7576 25.1023 40.7576C30.2465 40.7576 34.7771 37.3098 36.8558 32.4535H42.3665H42.7355V51.3623Z" fill="#1A3B9F"/>
</svg>
