<?xml version="1.0" encoding="utf-8"?><svg xmlns="http://www.w3.org/2000/svg" xmlns:xlink="http://www.w3.org/1999/xlink">

<symbol  viewBox="0 0 15 20" fill="none" xmlns="http://www.w3.org/2000/svg" id="balloon">
<path d="M7.5 20C7.5 20 15 12.8925 15 7.5C15 5.51088 14.2098 3.60322 12.8033 2.1967C11.3968 0.790176 9.48912 0 7.5 0C5.51088 0 3.60322 0.790176 2.1967 2.1967C0.790176 3.60322 2.96403e-08 5.51088 0 7.5C0 12.8925 7.5 20 7.5 20ZM7.5 11.25C6.50544 11.25 5.55161 10.8549 4.84835 10.1517C4.14509 9.44839 3.75 8.49456 3.75 7.5C3.75 6.50544 4.14509 5.55161 4.84835 4.84835C5.55161 4.14509 6.50544 3.75 7.5 3.75C8.49456 3.75 9.44839 4.14509 10.1517 4.84835C10.8549 5.55161 11.25 6.50544 11.25 7.5C11.25 8.49456 10.8549 9.44839 10.1517 10.1517C9.44839 10.8549 8.49456 11.25 7.5 11.25Z" fill="currentColor"></path>
</symbol>

<symbol xmlns="http://www.w3.org/2000/svg" viewBox="0 0 20 20" id="vk">
  <path fill="currentColor" d="M10.994,6.771v3.257a0.521,0.521,0,0,0,.426.351c0.3,0,.978-1.8,1.279-2.406a1.931,1.931,0,0,1,.738-0.826A0.61,0.61,0,0,1,13.8,6.992h2.878a0.464,0.464,0,0,1,.3.727,29.378,29.378,0,0,1-2.255,2.736,1.315,1.315,0,0,0-.238.55,1.2,1.2,0,0,0,.313.627c0.2,0.226,1.816,2,1.966,2.155a1.194,1.194,0,0,1,.276.576,0.765,0.765,0,0,1-.8.614c-0.627,0-2.167,0-2.342,0a2.788,2.788,0,0,1-.952-0.565c-0.226-.2-1.153-1.152-1.278-1.277a2.457,2.457,0,0,0,.024-0.363,0.826,0.826,0,0,0-.7.8,4.083,4.083,0,0,1-.238,1.139,1.024,1.024,0,0,1-.737.275A5,5,0,0,1,7.1,14.262,14.339,14.339,0,0,1,2.9,9.251C2.127,7.708,1.953,7.468,2,7.293s0.05-.3.226-0.3,2.39,0,2.606,0a0.851,0.851,0,0,1,.351.326c0.075,0.1.647,1.056,0.822,1.356S7.046,10.38,7.513,10.38a0.6,0.6,0,0,0,.474-0.7c0-.4,0-1.979,0-2.18a1.94,1.94,0,0,0-.978-1A1.261,1.261,0,0,1,7.937,6c0.6-.025,2.1-0.025,2.43.024A0.779,0.779,0,0,1,10.994,6.771Z"></path>
</symbol>

<symbol  viewBox="0 0 20 20" fill="none" xmlns="http://www.w3.org/2000/svg" id="WhatsApp">
<path fill-rule="evenodd" clip-rule="evenodd" d="M10.0003 17C8.68042 16.9966 7.38878 16.6172 6.27613 15.906L3 17L4.09208 13.7169C3.26933 12.4015 2.90628 10.8495 3.06016 9.30481C3.21404 7.76017 3.87613 6.31059 4.94216 5.18405C6.0082 4.05751 7.41767 3.31792 8.94909 3.0816C10.4805 2.84528 12.047 3.12562 13.402 3.87857C14.757 4.63151 15.8237 5.81429 16.4344 7.24095C17.0451 8.66761 17.1651 10.2572 16.7756 11.7597C16.3861 13.2622 15.5092 14.5923 14.2827 15.5409C13.0562 16.4895 11.5497 17.0028 10.0003 17V17ZM11.5217 11.0491C11.9873 11.2 12.4609 11.3249 12.9404 11.4232C12.9908 11.4306 13.0392 11.4482 13.0827 11.4748C13.1262 11.5014 13.1639 11.5365 13.1936 11.5781C13.2232 11.6196 13.2442 11.6668 13.2552 11.7167C13.2662 11.7665 13.267 11.8181 13.2577 11.8683V12.1376C13.2623 12.2337 13.2445 12.3296 13.2056 12.4176C13.1668 12.5055 13.1079 12.5832 13.0337 12.6444C12.8037 12.8783 12.5313 13.0662 12.231 13.198C11.7881 13.2508 11.339 13.2116 10.9119 13.0829C10.4847 12.9542 10.0886 12.7387 9.74824 12.4499C9.30937 12.1549 8.89997 11.8184 8.52558 11.4447C8.15297 11.0677 7.81548 10.6573 7.51747 10.2188C7.23151 9.87755 7.01857 9.48114 6.89173 9.05409C6.7649 8.62705 6.72695 8.17851 6.78019 7.73617C6.91192 7.43707 7.09871 7.1655 7.33084 6.93573C7.38998 6.85994 7.46697 6.80006 7.55496 6.76154C7.64295 6.72302 7.73921 6.70703 7.8349 6.71503H8.1055C8.20759 6.7009 8.31118 6.7279 8.39342 6.79013C8.47566 6.85236 8.5298 6.94477 8.54416 7.04702C8.68416 7.60058 8.78686 8.0008 8.92687 8.44964C8.98287 8.63665 8.91761 8.68152 8.76827 8.79373C8.67493 8.86573 8.60025 8.91811 8.52558 8.97328C8.48228 8.99216 8.44343 9.01994 8.41153 9.05484C8.37964 9.08974 8.3554 9.13095 8.34044 9.17583C8.32547 9.22071 8.32004 9.26828 8.3246 9.31537C8.32916 9.36247 8.34358 9.40804 8.36687 9.44921C8.60524 9.90882 8.91032 10.3305 9.27221 10.7004C9.6409 11.0636 10.0627 11.3685 10.523 11.6046C10.5642 11.6275 10.6096 11.6416 10.6565 11.6461C10.7035 11.6505 10.7508 11.645 10.7955 11.6302C10.8403 11.6153 10.8815 11.5914 10.9165 11.5598C10.9516 11.5281 10.9795 11.4896 10.9989 11.4465C11.0549 11.3708 11.1016 11.2997 11.1763 11.2025C11.188 11.1689 11.2063 11.1379 11.2301 11.1116C11.2539 11.0852 11.2829 11.0639 11.3151 11.049C11.3473 11.0341 11.3823 11.0258 11.4178 11.0247C11.4532 11.0236 11.4886 11.0297 11.5217 11.0426V11.0426V11.0491Z" fill="currentColor"></path>
</symbol>

<symbol id="search" viewBox="0 0 18 18" fill="none" xmlns="http://www.w3.org/2000/svg">
<path d="M13.2103 11.6361C14.2996 10.1495 14.7874 8.30632 14.5763 6.47538C14.3652 4.64443 13.4706 2.96073 12.0715 1.76112C10.6725 0.56151 8.87214 -0.065537 7.03069 0.00542765C5.18923 0.0763923 3.44246 0.840135 2.13986 2.14386C0.837249 3.44758 0.0748641 5.19514 0.00522715 7.0369C-0.0644098 8.87867 0.563837 10.6788 1.76428 12.0772C2.96472 13.4756 4.64882 14.3691 6.47966 14.579C8.3105 14.7888 10.1531 14.2995 11.6387 13.209H11.6376C11.6713 13.254 11.7073 13.2968 11.7478 13.3384L16.0789 17.6701C16.2898 17.8812 16.576 17.9999 16.8744 18C17.1728 18.0001 17.4591 17.8816 17.6702 17.6707C17.8812 17.4597 17.9999 17.1735 18 16.8751C18.0001 16.5766 17.8817 16.2903 17.6707 16.0792L13.3396 11.7475C13.2994 11.7068 13.2562 11.6692 13.2103 11.635V11.6361ZM13.5005 7.31117C13.5005 8.12381 13.3405 8.92849 13.0295 9.67927C12.7186 10.43 12.2628 11.1122 11.6883 11.6868C11.1138 12.2615 10.4317 12.7173 9.681 13.0283C8.93033 13.3392 8.12576 13.4993 7.31324 13.4993C6.50071 13.4993 5.69614 13.3392 4.94547 13.0283C4.1948 12.7173 3.51272 12.2615 2.93818 11.6868C2.36364 11.1122 1.90788 10.43 1.59695 9.67927C1.28601 8.92849 1.12597 8.12381 1.12597 7.31117C1.12597 5.66997 1.77784 4.096 2.93818 2.9355C4.09851 1.77499 5.67227 1.12303 7.31324 1.12303C8.9542 1.12303 10.528 1.77499 11.6883 2.9355C12.8486 4.096 13.5005 5.66997 13.5005 7.31117Z" fill="currentColor"></path>
</symbol>

<symbol viewBox="0 0 24 24" fill="none" xmlns="http://www.w3.org/2000/svg" id="arrowRight">
<path d="M9.71069 18.2929C10.1012 18.6834 10.7344 18.6834 11.1249 18.2929L16.0123 13.4006C16.7927 12.6195 16.7924 11.3537 16.0117 10.5729L11.1213 5.68254C10.7308 5.29202 10.0976 5.29202 9.70708 5.68254C9.31655 6.07307 9.31655 6.70623 9.70708 7.09676L13.8927 11.2824C14.2833 11.6729 14.2833 12.3061 13.8927 12.6966L9.71069 16.8787C9.32016 17.2692 9.32016 17.9023 9.71069 18.2929Z" fill="currentColor"/>
</symbol>

<symbol iewBox="0 0 24 24" fill="none" xmlns="http://www.w3.org/2000/svg" id="arrowLeft">
<path d="M14.2893 5.70708C13.8988 5.31655 13.2657 5.31655 12.8751 5.70708L7.98768 10.5993C7.20729 11.3805 7.2076 12.6463 7.98837 13.427L12.8787 18.3174C13.2693 18.7079 13.9024 18.7079 14.293 18.3174C14.6835 17.9269 14.6835 17.2937 14.293 16.9032L10.1073 12.7175C9.71678 12.327 9.71678 11.6939 10.1073 11.3033L14.2893 7.12129C14.6799 6.73077 14.6799 6.0976 14.2893 5.70708Z" fill="currentColor"/>
</symbol>

<symbol  viewBox="0 0 24 24" id="arrowFullLeft" xmlns="http://www.w3.org/2000/svg">
<path d="M18 12L6 12M6 12L11 17M6 12L11 7" stroke="currentColor" stroke-linecap="round" stroke-linejoin="round"/>
</symbol>

<symbol  xmlns="http://www.w3.org/2000/svg" id="timeBold" viewBox="0 0 13 11" >
<path fill="currentColor"  d="M536.5,1200a5.5,5.5,0,1,1,5.5-5.5A5.5,5.5,0,0,1,536.5,1200Zm0-9a3.5,3.5,0,1,0,3.5,3.5A3.5,3.5,0,0,0,536.5,1191Zm1.562,4H537.68a1.281,1.281,0,1,1-1.68-1.68V1192a0.5,0.5,0,0,1,1,0v1.32a1.275,1.275,0,0,1,.68.68h0.382A0.5,0.5,0,0,1,538.062,1195Z" transform="translate(-531 -1189)"/>
</symbol>

<symbol  xmlns="http://www.w3.org/2000/svg" id="metro" viewBox="0 0 13 11" >
  <path fill="currentColor"  d="M524.306,1198.97v-0.68h0.965l-1.1-2.62L522.5,1199h0l-1.667-3.33-1.1,2.62h0.965v0.68H516v-0.68h0.806l3.416-8.29,2.278,4.69,2.278-4.69,3.416,8.29H529v0.68h-4.694Z" transform="translate(-516 -1189)"/>
</symbol>


<symbol  viewBox="0 0 24 24" fill="none" xmlns="http://www.w3.org/2000/svg" id="arrowRightBig">
<path fill-rule="evenodd" clip-rule="evenodd" d="M12.2929 4.29289C12.6834 3.90237 13.3166 3.90237 13.7071 4.29289L20.7071 11.2929C21.0976 11.6834 21.0976 12.3166 20.7071 12.7071L13.7071 19.7071C13.3166 20.0976 12.6834 20.0976 12.2929 19.7071C11.9024 19.3166 11.9024 18.6834 12.2929 18.2929L17.5858 13H4C3.44772 13 3 12.5523 3 12C3 11.4477 3.44772 11 4 11H17.5858L12.2929 5.70711C11.9024 5.31658 11.9024 4.68342 12.2929 4.29289Z" fill="currentColor"/>
</symbol>

<symbol   viewBox="0 0 24 24" fill="none" xmlns="http://www.w3.org/2000/svg" id="arrowLeftBig">
<path fill-rule="evenodd" clip-rule="evenodd" d="M11.7071 4.29289C12.0976 4.68342 12.0976 5.31658 11.7071 5.70711L6.41421 11H20C20.5523 11 21 11.4477 21 12C21 12.5523 20.5523 13 20 13H6.41421L11.7071 18.2929C12.0976 18.6834 12.0976 19.3166 11.7071 19.7071C11.3166 20.0976 10.6834 20.0976 10.2929 19.7071L3.29289 12.7071C3.10536 12.5196 3 12.2652 3 12C3 11.7348 3.10536 11.4804 3.29289 11.2929L10.2929 4.29289C10.6834 3.90237 11.3166 3.90237 11.7071 4.29289Z" fill="currentColor"/>
</symbol>
<symbol  xmlns="http://www.w3.org/2000/svg" width="5" height="3" viewBox="0 0 5 3" id="arrowSmall">
  <path fill="currentColor" d="M1408,91h5l-2.51,3Z" transform="translate(-1408 -91)"/>
</symbol>


<symbol  viewBox="0 0 12 12" fill="none" xmlns="http://www.w3.org/2000/svg" id="clock">
<path d="M12 6C12 7.5913 11.3679 9.11742 10.2426 10.2426C9.11742 11.3679 7.5913 12 6 12C4.4087 12 2.88258 11.3679 1.75736 10.2426C0.632141 9.11742 0 7.5913 0 6C0 4.4087 0.632141 2.88258 1.75736 1.75736C2.88258 0.632141 4.4087 0 6 0C7.5913 0 9.11742 0.632141 10.2426 1.75736C11.3679 2.88258 12 4.4087 12 6ZM6 2.625C6 2.52554 5.96049 2.43016 5.89016 2.35984C5.81984 2.28951 5.72446 2.25 5.625 2.25C5.52554 2.25 5.43016 2.28951 5.35984 2.35984C5.28951 2.43016 5.25 2.52554 5.25 2.625V6.75C5.25002 6.8161 5.26751 6.88102 5.3007 6.93818C5.33389 6.99534 5.3816 7.04272 5.439 7.0755L8.064 8.5755C8.15014 8.62206 8.25108 8.63307 8.34524 8.60619C8.4394 8.57931 8.5193 8.51667 8.56789 8.43165C8.61647 8.34663 8.62987 8.24598 8.60522 8.15122C8.58058 8.05645 8.51984 7.97508 8.436 7.9245L6 6.5325V2.625Z" fill="currentColor"/>
</symbol>

<symbol  viewBox="0 0 16 12" fill="none" xmlns="http://www.w3.org/2000/svg" id="phone">
<path d="M3.9375 2C3.9375 1.46957 4.14493 0.960859 4.51414 0.585786C4.88335 0.210714 5.38411 0 5.90625 0H9.84375C10.3659 0 10.8667 0.210714 11.2359 0.585786C11.6051 0.960859 11.8125 1.46957 11.8125 2V10C11.8125 10.5304 11.6051 11.0391 11.2359 11.4142C10.8667 11.7893 10.3659 12 9.84375 12H5.90625C5.38411 12 4.88335 11.7893 4.51414 11.4142C4.14493 11.0391 3.9375 10.5304 3.9375 10V2ZM8.85937 9C8.85937 8.73478 8.75566 8.48043 8.57106 8.29289C8.38645 8.10536 8.13607 8 7.875 8C7.61393 8 7.36355 8.10536 7.17894 8.29289C6.99434 8.48043 6.89063 8.73478 6.89063 9C6.89063 9.26522 6.99434 9.51957 7.17894 9.70711C7.36355 9.89464 7.61393 10 7.875 10C8.13607 10 8.38645 9.89464 8.57106 9.70711C8.75566 9.51957 8.85937 9.26522 8.85937 9ZM1.77877 2.734C1.83986 2.61677 1.85261 2.4797 1.81421 2.35292C1.77582 2.22615 1.68942 2.12006 1.57402 2.058C1.45863 1.99594 1.32369 1.98299 1.1989 2.022C1.07411 2.061 0.969676 2.14877 0.908586 2.266C0.310072 3.4166 -0.00187801 4.69863 8.50582e-06 6C8.50582e-06 7.347 0.328789 8.618 0.908586 9.734C0.938835 9.79204 0.980042 9.84347 1.02985 9.88533C1.07967 9.9272 1.13711 9.95869 1.1989 9.978C1.26069 9.99732 1.32562 10.0041 1.38999 9.9979C1.45435 9.99172 1.51689 9.97273 1.57402 9.942C1.63116 9.91127 1.68178 9.86941 1.72299 9.81881C1.7642 9.7682 1.7952 9.70985 1.81421 9.64708C1.83323 9.58431 1.83988 9.51834 1.8338 9.45296C1.82772 9.38757 1.80902 9.32404 1.77877 9.266C1.25533 8.2596 0.982578 7.13824 0.984382 6C0.984382 4.82 1.27182 3.708 1.77877 2.734ZM14.8414 2.266C14.7803 2.14877 14.6759 2.061 14.5511 2.022C14.4263 1.98299 14.2914 1.99594 14.176 2.058C14.0606 2.12006 13.9742 2.22615 13.9358 2.35292C13.8974 2.4797 13.9101 2.61677 13.9712 2.734C14.4782 3.708 14.7656 4.819 14.7656 6C14.7656 7.18 14.4782 8.292 13.9712 9.266C13.9101 9.38323 13.8974 9.5203 13.9358 9.64708C13.9742 9.77385 14.0606 9.87994 14.176 9.942C14.2914 10.0041 14.4263 10.017 14.5511 9.978C14.6759 9.939 14.7803 9.85123 14.8414 9.734C15.4399 8.5834 15.7519 7.30137 15.75 6C15.7519 4.69863 15.4399 3.4166 14.8414 2.266ZM3.28782 4.182C3.31529 4.1202 3.33009 4.05337 3.33134 3.98557C3.33258 3.91777 3.32024 3.85043 3.29506 3.78763C3.26988 3.72483 3.23239 3.66789 3.18487 3.62027C3.13735 3.57265 3.08079 3.53535 3.01863 3.51063C2.95647 3.48592 2.89001 3.47431 2.8233 3.4765C2.75658 3.4787 2.691 3.49466 2.63055 3.52341C2.5701 3.55216 2.51603 3.5931 2.47165 3.64375C2.42726 3.69439 2.39347 3.75368 2.37235 3.818C2.10506 4.5134 1.96817 5.25346 1.96876 6C1.96876 6.769 2.11149 7.505 2.37235 8.182C2.39347 8.24632 2.42726 8.30561 2.47165 8.35625C2.51603 8.4069 2.5701 8.44784 2.63055 8.47659C2.691 8.50534 2.75658 8.5213 2.8233 8.5235C2.89001 8.52569 2.95647 8.51408 3.01863 8.48937C3.08079 8.46465 3.13735 8.42735 3.18487 8.37973C3.23239 8.33212 3.26988 8.27517 3.29506 8.21237C3.32024 8.14958 3.33258 8.08223 3.33134 8.01443C3.33009 7.94663 3.31529 7.8798 3.28782 7.818C3.06562 7.23851 2.95211 6.6219 2.95313 6C2.95313 5.358 3.07125 4.745 3.28782 4.182ZM13.3777 3.818C13.3257 3.70117 13.2316 3.60906 13.1147 3.5607C12.9979 3.51234 12.8672 3.51143 12.7497 3.55815C12.6322 3.60488 12.5368 3.69566 12.4833 3.81176C12.4298 3.92786 12.4222 4.0604 12.4622 4.182C12.6787 4.745 12.7969 5.358 12.7969 6C12.7969 6.642 12.6787 7.255 12.4622 7.818C12.4222 7.9396 12.4298 8.07214 12.4833 8.18824C12.5368 8.30434 12.6322 8.39512 12.7497 8.44185C12.8672 8.48857 12.9979 8.48766 13.1147 8.4393C13.2316 8.39094 13.3257 8.29883 13.3777 8.182C13.6395 7.505 13.7812 6.769 13.7812 6C13.7812 5.231 13.6385 4.495 13.3777 3.818Z" fill="currentColor"/>
</symbol>

<symbol  viewBox="0 0 15 12" fill="none" xmlns="http://www.w3.org/2000/svg" id="email">
<path d="M0.046875 1.555C0.141392 1.11324 0.373739 0.718813 0.705864 0.436308C1.03799 0.153804 1.4502 -3.04944e-05 1.875 4.53414e-09H13.125C13.5498 -3.04944e-05 13.962 0.153804 14.2941 0.436308C14.6263 0.718813 14.8586 1.11324 14.9531 1.555L7.5 6.414L0.046875 1.555ZM0 2.697V9.801L5.44031 6.243L0 2.697ZM6.33844 6.83L0.179063 10.857C0.331244 11.1993 0.571431 11.4884 0.87167 11.6908C1.17191 11.8931 1.51985 12.0004 1.875 12H13.125C13.4801 12.0001 13.8279 11.8926 14.128 11.6901C14.428 11.4876 14.668 11.1983 14.82 10.856L8.66063 6.829L7.5 7.586L6.33844 6.829V6.83ZM9.55969 6.244L15 9.801V2.697L9.55969 6.243V6.244Z" fill="currentColor"/>
</symbol>


<symbol xmlns="http://www.w3.org/2000/svg"  viewBox="0 0 20 20" id="inst" fill="currentColor">
  <path class="cls-1" d="M13,17H7a4,4,0,0,1-4-4V7A4,4,0,0,1,7,3h6a4,4,0,0,1,4,4v6A4,4,0,0,1,13,17ZM15,7a2,2,0,0,0-2-2H7A2,2,0,0,0,5,7v6a2,2,0,0,0,2,2h6a2,2,0,0,0,2-2V7Zm-5,6a3,3,0,1,1,3-3A3,3,0,0,1,10,13Zm1-4H9v2h2V9Z"></path>
</symbol>





<symbol xmlns="http://www.w3.org/2000/svg" id="ok" viewBox="0 0 20 20">
  <path class="cls-1" d="M10.5,10.99a3.5,3.5,0,1,1,3.518-3.5A3.508,3.508,0,0,1,10.5,10.99Zm0.008-5.034a1.519,1.519,0,1,0,1.535,1.518A1.528,1.528,0,0,0,10.505,5.956ZM7.491,11.079a6.074,6.074,0,0,1,1.119.542,4.382,4.382,0,0,0,1.887.395,5.828,5.828,0,0,0,1.964-.357,6,6,0,0,1,1.116-.565c0.221,0.008.583,0.373,0.521,1.318-0.035.538-1.018,0.761-1.363,0.968a2.284,2.284,0,0,1-.726.246s0.847,0.906,1.063,1.129a2.671,2.671,0,0,1,.948,1.278,1.342,1.342,0,0,1-1,1,4.485,4.485,0,0,1-1.4-1.12c-0.583-.557-1.115-1.069-1.115-1.069s-0.547.486-1.116,1.048a4.607,4.607,0,0,1-1.368,1.141,1.439,1.439,0,0,1-1.061-1.16A6.312,6.312,0,0,1,8.2,14.391,8.057,8.057,0,0,1,9,13.634a1.909,1.909,0,0,1-.638-0.208c-0.481-.267-1.511-0.547-1.484-1.043C6.9,11.87,7.035,11.079,7.491,11.079Z" fill="currentColor"></path>
</symbol>
<symbol  xmlns="http://www.w3.org/2000/svg"  viewBox="0 0 16 16">
  <path id="arrowZoom" fill="currentColor" d="M1315,1762a1,1,0,0,1-1-1v-2.61l-3.33,3.32a0.984,0.984,0,0,1-1.4,0,1.027,1.027,0,0,1,0-1.42l3.3-3.29H1310a1,1,0,0,1,0-2h4.87a0.955,0.955,0,0,1,.83.27,1.042,1.042,0,0,1,.28.61c0,0.04.02,0.08,0.02,0.12v5A1,1,0,0,1,1315,1762Zm-11.57,7H1306a1,1,0,0,1,0,2h-4.87a0.947,0.947,0,0,1-1.1-.87,0.5,0.5,0,0,1-.03-0.13v-5a1,1,0,0,1,2,0v2.61l3.33-3.32a0.984,0.984,0,0,1,1.4,0,1.027,1.027,0,0,1,0,1.42Z" transform="translate(-1300 -1755)"/>
</symbol>


<symbol
	id="arrowDown"
   viewBox="0 0 3 2"
   xmlns="http://www.w3.org/2000/svg"><path d="M 2.8207824,0.64660382 1.7598034,1.7102238 a 0.26722917,0.26722917 0 0 1 -0.375709,0 L 0.3231154,0.65533382 a 0.26246667,0.26246667 0 0 1 0,-0.37227 0.26775833,0.26775833 0 0 1 0.375708,0 l 0.873125,0.86809998 0.873125,-0.87682998 a 0.26722917,0.26722917 0 0 1 0.375709,0 0.26246667,0.26246667 0 0 1 0,0.37227 z" fill="currentColor"/>
	</symbol>

<symbol  viewBox="0 0 24 24" fill="none" id="qr" xmlns="http://www.w3.org/2000/svg">
<path d="M1.09092 8.72726C0.436377 8.72726 0 8.29089 0 7.63635V3.27271C0 1.41817 1.41817 0 3.27271 0H7.63635C8.29089 0 8.72727 0.436377 8.72727 1.09092C8.72727 1.74546 8.29089 2.18184 7.63635 2.18184H3.27271C2.61817 2.18184 2.18179 2.61821 2.18179 3.27276V7.63639C2.18184 8.29089 1.74546 8.72726 1.09092 8.72726ZM22.9091 8.72726C22.2545 8.72726 21.8182 8.29089 21.8182 7.63635V3.27271C21.8182 2.61817 21.3818 2.18179 20.7272 2.18179H16.3636C15.7091 2.18179 15.2727 1.74542 15.2727 1.09087C15.2727 0.436332 15.7091 0 16.3636 0H20.7272C22.5818 0 24 1.41817 24 3.27271V7.63635C24 8.29089 23.5636 8.72726 22.9091 8.72726ZM7.63635 24H3.27271C1.41817 24 0 22.5818 0 20.7273V16.3637C0 15.7091 0.436377 15.2727 1.09092 15.2727C1.74546 15.2727 2.18184 15.7091 2.18184 16.3637V20.7273C2.18184 21.3818 2.61822 21.8182 3.27276 21.8182H7.63639C8.29093 21.8182 8.72731 22.2546 8.72731 22.9091C8.72726 23.5636 8.29089 24 7.63635 24ZM20.7273 24H16.3637C15.7091 24 15.2727 23.5636 15.2727 22.9091C15.2727 22.2545 15.7091 21.8182 16.3637 21.8182H20.7273C21.3818 21.8182 21.8182 21.3818 21.8182 20.7272V16.3636C21.8182 15.7091 22.2546 15.2727 22.9091 15.2727C23.5637 15.2727 24 15.7091 24 16.3636V20.7272C24 22.5818 22.5818 24 20.7273 24Z" fill="currentColor"/>
<path d="M9.81783 10.9091H5.4542C4.79966 10.9091 4.36328 10.4727 4.36328 9.8182V5.45457C4.36328 4.80002 4.79966 4.36365 5.4542 4.36365H9.81783C10.4724 4.36365 10.9088 4.80002 10.9088 5.45457V9.8182C10.9088 10.4727 10.4724 10.9091 9.81783 10.9091ZM6.54512 8.72728H8.72696V6.54544H6.54512V8.72728ZM9.81783 19.6364H5.4542C4.79966 19.6364 4.36328 19.2 4.36328 18.5455V14.1818C4.36328 13.5273 4.79966 13.0909 5.4542 13.0909H9.81783C10.4724 13.0909 10.9088 13.5273 10.9088 14.1818V18.5455C10.9088 19.2 10.4724 19.6364 9.81783 19.6364ZM6.54512 17.4545H8.72696V15.2727H6.54512V17.4545ZM18.5451 10.9091H14.1815C13.5269 10.9091 13.0905 10.4727 13.0905 9.8182V5.45457C13.0905 4.80002 13.5269 4.36365 14.1815 4.36365H18.5451C19.1996 4.36365 19.636 4.80002 19.636 5.45457V9.8182C19.636 10.4727 19.1996 10.9091 18.5451 10.9091ZM15.2724 8.72728H17.4542V6.54544H15.2724V8.72728ZM14.1815 16.3636C13.5269 16.3636 13.0905 15.9272 13.0905 15.2727V14.1818C13.0905 13.5272 13.5269 13.0909 14.1815 13.0909C14.836 13.0909 15.2724 13.5272 15.2724 14.1818V15.2727C15.2724 15.9273 14.836 16.3636 14.1815 16.3636ZM18.5451 15.2727H17.4542C16.7996 15.2727 16.3633 14.8364 16.3633 14.1818C16.3633 13.5273 16.7996 13.0909 17.4542 13.0909H18.5451C19.1996 13.0909 19.636 13.5273 19.636 14.1818C19.636 14.8364 19.1996 15.2727 18.5451 15.2727ZM18.5451 19.6364H15.2724C14.6178 19.6364 14.1815 19.2 14.1815 18.5455C14.1815 17.8909 14.6178 17.4545 15.2724 17.4545H18.5451C19.1996 17.4545 19.636 17.8909 19.636 18.5455C19.636 19.2 19.1996 19.6364 18.5451 19.6364Z" fill="currentColor"/>
</symbol>


<symbol id="share" fill="currentColor" xmlns="http://www.w3.org/2000/svg" viewBox="0 0 16 16">
 <path d="M1641,229a2.967,2.967,0,0,1-1.86-.661l-3.22,2.009a2.693,2.693,0,0,1,0,1.3l3.22,2.009A2.966,2.966,0,0,1,1641,233a3,3,0,1,1-3,3,2.788,2.788,0,0,1,.08-0.65l-3.22-2.01a3,3,0,1,1,0-4.679l3.22-2.01A2.8,2.8,0,0,1,1638,226,3,3,0,1,1,1641,229Zm0,8a1,1,0,1,0-1-1A1,1,0,0,0,1641,237Zm-8-7a1,1,0,1,0,1,1A1,1,0,0,0,1633,230Zm8-5a1,1,0,1,0,1,1A1,1,0,0,0,1641,225Z" transform="translate(-1630 -223)"></path>
</symbol>

<symbol fill="currentColor"  viewBox="-2.5 0 32 32" version="1.1" xmlns="http://www.w3.org/2000/svg" id="vk">
<path d="M16.563 15.75c-0.5-0.188-0.5-0.906-0.531-1.406-0.125-1.781 0.5-4.5-0.25-5.656-0.531-0.688-3.094-0.625-4.656-0.531-0.438 0.063-0.969 0.156-1.344 0.344s-0.75 0.5-0.75 0.781c0 0.406 0.938 0.344 1.281 0.875 0.375 0.563 0.375 1.781 0.375 2.781 0 1.156-0.188 2.688-0.656 2.75-0.719 0.031-1.125-0.688-1.5-1.219-0.75-1.031-1.5-2.313-2.063-3.563-0.281-0.656-0.438-1.375-0.844-1.656-0.625-0.438-1.75-0.469-2.844-0.438-1 0.031-2.438-0.094-2.719 0.5-0.219 0.656 0.25 1.281 0.5 1.813 1.281 2.781 2.656 5.219 4.344 7.531 1.563 2.156 3.031 3.875 5.906 4.781 0.813 0.25 4.375 0.969 5.094 0 0.25-0.375 0.188-1.219 0.313-1.844s0.281-1.25 0.875-1.281c0.5-0.031 0.781 0.406 1.094 0.719 0.344 0.344 0.625 0.625 0.875 0.938 0.594 0.594 1.219 1.406 1.969 1.719 1.031 0.438 2.625 0.313 4.125 0.25 1.219-0.031 2.094-0.281 2.188-1 0.063-0.563-0.563-1.375-0.938-1.844-0.938-1.156-1.375-1.5-2.438-2.563-0.469-0.469-1.063-0.969-1.063-1.531-0.031-0.344 0.25-0.656 0.5-1 1.094-1.625 2.188-2.781 3.188-4.469 0.281-0.5 0.938-1.656 0.688-2.219-0.281-0.625-1.844-0.438-2.813-0.438-1.25 0-2.875-0.094-3.188 0.156-0.594 0.406-0.844 1.063-1.125 1.688-0.625 1.438-1.469 2.906-2.344 4-0.313 0.375-0.906 1.156-1.25 1.031z"></path>
</symbol>

<symbol  viewBox="0 -2 20 20" version="1.1" xmlns="http://www.w3.org/2000/svg" xmlns:xlink="http://www.w3.org/1999/xlink" id="twitter">
<g  transform="translate(-60.000000, -7521.000000)" fill="currentColor">
	<path transform="translate(56.000000, 160.000000)" d="M10.29,7377 C17.837,7377 21.965,7370.84365 21.965,7365.50546 C21.965,7365.33021 21.965,7365.15595 21.953,7364.98267 C22.756,7364.41163 23.449,7363.70276 24,7362.8915 C23.252,7363.21837 22.457,7363.433 21.644,7363.52751 C22.5,7363.02244 23.141,7362.2289 23.448,7361.2926 C22.642,7361.76321 21.761,7362.095 20.842,7362.27321 C19.288,7360.64674 16.689,7360.56798 15.036,7362.09796 C13.971,7363.08447 13.518,7364.55538 13.849,7365.95835 C10.55,7365.79492 7.476,7364.261 5.392,7361.73762 C4.303,7363.58363 4.86,7365.94457 6.663,7367.12996 C6.01,7367.11125 5.371,7366.93797 4.8,7366.62489 L4.8,7366.67608 C4.801,7368.5989 6.178,7370.2549 8.092,7370.63591 C7.488,7370.79836 6.854,7370.82199 6.24,7370.70483 C6.777,7372.35099 8.318,7373.47829 10.073,7373.51078 C8.62,7374.63513 6.825,7375.24554 4.977,7375.24358 C4.651,7375.24259 4.325,7375.22388 4,7375.18549 C5.877,7376.37088 8.06,7377 10.29,7376.99705" id="twitter-[#154]">
</path>
</g>
</symbol>

<symbol fill="currentColor" viewBox="-2 -1.5 24 24" xmlns="http://www.w3.org/2000/svg" id="viber"><path d='M17.29 8.607c.024-2.892-2.439-5.543-5.49-5.91-.061-.007-.127-.018-.197-.03a2.854 2.854 0 0 0-.465-.05c-.626 0-.793.44-.837.701-.043.255-.002.47.121.637.207.281.572.331.865.371.085.012.166.023.234.038 2.742.613 3.665 1.576 4.116 4.295.011.066.016.148.022.235.02.325.06 1.001.787 1.001.06 0 .126-.005.194-.015.676-.103.655-.721.645-1.018-.003-.084-.006-.163.002-.216a.289.289 0 0 0 .002-.04z'/><path d='M10.96 1.636c.082.006.158.012.222.021 4.503.693 6.574 2.826 7.147 7.364.01.077.012.171.013.27.006.355.018 1.093.81 1.108h.024c.249 0 .446-.075.588-.223.246-.257.23-.64.215-.948-.003-.076-.006-.147-.006-.21.058-4.64-3.96-8.849-8.596-9.005-.02 0-.038 0-.056.003a.388.388 0 0 1-.055.003c-.047 0-.103-.004-.164-.008C11.03.006 10.947 0 10.862 0c-.738 0-.878.525-.896.838-.041.723.658.774.994.798zM18.112 14.886a14.326 14.326 0 0 1-.287-.224c-.492-.396-1.015-.76-1.52-1.113l-.315-.22c-.648-.455-1.23-.676-1.78-.676-.742 0-1.388.41-1.922 1.217-.236.358-.523.532-.876.532a1.74 1.74 0 0 1-.706-.177c-2.09-.948-3.584-2.402-4.438-4.321-.413-.928-.279-1.534.447-2.028.413-.28 1.18-.801 1.127-1.8-.062-1.133-2.563-4.544-3.617-4.931a2.053 2.053 0 0 0-1.396-.004C1.618 1.548.75 2.264.315 3.209c-.42.914-.4 1.987.054 3.103 1.315 3.227 3.163 6.041 5.494 8.363 2.281 2.273 5.085 4.134 8.333 5.533.293.126.6.195.825.245.076.017.142.032.19.045a.32.32 0 0 0 .081.011h.026c1.528 0 3.363-1.396 3.926-2.987.494-1.394-.408-2.083-1.132-2.636zM11.636 5.323c-.261.006-.806.02-.997.574-.09.26-.079.484.032.669.162.27.473.354.755.4 1.025.164 1.552.73 1.657 1.783.049.49.38.833.803.833a.79.79 0 0 0 .096-.006c.51-.06.757-.435.735-1.114.008-.708-.362-1.512-.993-2.152-.632-.642-1.394-1.004-2.088-.987z'/></symbol>


<symbol fill="currentColor" id="odnoklassniki" version="1.1" xmlns="http://www.w3.org/2000/svg" xmlns:xlink="http://www.w3.org/1999/xlink"   viewBox="0 0 512 512">
<path  d="M256.018,259.156c71.423,0,129.31-57.899,129.31-129.334C385.327,58.387,327.44,0.5,256.018,0.5
		c-71.448,0-129.359,57.887-129.359,129.322C126.658,201.257,184.57,259.156,256.018,259.156z M256.018,66.196
		c35.131,0,63.612,28.482,63.612,63.625c0,35.144-28.481,63.625-63.612,63.625c-35.168,0-63.638-28.481-63.638-63.625
		C192.38,94.678,220.849,66.196,256.018,66.196z M405.075,274.938c-7.285-14.671-27.508-26.872-54.394-5.701
		c-36.341,28.619-94.664,28.619-94.664,28.619s-58.361,0-94.702-28.619c-26.873-21.171-47.083-8.97-54.381,5.701
		c-12.75,25.563,1.634,37.926,34.096,58.761c27.721,17.803,65.821,24.452,90.411,26.935l-20.535,20.535
		c-28.918,28.905-56.826,56.838-76.201,76.213c-11.59,11.577-11.59,30.354,0,41.931l3.48,3.506c11.59,11.577,30.354,11.577,41.943,0
		l76.201-76.214c28.943,28.919,56.851,56.839,76.225,76.214c11.59,11.577,30.354,11.577,41.943,0l3.48-3.506
		c11.59-11.59,11.59-30.354,0-41.943l-76.201-76.2l-20.584-20.598c24.614-2.545,62.29-9.22,89.786-26.872
		C403.441,312.863,417.801,300.5,405.075,274.938z">
</path>

</symbol>

<symbol fill="currentColor" id="mailru"  version="1.1" xmlns="http://www.w3.org/2000/svg" xmlns:xlink="http://www.w3.org/1999/xlink"  viewBox="0 0 512 512">
<path  d="M448.101,101.298C364.357,13.841,225.482-3.505,120.149,59.183
		C-17.548,141.116-20.307,299.247,31.604,389.13c76.845,133.102,241.338,135.638,300.438,110.471
		c39.112-16.63,21.719-67.538-15.944-52.347c-74.367,30.039-199.509-0.063-243.232-100.993
		c-40.126-92.536,1.178-191.062,65.712-235.571c60.714-41.85,174.872-54.118,259.952,20.344
		c91.283,79.87,52.532,217.721,20.138,251.012c-8.305,8.475-23.268,1.655-21.931-11.557l-0.096-201.744
		c0-5.683-3.895-23.618-22.849-23.618l-3.067,0.016c-12.13,0-20.858,9.785-20.858,22.758v-0.101
		c-26.95-27.03-63.675-44.292-102.729-44.292c-77.163,0-145.057,68.684-145.057,146.612c0,77.163,67.894,145.04,145.057,145.04
		c39.054,0,74.897-15.595,101.832-42.322l0.403,14.406c-0.366,44.068,57.084,73.491,95.767,43.251
		C530.527,363.946,535.632,192.735,448.101,101.298z M246.623,367.618c-51.418,0-90.631-36.932-90.631-95.379
		c0-52.214,32.41-98.177,90.854-98.177h1.921c50.638,0,92.578,33.976,95.48,90.472l0.127,11.414
		C341.646,325.625,303.951,367.618,246.623,367.618z">

</path>
</symbol>

<symbol  viewBox="0 0 24 24" id="burger" fill="none" xmlns="http://www.w3.org/2000/svg">
<path d="M4 18L20 18" stroke="currentColor" stroke-width="2" />
<path d="M4 12L20 12" stroke="currentColor" stroke-width="2" />
<path d="M4 6L20 6" stroke="currentColor" stroke-width="2" />
</symbol>


<symbol xmlns="http://www.w3.org/2000/svg"  viewBox="0 0 25 10" id="arrowRightTwo" fill="currentColor">
  <path d="M1123.72,5120.7l-4.02,4.02a1.014,1.014,0,0,1-1.41,0,1,1,0,0,1,0-1.41l2.32-2.31H1113a1,1,0,0,1,0-2h7.61l-2.32-2.32a0.984,0.984,0,0,1,0-1.4,1,1,0,0,1,1.41,0l4.02,4.02A0.984,0.984,0,0,1,1123.72,5120.7Z" transform="translate(-1105 -5115)"/>
</symbol>


<symbol  viewBox="0 0 24 24" fill="none" xmlns="http://www.w3.org/2000/svg" id="close">
<path id="Vector" d="M21 21L12 12M12 12L3 3M12 12L21.0001 3M12 12L3 21.0001" stroke="currentColor" stroke-width="2" stroke-linecap="round" stroke-linejoin="round"/>
</symbol>


<symbol xmlns="http://www.w3.org/2000/svg"  viewBox="0 0 8 18" id="fileAdd">
  <path fill="currentColor" d="M765,665V655a3,3,0,0,0-6,0v11a2,2,0,1,0,4,0v-9a1,1,0,1,0-2,0v8h-1v-8a2,2,0,1,1,4,0v9a3,3,0,1,1-6,0v-9h0v-2a4,4,0,1,1,8,0v10h-1Z" transform="translate(-758 -651)"/>
</symbol>

</svg>