<svg width="40" height="41" viewBox="0 0 40 41" fill="none" xmlns="http://www.w3.org/2000/svg">
<path d="M19.9973 1.07227C23.8878 1.0714 27.6912 2.22421 30.9265 4.38493C34.1618 6.54565 36.6837 9.61722 38.1734 13.2112C39.663 16.8052 40.0534 20.7603 39.2953 24.5762C38.5371 28.3921 36.6645 31.8975 33.9141 34.6491C31.1637 37.4007 27.6591 39.2749 23.8436 40.0348C20.028 40.7946 16.0728 40.4059 12.4781 38.9179C8.88346 37.4299 5.81076 34.9094 3.6486 31.675C1.48644 28.4407 0.331923 24.6378 0.331055 20.7473C0.331054 15.5307 2.40275 10.5276 6.09064 6.83806C9.77853 3.14852 14.7807 1.07459 19.9973 1.07227Z" fill="white"/>
<path d="M35.5934 32.4754L35.6812 32.5237C37.5574 30.0333 38.814 27.1324 39.3475 24.0604C39.8809 20.9884 39.6758 17.8336 38.7491 14.8565C37.8223 11.8795 36.2005 9.16568 34.0177 6.93926C31.8349 4.71284 29.1537 3.03773 26.1955 2.0523C23.2374 1.06687 20.0873 0.799398 17.0053 1.27199C13.9234 1.74458 10.9981 2.94366 8.47119 4.77019C5.94425 6.59671 3.88815 8.99826 2.47274 11.7764C1.05734 14.5546 0.323248 17.6297 0.331117 20.7476C0.327853 24.1939 1.23678 27.5797 2.96558 30.561C2.92606 30.4907 2.88216 30.4293 2.84703 30.359C4.12382 29.9282 5.45319 29.6726 6.79873 29.5994C8.05888 29.5994 9.19609 29.8453 10.2455 29.9068C10.7655 29.9192 11.2859 29.9031 11.8042 29.8585C12.2874 29.8247 12.7674 29.7543 13.24 29.6477C13.5191 29.5823 13.7869 29.4758 14.0347 29.3316C13.9952 29.2657 13.9425 29.2043 13.8986 29.134C13.8352 29.0367 13.7808 28.9339 13.7361 28.8266C13.6966 28.7397 13.6628 28.6502 13.6352 28.5588C13.5467 28.3326 13.4848 28.0968 13.4507 27.8563C13.3984 27.4188 13.3984 26.9766 13.4507 26.5391C13.3685 25.9193 13.2498 25.305 13.0951 24.6993C13.1434 23.2065 14.1181 22.9869 14.0523 21.4019L14.1006 21.5072C14.0898 21.424 14.0722 21.3417 14.0479 21.2613C13.4332 21.3272 13.8108 20.2427 13.6966 20.1724C13.3102 19.9178 13.3849 18.3151 13.7669 18.0561C13.8534 17.9964 13.956 17.9645 14.0611 17.9645C14.1661 17.9645 14.2687 17.9964 14.3552 18.0561C14.3925 18.0035 14.4221 17.9458 14.4431 17.8848C14.445 17.8688 14.445 17.8526 14.4431 17.8365C14.4431 17.8717 14.4079 17.8892 14.3728 17.8761C14.2878 17.8504 14.2066 17.8135 14.1313 17.7663C14.0793 17.733 14.0232 17.7064 13.9645 17.6873C13.8847 17.6511 13.7953 17.6418 13.7098 17.6609C13.7098 17.6609 13.7098 17.6609 13.6835 17.6609C13.5729 17.7012 13.4746 17.7692 13.3981 17.8585C13.2576 18.0166 13.1258 18.179 12.959 18.1746C12.959 18.1746 12.959 18.1746 12.9239 18.1746C12.8887 18.1746 12.9239 18.0956 12.9239 18.0517C12.9307 17.6667 13.0581 17.2935 13.2883 16.9847C13.2345 16.9953 13.1817 17.01 13.1302 17.0286C12.9678 17.0725 12.8141 17.1165 12.6604 17.1472H12.5462C12.5561 16.9588 12.6236 16.778 12.7394 16.6291C12.8899 16.4158 13.067 16.2225 13.2663 16.0539L13.3717 15.9705C13.5262 15.8384 13.6957 15.7249 13.8767 15.6324C14.0674 15.5463 14.2703 15.49 14.4782 15.4655C14.5836 15.4655 14.6363 15.4655 14.6582 15.505C14.6702 15.5763 14.6702 15.649 14.6582 15.7202C14.6582 15.7202 14.6582 15.7597 14.6582 15.7773C14.6582 16.0275 14.7021 16.3656 15.0007 16.4008C15.0007 16.4271 15.0007 16.4491 14.97 16.4798C15.0402 16.3964 15.1148 16.3173 15.1939 16.2339C15.2824 16.1463 15.3763 16.0642 15.4749 15.988C15.8657 15.7553 15.7164 15.83 15.3212 16.0802C15.0885 16.2163 14.926 16.0802 14.9568 15.9485C14.9831 15.3294 14.1445 13.5994 13.5781 12.9452L8.30915 14.4117L7.97545 14.5786C7.98092 14.8185 7.96179 15.0583 7.91837 15.2943C7.87886 15.549 7.71201 16.1417 7.50564 15.7334C7.42404 15.5107 7.3781 15.2766 7.36953 15.0396C7.36953 14.9913 7.36953 14.9562 7.36953 14.9299C7.20707 15.0001 7.049 15.0704 6.88654 15.1274C12.4892 10.9079 17.5869 8.73008 22.3069 6.55226C25.3805 6.99133 30.2103 7.73338 33.0424 8.26905C30.5731 8.77155 28.1443 9.45544 25.7756 10.3151L26.0435 13.5248C27.0696 14.0528 27.8629 14.9432 28.2696 16.0232C28.4077 16.307 28.5251 16.6005 28.6209 16.9013V16.9408C28.636 16.9972 28.6477 17.0543 28.656 17.1121C28.656 17.1428 28.656 17.1472 28.656 17.1604C28.6823 17.3799 28.6823 17.5994 28.577 17.5994C28.4716 17.5994 28.3794 17.4589 28.2828 17.3579L28.2169 17.3316C28.1972 17.9675 28.0999 18.5986 27.9271 19.2109C28.0128 19.1737 28.1069 19.1603 28.1996 19.1719C28.2922 19.1834 28.3801 19.2197 28.454 19.2767C28.7087 19.527 28.6209 20.2339 28.2916 20.9891C28.0281 21.6521 27.6856 21.5819 27.7295 21.92C27.9052 23.3865 27.1192 22.8332 27.0007 23.1713C26.6483 24.269 26.514 25.425 26.6055 26.5742C26.7241 28.089 26.386 28.7213 26.0523 28.954C26.0289 29.0143 26.0191 29.079 26.0237 29.1435C26.0282 29.2081 26.047 29.2708 26.0786 29.3272C26.1649 29.5247 26.2397 29.727 26.3025 29.9331C26.364 30.1263 26.443 30.3107 26.5177 30.5039C26.5923 30.6971 26.6889 30.943 26.768 31.145C26.78 31.1867 26.7977 31.2266 26.8206 31.2635L26.8689 31.3074L27.1763 31.4172C29.3717 31.8563 28.8711 32.5017 30.9524 32.2427C31.3757 32.251 31.7981 32.2862 32.2169 32.348C32.2169 32.348 35.5715 32.1505 35.6593 32.3963C35.6417 32.4227 35.6241 32.449 35.5934 32.4754ZM7.44856 16.4886C7.46984 16.3605 7.52058 16.2391 7.59677 16.1339C7.67297 16.0288 7.77254 15.9428 7.88764 15.8826C7.91377 15.9558 7.9257 16.0333 7.92276 16.111C7.92977 16.2367 7.92977 16.3628 7.92276 16.4886V16.5281C7.92527 16.5514 7.92527 16.575 7.92276 16.5983L7.90081 16.6554C7.83646 16.802 7.73129 16.927 7.59785 17.0155C7.54596 16.9474 7.51816 16.864 7.51881 16.7784C7.50957 16.6967 7.50957 16.6142 7.51881 16.5325L7.44856 16.4886ZM7.44856 17.5775C7.47048 17.4496 7.52147 17.3285 7.5976 17.2234C7.67372 17.1184 7.77295 17.0322 7.88764 16.9716C7.91289 17.045 7.92478 17.1223 7.92276 17.1999C7.92985 17.3256 7.92985 17.4517 7.92276 17.5775C7.92276 17.5775 7.92276 17.6038 7.92276 17.6126C7.92575 17.6374 7.92575 17.6625 7.92276 17.6873L7.90081 17.7443C7.83639 17.8897 7.73114 18.0133 7.59785 18.1C7.54502 18.0341 7.51705 17.9517 7.51881 17.8673C7.50946 17.7841 7.50946 17.7002 7.51881 17.617L7.44856 17.5775ZM7.44856 18.6708C7.47048 18.5429 7.52147 18.4218 7.5976 18.3167C7.67372 18.2117 7.77295 18.1255 7.88764 18.0649C7.91337 18.1381 7.92528 18.2156 7.92276 18.2932C7.92981 18.419 7.92981 18.545 7.92276 18.6708C7.92276 18.6708 7.92276 18.6927 7.92276 18.7059C7.92526 18.7307 7.92526 18.7557 7.92276 18.7806C7.92276 18.7806 7.92276 18.8201 7.90081 18.8332C7.83646 18.9798 7.73129 19.1048 7.59785 19.1933C7.54596 19.1252 7.51816 19.0418 7.51881 18.9562C7.50956 18.876 7.50956 18.7949 7.51881 18.7147L7.44856 18.6708ZM7.44856 19.7641C7.46984 19.636 7.52058 19.5146 7.59677 19.4094C7.67297 19.3043 7.77254 19.2183 7.88764 19.1582C7.91337 19.2314 7.92528 19.3089 7.92276 19.3865C7.92977 19.5123 7.92977 19.6383 7.92276 19.7641C7.92276 19.7641 7.92276 19.786 7.92276 19.7948C7.90508 19.8219 7.88447 19.8469 7.86129 19.8695L7.83934 19.9222C7.77298 20.0675 7.66824 20.192 7.53638 20.2822C7.48449 20.2141 7.45669 20.1307 7.45734 20.0451C7.44824 19.9649 7.44824 19.8839 7.45734 19.8036L7.44856 19.7641ZM7.03583 21.213C7.16487 20.8883 7.36783 20.5982 7.62858 20.3656C7.67326 20.3174 7.73433 20.2877 7.79982 20.2822C7.84373 20.2822 7.88764 20.3261 7.94033 20.4008C8.08851 20.6052 8.21229 20.8262 8.30915 21.0594C8.5728 21.8348 8.74807 22.6376 8.83165 23.4523C8.65108 23.4885 8.46669 23.5018 8.28281 23.4919C8.02542 23.5064 7.76742 23.5064 7.51003 23.4919C7.50707 23.3274 7.49534 23.1633 7.4749 23.0001C7.4749 22.8947 7.41343 22.7806 7.34757 22.7806C7.28171 22.7806 7.25097 23.0045 7.2378 23.1143C7.23514 23.2244 7.22635 23.3344 7.21146 23.4436C7.21146 23.5402 6.60553 23.4436 6.56162 23.4436L6.60992 23.0045C6.68019 22.3925 6.82317 21.7911 7.03583 21.213Z" fill="#AAA1CC"/>
<path d="M25.7271 18.4511C25.7007 18.2843 25.6788 18.113 25.6349 17.9286C25.6097 17.7773 25.5654 17.6297 25.5031 17.4895C25.4761 17.4305 25.4453 17.3733 25.4109 17.3183L25.367 17.2436C25.3346 17.196 25.2931 17.1551 25.2449 17.1235C25.1966 17.0918 25.1427 17.07 25.086 17.0592H25.0509C25.0509 17.2305 24.9543 17.3666 24.805 17.3842C24.736 17.2818 24.6772 17.173 24.6294 17.0592C24.4933 16.7651 24.3484 16.4489 24.1903 16.1811C24.0322 15.9132 23.9312 15.641 23.8302 15.4303C23.8302 15.3907 23.7819 15.3512 23.7644 15.3073C23.6751 15.1467 23.5643 14.999 23.4351 14.8682C23.2902 14.7277 23.1146 14.5697 22.9697 14.4292L22.8511 14.3413C22.7919 14.2773 22.7221 14.2238 22.6447 14.1833C22.5701 14.1482 22.5569 14.1306 22.5481 14.1306L22.4955 14.0999C19.1146 14.3853 16.8753 15.1888 15.4702 16.0186C15.3716 16.0948 15.2778 16.1769 15.1892 16.2645C15.1102 16.3479 15.0355 16.427 14.9653 16.5104C14.8819 16.686 14.7896 16.7738 14.6491 17.0944C14.5761 17.256 14.5216 17.4254 14.4867 17.5993C14.4776 17.6761 14.4584 17.7514 14.4296 17.8232C14.4316 17.8393 14.4316 17.8555 14.4296 17.8715C14.3769 17.9813 14.3637 18.0296 14.333 18.0472C14.716 18.3756 15.0167 18.7891 15.2112 19.2546C15.2733 19.3229 15.357 19.3679 15.4483 19.382C15.6988 19.2464 15.9771 19.1699 16.2617 19.1585C16.5463 19.1471 16.8298 19.201 17.0904 19.3161C17.5398 19.4578 17.9272 19.7491 18.1881 20.1416C18.794 19.2063 19.4614 19.2634 20.0015 19.6015C20.0748 19.6396 20.1439 19.6852 20.2079 19.7376C20.2684 19.7817 20.3256 19.8301 20.3791 19.8825C20.4105 19.8132 20.4355 19.7412 20.4537 19.6674C20.4761 19.6129 20.4951 19.5572 20.5108 19.5005C20.5767 19.1756 20.5679 18.8068 20.6469 18.4818C20.6469 18.4292 20.6469 18.3809 20.6469 18.3326C20.6426 18.2741 20.6426 18.2154 20.6469 18.1569C20.6561 18.108 20.6678 18.0597 20.6821 18.012C20.7439 17.7274 20.8769 17.4631 21.0685 17.2436C21.1555 17.1604 21.2547 17.0908 21.3626 17.0373C21.591 16.9056 21.8676 16.7738 21.9422 16.7168C21.9475 16.884 21.9113 17.0499 21.8368 17.1997C22.0608 17.1997 22.2276 17.1734 22.3725 17.1646C22.7393 17.1495 23.1025 17.086 23.4526 16.9758C23.4983 17.0316 23.538 17.0919 23.5712 17.1558C23.5709 17.1679 23.5733 17.1798 23.5784 17.1908C23.5834 17.2017 23.5908 17.2114 23.6002 17.219C23.6095 17.2266 23.6204 17.232 23.6321 17.2348C23.6439 17.2375 23.6561 17.2375 23.6678 17.2349H23.6941C23.7211 17.2228 23.7513 17.2201 23.78 17.2273C23.8087 17.2344 23.8341 17.251 23.8522 17.2744C23.8756 17.3108 23.8961 17.349 23.9137 17.3885C23.9867 17.4095 24.0585 17.4344 24.1288 17.4632L24.1552 17.4895L24.2342 17.3402L24.2825 17.2349C24.3762 17.3088 24.4513 17.4035 24.502 17.5115C24.5375 17.5841 24.564 17.6608 24.5811 17.7398C24.5838 17.7573 24.5838 17.775 24.5811 17.7925C24.5811 17.832 24.5811 17.8759 24.5811 17.911C24.5881 17.9294 24.5969 17.9471 24.6074 17.9637C24.6357 18.112 24.6173 18.2654 24.5547 18.4028C24.4919 18.3902 24.4303 18.3726 24.3703 18.3501H24.3045L24.2254 18.3194C24.1552 18.2974 24.0761 18.2667 24.0059 18.2491C23.959 18.2291 23.9105 18.213 23.861 18.2008C23.7688 18.1657 23.6766 18.1306 23.6019 18.1086C23.502 18.0877 23.4008 18.073 23.299 18.0647C23.0529 17.9992 22.7979 17.974 22.5438 17.9901C21.951 17.9901 21.1914 18.7497 21.6173 18.517C21.6832 18.4862 21.7402 18.4731 21.8017 18.4467C22.0522 18.3541 22.3163 18.3036 22.5833 18.2974C22.5833 18.3589 22.3593 18.4028 22.3593 18.4687C22.3593 18.5345 22.5086 18.517 22.5086 18.517L22.8731 18.4818L23.3692 18.4511L24.1639 18.7497V19.1097C24.1639 19.079 24.5284 19.3117 24.6557 19.3117C24.741 19.4076 24.8202 19.5088 24.8928 19.6147C24.726 19.5268 24.4186 19.461 24.5942 19.6147C24.7699 19.7683 24.7172 19.9001 24.5942 19.8693C24.3256 19.7914 24.0729 19.6665 23.8478 19.5005C23.7468 19.4171 23.6722 19.3117 23.5756 19.2239C23.2698 18.9748 22.8969 18.8219 22.5042 18.7848C22.4787 18.7881 22.4553 18.8006 22.4384 18.8199C22.5394 18.8814 22.7018 18.9517 22.7194 18.9648V18.9385C22.9032 18.9779 23.0776 19.0524 23.2331 19.158C23.3253 19.3117 23.3824 19.4303 23.3209 19.562C23.224 19.7047 23.0799 19.8087 22.9139 19.8556C22.7479 19.9026 22.5707 19.8895 22.4134 19.8187C22.2561 19.7479 22.1288 19.624 22.0538 19.4686C21.9789 19.3132 21.9611 19.1364 22.0037 18.9692C21.8061 19.0351 21.67 19.1317 21.67 19.1975C21.6884 19.3433 21.6884 19.4908 21.67 19.6366C21.67 19.5708 21.3758 19.6015 21.3407 19.6366C21.3056 19.6717 21.3407 19.6674 21.288 19.7244C21.4856 19.7244 21.6832 19.7771 21.7271 19.9571C22.1614 19.9198 22.5975 20.0034 22.9872 20.1986L23.1892 20.0669C23.3141 20.0539 23.4358 20.0198 23.5492 19.9659L23.8171 19.6015L23.9795 19.8957C23.7819 20.0011 23.5185 20.3348 23.3517 20.3962C23.479 20.5135 23.5911 20.6462 23.6854 20.7914H24.3484C24.4713 20.7167 24.726 20.5982 24.9675 20.4401C25.0837 20.3661 25.1912 20.2792 25.288 20.1811C25.3412 20.1287 25.3911 20.073 25.4373 20.0142C25.5851 19.7734 25.6739 19.5011 25.6963 19.2195C25.703 19.1245 25.703 19.0291 25.6963 18.9341C25.718 18.774 25.7283 18.6126 25.7271 18.4511ZM18.9082 19.3995C18.8293 19.4134 18.7481 19.4026 18.6755 19.3688L18.6404 19.1361C18.3462 20.0142 17.0246 19.5971 17.2836 18.6048L17.1168 18.7716L16.8445 18.7453C16.8445 18.7453 16.8445 18.7453 16.805 18.7453C16.6513 18.7453 16.805 18.8331 16.524 18.8858H16.4625H16.3396H16.2474H16.0454C15.9927 18.8858 15.9664 18.8375 15.9664 18.8068L16.0147 18.7585H16.0454C16.4827 18.5298 16.9519 18.3685 17.4373 18.2799C17.8313 18.2682 18.2168 18.3957 18.5262 18.6399L18.9653 19.079C19.0355 19.1361 19.0004 19.3688 18.9082 19.3995ZM19.3209 17.8013C19.3003 17.9896 19.2591 18.1752 19.198 18.3545C19.198 18.3809 19.198 18.4028 19.198 18.4204C19.1541 18.5828 19.1497 18.697 18.9872 18.4775C18.8248 18.2579 18.7589 18.0998 18.5481 18.0033C18.3969 17.9616 18.2428 17.9308 18.0871 17.911C18.0365 17.8965 17.9878 17.8759 17.9422 17.8496C17.7553 17.7543 17.5454 17.7132 17.3363 17.731C17.1343 17.731 17.0202 17.8144 17.2177 17.9813C17.2485 18.0428 16.7567 18.0779 16.7567 18.0779L16.9192 18.3106C16.8928 18.2667 16.5196 18.3106 16.4801 18.3106C16.4205 18.3293 16.3631 18.3543 16.3089 18.3852C16.2791 18.3918 16.2509 18.4037 16.2254 18.4204C16.1908 18.4289 16.1547 18.4289 16.1201 18.4204C16.1201 18.4204 16.0761 18.4204 16.063 18.3896C15.9708 18.2623 16.2298 17.9945 16.3089 17.9198C16.3879 17.8452 16.3396 17.8803 16.3089 17.8715C16.2781 17.8627 16.1332 17.8715 16.1113 17.8715C16.0167 17.9145 15.9304 17.974 15.8566 18.0472C15.8309 18.0714 15.8074 18.0978 15.7864 18.1262C15.7225 18.195 15.6638 18.2684 15.6107 18.3457C15.4263 18.1569 15.6854 17.6915 15.7907 17.5773C15.8961 17.4632 16.5108 17.3051 16.5108 17.4325C16.5145 17.3769 16.5145 17.3212 16.5108 17.2656C16.5108 17.2041 16.5108 17.1953 16.6952 17.1997C16.7477 17.2066 16.8008 17.2066 16.8533 17.1997C16.9411 17.1997 16.9938 17.147 16.9806 16.989H17.0597H17.1607C17.2818 17.0173 17.4052 17.0349 17.5295 17.0417C17.5295 16.9978 17.5295 16.9231 17.5295 16.8748C17.6656 16.8748 17.7534 16.967 17.8764 16.9626C17.8579 16.8522 17.8462 16.7408 17.8412 16.6289C18.0247 16.6934 18.1945 16.7917 18.3418 16.9187C18.403 16.8264 18.4352 16.7178 18.434 16.607C18.7282 16.7255 18.5394 17.0812 18.7765 17.2393C18.7903 17.1285 18.7977 17.0171 18.7984 16.9056H18.8467C18.9214 17.0075 18.9806 17.12 19.0224 17.2393C19.0458 17.3686 19.0825 17.4951 19.1321 17.6169C19.075 17.529 19.198 17.2656 19.2814 17.2041C19.3078 17.2656 19.3517 17.5422 19.3209 17.8013Z" fill="#FFE6C2"/>
<path d="M24.9583 21.0153L24.8617 21.0724C24.6773 21.1646 24.5104 21.2524 24.3611 21.3095C24.2034 21.3904 24.0348 21.4481 23.8606 21.4807C23.7903 21.9769 23.2634 22.4028 22.5038 22.4774C22.0965 22.5283 21.6831 22.4707 21.3051 22.3106C21.3051 22.3633 21.3051 22.4116 21.3051 22.4643C21.5379 22.574 21.7442 22.7321 21.5642 22.9999C21.3842 23.2678 20.1109 23.7595 20.1109 23.7595C19.7113 24.0537 18.82 24.3567 18.3897 24.1986C17.8935 23.9966 17.4676 22.7101 17.5993 22.4116L17.8672 22.5477L17.8891 23.0175C18.2931 24.3347 19.259 23.8386 19.6147 23.3424C19.6454 23.2063 19.7464 22.8463 19.2195 22.8463C19.7207 22.4093 20.0774 21.8306 20.2426 21.1865C20.2426 21.0812 20.2821 20.9846 20.2997 20.9055C20.2896 20.7593 20.2509 20.6166 20.1856 20.4854C20.1204 20.3541 20.0299 20.2371 19.9194 20.1408C19.8089 20.0446 19.6806 19.9711 19.5416 19.9245C19.4027 19.8779 19.2559 19.8592 19.1098 19.8693C18.9587 19.9161 18.8231 20.0028 18.7172 20.1203C18.6113 20.2377 18.5391 20.3816 18.5082 20.5367C18.3765 20.9758 18.2272 22.3325 18.1789 22.3852C18.1419 22.0118 18.1302 21.6362 18.1438 21.2612C17.7837 21.63 17.0549 21.7003 16.2953 21.4588C15.4171 21.1602 14.9078 20.4357 15.1054 19.8737C15.0746 19.9571 14.8156 19.4083 14.8068 19.3863C14.7192 19.1049 14.5841 18.8406 14.4072 18.6048C13.854 18.0032 13.5993 19.1756 13.6652 19.5707C13.7179 19.8825 13.9901 20.1328 14.056 20.4489C14.111 20.7287 14.111 21.0165 14.056 21.2963C14.0803 21.3767 14.0979 21.4589 14.1087 21.5422C14.8288 23.057 13.3096 23.4961 13.7442 25.5641C13.9374 26.6443 13.8364 27.5444 14.1306 28.1986C14.2843 28.5455 14.3238 28.9846 14.8419 29.1119C15.0464 29.105 15.2497 29.1459 15.4357 29.2312C15.6216 29.3166 15.7852 29.4441 15.9133 29.6037C16.0406 29.7046 16.3524 29.7398 15.8782 29.8012C15.6872 29.825 15.494 29.825 15.303 29.8012C15.3194 29.8349 15.3385 29.8672 15.36 29.8978C15.6235 30.0252 15.9045 30.1349 16.1592 30.2886C16.1328 30.0559 16.1592 29.9198 16.1592 29.8934C16.5039 30.2829 16.8863 30.6373 17.3008 30.9516C17.7314 31.1788 18.2077 31.3058 18.6943 31.3233C19.1808 31.3408 19.665 31.2482 20.1109 31.0526L20.225 30.9999H20.2514C20.5067 30.8376 20.7361 30.6378 20.9319 30.4072C21.1228 30.2166 21.3031 30.0158 21.472 29.8056C21.5379 29.7266 21.5993 29.6651 21.652 29.6037L21.7179 29.529C21.8101 29.4324 21.8935 29.327 21.9857 29.2348C22.1858 29.0566 22.4036 28.8992 22.6356 28.765C22.743 28.6882 22.8429 28.6015 22.9341 28.506L23.0263 28.3962C23.101 28.304 23.1624 28.2337 23.2151 28.1591C23.3768 27.9486 23.5083 27.7165 23.6059 27.4697C23.7923 27.0235 23.9078 26.5509 23.9484 26.0691C24.0582 25.0987 24.0318 24.0888 24.3875 23.0921C24.5488 22.9166 24.6834 22.7184 24.787 22.5038C24.9802 22.0329 25.0394 21.5178 24.9583 21.0153ZM17.8145 21.5466C17.0549 22.1042 17.5862 22.3369 17.551 22.3369C15.7333 22.798 15.6674 24.5323 15.5708 24.3567C15.5049 24.0888 15.4742 22.1042 17.8145 21.5466ZM14.034 19.6761C13.9813 19.5005 14.0077 19.1668 14.2009 19.2634C14.2396 19.2846 14.2751 19.3112 14.3063 19.3424C14.4907 19.518 14.4336 19.944 14.3458 20.2908C14.3589 20.2337 14.0999 19.9 14.034 19.6761ZM15.7245 28.5762H15.6718C15.4546 28.5059 15.2594 28.3803 15.1054 28.2118C14.9171 28.0293 14.756 27.8208 14.6268 27.5927C14.3465 27.1109 14.1953 26.5649 14.1877 26.0076C14.1659 25.7306 14.2116 25.4524 14.321 25.197C14.4303 24.9416 14.6001 24.7165 14.8156 24.5411C14.8418 24.537 14.8684 24.537 14.8946 24.5411L14.7936 24.6684C14.692 24.8214 14.6219 24.993 14.5873 25.1734C14.5359 25.3876 14.5108 25.6073 14.5126 25.8276C14.5096 26.5818 14.7197 27.3214 15.1185 27.9615L15.1581 28.023C15.1923 28.066 15.229 28.107 15.2678 28.1459C15.3072 28.1955 15.3513 28.2411 15.3996 28.282C15.4546 28.3336 15.515 28.3792 15.5796 28.4181L15.685 28.4928C15.7057 28.5163 15.7194 28.5452 15.7245 28.5762ZM15.6937 26.1481C15.7684 26.2667 15.6015 26.5872 15.1054 25.9066C15.3381 24.7518 16.1328 24.2206 16.2645 24.2864C15.4039 25.3139 15.5971 25.5773 15.6937 26.1481ZM16.3304 26.0164C16.2865 25.731 16.2031 25.4983 16.1811 25.2261C16.1768 25.1529 16.1768 25.0796 16.1811 25.0065C16.1823 24.9241 16.1896 24.8419 16.2031 24.7606C16.3497 24.6871 16.5096 24.6438 16.6732 24.6332C16.8369 24.6227 17.001 24.6451 17.1559 24.6992C17.0525 24.7777 16.957 24.8659 16.8705 24.9626C16.9306 24.9784 16.9893 24.9989 17.0461 25.0241C17.1339 25.0592 17.2173 25.1075 17.3095 25.1558C17.6509 25.3896 18.0159 25.5868 18.3985 25.7442C18.5284 25.7812 18.6629 25.8004 18.798 25.8012C18.9309 25.8047 19.0636 25.7914 19.1932 25.7617C19.3262 25.7333 19.4557 25.6906 19.5796 25.6344C19.8453 25.5211 20.1047 25.3936 20.3567 25.2524L20.6553 25.0855L21.0944 24.8397L21.4061 24.6553C21.526 24.5901 21.6508 24.5343 21.7794 24.4884C21.8701 24.4669 21.9628 24.4552 22.056 24.4533C22.1274 24.4445 22.1997 24.4445 22.2711 24.4533C22.2975 24.4533 22.3106 24.5016 22.3194 24.5499C22.329 24.6454 22.3155 24.7417 22.2799 24.8309C22.2799 24.8616 22.2799 24.8967 22.2228 24.9275C21.7956 25.166 21.3559 25.3815 20.9056 25.5729C20.6729 25.6783 20.4314 25.7749 20.1987 25.8627H20.1372C20.0628 25.8975 19.9847 25.924 19.9045 25.9417C19.5921 26.0535 19.2653 26.12 18.9341 26.1393C18.391 26.122 17.8586 25.984 17.3754 25.7354L17.011 25.5729H16.9802C16.8296 25.507 16.683 25.4322 16.5412 25.349C16.4219 25.5529 16.3499 25.781 16.3304 26.0164ZM19.663 26.8945C18.4731 27.1273 18.3106 27.6849 18.2799 28.6728C18.0343 28.1203 17.9863 27.5002 18.1438 26.9165C18.6751 26.7321 19.1361 26.8945 19.663 26.8945ZM19.5005 30.4072C19.4207 30.5028 19.3213 30.5804 19.2091 30.6347C19.0969 30.6891 18.9745 30.7189 18.8499 30.7222C18.7253 30.7255 18.6014 30.7023 18.4864 30.654C18.3715 30.6058 18.2682 30.5336 18.1833 30.4423C18.1637 30.4146 18.1387 30.391 18.1099 30.3731C18.081 30.3552 18.0489 30.3432 18.0153 30.3379C17.9818 30.3326 17.9475 30.334 17.9145 30.3421C17.8815 30.3503 17.8505 30.3649 17.8233 30.3852C17.7512 30.4336 17.6699 30.4663 17.5845 30.4815C17.499 30.4966 17.4114 30.4937 17.3271 30.473C16.6992 30.0779 16.5016 29.1558 16.449 28.1284C16.5133 28.3884 16.6169 28.6372 16.7563 28.866C16.8582 29.0989 16.9832 29.3211 17.1295 29.529C17.2261 29.6739 17.5686 29.9681 17.7574 29.911C17.9462 29.8539 17.8101 29.3226 17.8628 29.1207V29.1602C18.157 30.1174 19.2151 30.1174 20.2338 29.7529C20.4226 29.7046 19.8298 29.9988 19.5005 30.4291V30.4072ZM22.056 27.0394C21.7359 27.6789 21.2732 28.2362 20.7036 28.6684C20.6745 28.7038 20.6405 28.7348 20.6026 28.7606C20.2075 28.9846 20.5719 28.5894 20.7387 28.4708C21.4281 27.6849 22.5346 26.2008 20.3699 26.3237C19.5181 26.4994 19.5971 26.4116 19.5971 26.4116L20.9144 26.0252C21.2217 25.9242 21.5291 25.8188 21.8277 25.6915C21.9901 25.6256 22.1526 25.5554 22.2667 25.63C22.3809 25.7046 22.3282 25.7003 22.3238 25.81C22.3158 26.2405 22.2248 26.6654 22.056 27.0614V27.0394ZM23.3249 24.6992C23.0966 25.4324 23.0307 25.2656 22.7058 26.3194C22.4687 26.9824 23.0571 24.5016 22.8244 24.0757C22.5916 23.6498 22.1087 23.9571 21.5071 23.4302C21.5545 23.4009 21.6045 23.3759 21.6564 23.3556C21.8891 23.2634 22.2009 23.4039 22.7761 23.4829C23.1624 23.6366 23.3644 23.8386 23.3249 23.922C23.562 24.2206 23.3644 24.585 23.3249 24.6992Z" fill="#FFE6C2"/>
<path d="M26.7672 38.925C26.7672 38.925 27.7156 33.3399 27.7814 32.3783C28.2205 32.5188 28.6903 32.7076 29.4631 33.0413C30.0866 33.6341 30.3983 34.139 32.0975 33.5814L33.2479 33.0413C33.6901 32.8737 34.1496 32.7559 34.6179 32.6901C35.0569 32.6593 35.6716 32.5803 35.6365 32.4134C35.5487 32.1676 32.1941 32.3651 32.1941 32.3651C31.7753 32.3033 31.3529 32.2681 30.9296 32.2598C28.8484 32.5188 29.3445 31.8953 27.1535 31.4343L26.8462 31.3245L26.7979 31.2806C26.7749 31.2437 26.7572 31.2038 26.7452 31.1621C26.6662 30.9425 26.5871 30.723 26.4949 30.521C26.4027 30.319 26.3412 30.1434 26.2798 29.9502C26.2217 29.7534 26.1529 29.5599 26.0734 29.3706C26.0418 29.3142 26.0231 29.2515 26.0185 29.187C26.0139 29.1225 26.0237 29.0577 26.0471 28.9974C26.3808 28.7647 26.7189 28.1193 26.6003 26.6176C26.5088 25.4684 26.6431 24.3124 26.9955 23.2148C27.114 22.8767 27.9 23.4299 27.7243 21.9634C27.6804 21.6253 28.0229 21.6956 28.2864 21.0326C28.6157 20.2774 28.7254 19.5704 28.4488 19.3202C28.3749 19.2631 28.287 19.2269 28.1944 19.2153C28.1017 19.2037 28.0076 19.2172 27.9219 19.2543C28.0947 18.642 28.192 18.0109 28.2117 17.375L28.2776 17.4014C28.3742 17.5024 28.5103 17.6429 28.5718 17.6429C28.6332 17.6429 28.6771 17.419 28.6508 17.2038C28.6508 17.2038 28.6508 17.2038 28.6508 17.1555C28.6425 17.0978 28.6308 17.0406 28.6157 16.9843V16.9448C28.5199 16.644 28.4025 16.3505 28.2644 16.0666C27.8577 14.9866 27.0644 14.0963 26.0383 13.5682L25.7704 10.3586C28.1391 9.49889 30.5679 8.815 33.0372 8.3125C30.1876 7.77682 25.3621 7.04356 22.3017 6.5957C17.5817 8.79109 12.484 10.9513 6.87695 15.1489C7.03941 15.0918 7.19748 15.0216 7.35994 14.9513C7.35994 14.9777 7.35994 15.0128 7.35994 15.0611C7.36749 15.3151 7.41796 15.566 7.50922 15.8032C7.71559 16.2422 7.88244 15.6407 7.92196 15.3641C7.96538 15.1281 7.98451 14.8883 7.97904 14.6484L8.31274 14.4815L13.5817 13.015C14.1481 13.6692 14.9867 15.3992 14.9604 16.0183C14.9296 16.15 15.0921 16.2861 15.3248 16.15C16.7035 15.2719 18.9867 14.4332 22.4905 14.1391L22.5432 14.1698C22.5432 14.1698 22.5652 14.1698 22.6398 14.2225C22.7171 14.263 22.7869 14.3165 22.8462 14.3805L22.9647 14.4684C23.1096 14.6176 23.2853 14.7757 23.4302 14.9074C23.5594 15.0382 23.6701 15.1859 23.7595 15.3465C23.7595 15.3904 23.8078 15.4299 23.8253 15.4695C23.9263 15.6802 24.0097 15.9085 24.1854 16.2203C24.361 16.532 24.4796 16.7955 24.6245 17.0984C24.6722 17.2122 24.7311 17.321 24.8001 17.4233C24.9494 17.4233 25.0328 17.2697 25.046 17.0984H25.0811C25.1378 17.1092 25.1917 17.131 25.2399 17.1627C25.2882 17.1943 25.3297 17.2352 25.3621 17.2828L25.406 17.3575C25.4404 17.4125 25.4712 17.4697 25.4982 17.5287C25.5605 17.6689 25.6047 17.8165 25.6299 17.9678C25.6738 18.1522 25.6958 18.3235 25.7221 18.4903C25.7404 18.6359 25.7492 18.7826 25.7485 18.9294C25.7552 19.0244 25.7552 19.1198 25.7485 19.2148C25.726 19.4964 25.6372 19.7687 25.4894 20.0095C25.4433 20.0682 25.3934 20.124 25.3402 20.1764C25.2433 20.2744 25.1358 20.3613 25.0196 20.4354C24.7781 20.5935 24.5235 20.712 24.4005 20.7867H23.7375C23.6433 20.6415 23.5312 20.5087 23.4038 20.3915C23.5707 20.3256 23.8429 19.9963 24.0317 19.891L23.8692 19.5968L23.6014 19.9612C23.488 20.0151 23.3662 20.0492 23.2414 20.0622L23.0394 20.1939C22.6497 19.9987 22.2135 19.9151 21.7792 19.9524C21.7309 19.7724 21.5334 19.7197 21.3402 19.7197C21.3797 19.6626 21.4104 19.6143 21.3928 19.6319C21.3753 19.6495 21.7222 19.566 21.7222 19.6319C21.7405 19.4861 21.7405 19.3386 21.7222 19.1928C21.7222 19.127 21.8583 19.0304 22.0559 18.9645C22.0133 19.1317 22.0311 19.3085 22.106 19.4639C22.1809 19.6192 22.3083 19.7432 22.4656 19.814C22.6229 19.8848 22.8001 19.8979 22.9661 19.8509C23.1321 19.8039 23.2762 19.7 23.3731 19.5573C23.4389 19.4212 23.3731 19.2938 23.2721 19.1182V19.1489L23.0394 19.5134L22.9735 19.4694C22.8769 19.4036 22.7276 19.2982 22.7672 19.285V18.9338C22.7672 18.9338 22.5871 18.8503 22.4861 18.7889C22.5031 18.7695 22.5265 18.757 22.552 18.7538C22.9447 18.7909 23.3175 18.9437 23.6234 19.1928C23.72 19.2806 23.7946 19.386 23.8956 19.4694C24.1207 19.6355 24.3734 19.7603 24.642 19.8383C24.7606 19.869 24.7781 19.6934 24.642 19.5836C24.5059 19.4738 24.7737 19.5046 24.9406 19.5836C24.868 19.4778 24.7888 19.3766 24.7035 19.2806C24.5762 19.2806 24.2117 19.0479 24.2117 19.0787V18.7186L23.417 18.4201L22.9208 18.4508L22.5564 18.4859C22.5564 18.4859 22.3764 18.4859 22.4071 18.4376C22.4379 18.3893 22.6442 18.3278 22.631 18.2664C22.3641 18.2726 22.1 18.323 21.8495 18.4157C21.788 18.442 21.7309 18.4552 21.6651 18.4859C21.226 18.7186 21.9988 17.959 22.5915 17.959C22.8456 17.943 23.1007 17.9682 23.3467 18.0337C23.4485 18.042 23.5497 18.0566 23.6497 18.0776C23.7243 18.0995 23.8166 18.1347 23.9088 18.1698C23.9583 18.1819 24.0068 18.1981 24.0537 18.2181C24.1239 18.2181 24.2029 18.2664 24.2732 18.2883L24.3522 18.3191H24.4181C24.478 18.3416 24.5397 18.3592 24.6025 18.3718C24.6651 18.2344 24.6835 18.081 24.6552 17.9327C24.6447 17.916 24.6358 17.8984 24.6288 17.88C24.6288 17.8449 24.6288 17.801 24.6288 17.7614C24.6316 17.744 24.6316 17.7262 24.6288 17.7087C24.6118 17.6297 24.5853 17.5531 24.5498 17.4804C24.4991 17.3724 24.4239 17.2777 24.3303 17.2038L24.2995 17.2697C24.2995 17.2697 24.2249 17.4058 24.2205 17.419L24.1942 17.3926C24.1239 17.3638 24.052 17.3389 23.979 17.318C23.9615 17.2784 23.9409 17.2402 23.9175 17.2038C23.903 17.1898 23.8855 17.1794 23.8663 17.1732C23.8471 17.1671 23.8267 17.1655 23.8068 17.1684C23.7869 17.1714 23.7679 17.1789 23.7513 17.1904C23.7347 17.2018 23.721 17.2169 23.7112 17.2345H23.6673C23.6524 17.2357 23.6374 17.2326 23.6242 17.2256C23.611 17.2186 23.6001 17.208 23.5926 17.195C23.5594 17.1311 23.5197 17.0708 23.4741 17.015C23.1239 17.1252 22.7607 17.1887 22.3939 17.2038C22.249 17.2038 22.0822 17.2302 21.8583 17.2389C21.9327 17.0891 21.9689 16.9232 21.9636 16.756C21.889 16.813 21.6124 16.9448 21.3841 17.0765C21.2761 17.13 21.1769 17.1996 21.0899 17.2828C20.8983 17.5023 20.7654 17.7666 20.7035 18.0512C20.6892 18.0989 20.6775 18.1472 20.6684 18.1961C20.664 18.2546 20.664 18.3133 20.6684 18.3718C20.6684 18.4201 20.6684 18.4684 20.6684 18.521C20.5893 18.846 20.5981 19.2148 20.5323 19.5397C20.5166 19.5964 20.4975 19.6521 20.4752 19.7066C20.4569 19.7804 20.4319 19.8524 20.4005 19.9217C20.347 19.8693 20.2898 19.8209 20.2293 19.7768C20.1654 19.7244 20.0962 19.6788 20.0229 19.6407C19.4829 19.3026 18.8155 19.2455 18.2095 20.1808C17.9486 19.7883 17.5613 19.497 17.1118 19.3553C16.8513 19.2402 16.5678 19.1863 16.2831 19.1977C15.9985 19.2091 15.7202 19.2856 15.4697 19.4211C15.3784 19.4071 15.2947 19.3621 15.2326 19.2938C14.9911 18.8547 14.4379 17.6385 13.7573 18.0995C13.3753 18.3586 13.3182 19.9612 13.687 20.2159C13.8012 20.2861 13.4236 21.3707 14.0383 21.3048C14.0976 21.0225 14.0976 20.7309 14.0383 20.4486C13.9724 20.1412 13.7002 19.891 13.6475 19.5704C13.5817 19.1753 13.8363 18.0029 14.3896 18.6045C14.5664 18.8403 14.7015 19.1046 14.7891 19.386C14.7891 19.408 15.057 19.9568 15.0877 19.8734C14.8901 20.4354 15.417 21.1599 16.2776 21.4585C17.0372 21.7219 17.7661 21.6297 18.1261 21.2609C18.1125 21.6359 18.1243 22.0115 18.1612 22.3849C18.2095 22.3322 18.3588 20.9667 18.4905 20.5364C18.5229 20.3792 18.5977 20.2339 18.7069 20.1162C18.816 19.9986 18.9553 19.9131 19.1096 19.869C19.4035 19.8484 19.6935 19.9449 19.9164 20.1374C20.1393 20.3299 20.2771 20.6028 20.2995 20.8964C20.2995 20.9755 20.2644 21.0721 20.2425 21.1775C20.0846 21.8241 19.7339 22.4075 19.237 22.8503C19.7639 22.8503 19.6761 23.2104 19.6321 23.3465C19.2765 23.8427 18.3149 24.3432 17.9066 23.0216L17.8846 22.5518L17.6168 22.4157C17.4851 22.7142 17.911 24.0007 18.4071 24.2027C18.8462 24.3696 19.7244 24.0666 20.1283 23.7636C20.1283 23.7636 21.4455 23.2367 21.5816 23.004C21.7178 22.7713 21.5553 22.5649 21.3226 22.4683C21.3226 22.4157 21.3226 22.3674 21.3226 22.3147C21.7005 22.4748 22.114 22.5324 22.5213 22.4815C23.2809 22.4069 23.8078 21.981 23.878 21.4848C24.0523 21.4522 24.2209 21.3945 24.3786 21.3136C24.5279 21.2565 24.6947 21.1687 24.8791 21.0765L24.9757 21.0194C25.0505 21.522 24.9852 22.0356 24.7869 22.5035C24.6848 22.7243 24.5501 22.9285 24.3874 23.1094C24.0273 24.1061 24.0537 25.116 23.9483 26.0863C23.9077 26.5682 23.7922 27.0408 23.6058 27.487C23.5108 27.7269 23.3838 27.9529 23.2282 28.1588C23.1755 28.2334 23.114 28.3037 23.0394 28.3959L22.9472 28.5057C22.856 28.6012 22.756 28.6879 22.6486 28.7647C22.4166 28.8989 22.1989 29.0563 21.9988 29.2345C21.9066 29.3267 21.8231 29.4321 21.7309 29.5287L21.6651 29.6033C21.6124 29.6648 21.5509 29.7263 21.4851 29.8053C21.3118 30.0159 21.1272 30.2167 20.9318 30.4069C20.7264 30.6318 20.488 30.8242 20.2249 30.9777H20.1986L20.0844 31.0304C19.6386 31.226 19.1544 31.3185 18.6678 31.301C18.1813 31.2836 17.7049 31.1565 17.2743 30.9294C16.8599 30.6151 16.4775 30.2606 16.1327 29.8712C16.1678 29.8975 16.102 30.0732 16.1634 30.3805C16.1986 30.5531 16.2608 30.7191 16.3478 30.8723C16.5174 31.1716 16.7728 31.4133 17.0811 31.566C17.4112 31.726 17.7779 31.7957 18.1437 31.768C18.637 31.671 19.1354 31.6021 19.6365 31.5616C20.184 31.5748 20.729 31.4854 21.2436 31.2982C21.427 31.2306 21.6059 31.1514 21.7792 31.0611C22.1986 30.8417 22.5773 30.5521 22.8989 30.2049C22.8989 30.1742 22.9516 30.1434 22.9647 30.1127C23.0613 29.9722 23.1228 29.9414 23.1711 29.9722C23.2421 30.1054 23.2624 30.2598 23.2282 30.4069C23.2375 30.6179 23.1705 30.8252 23.0394 30.9908C22.9354 31.0596 22.8268 31.1212 22.7145 31.1752L22.4949 31.2806L22.4379 31.3026C22.2622 31.3772 22.069 31.4519 21.8758 31.5177C21.5686 31.6559 21.2457 31.7562 20.9143 31.8163C20.6859 31.8602 21.0723 32.0754 21.2699 32.0885C21.406 32.0885 21.5597 32.0578 21.709 32.0314C21.8583 32.0051 21.9417 32.0007 22.0559 31.9788C22.8123 31.884 23.5423 31.6392 24.2029 31.2587C24.2497 31.2296 24.2981 31.2032 24.3478 31.1796C24.5498 31.0874 24.9011 30.9821 24.945 31.3948C24.9889 31.8075 25.1865 31.6538 25.327 31.7373C25.4675 31.8207 25.4411 31.9832 25.2436 32.2159C25.1031 32.3608 24.9582 32.4969 24.8045 32.6549C24.6508 32.813 24.4488 32.9579 24.2644 33.094C23.6262 33.6258 22.8492 33.964 22.0251 34.0688C21.9302 34.0775 21.8346 34.0775 21.7397 34.0688C21.7168 34.0557 21.6947 34.041 21.6739 34.0249C21.5925 33.906 21.5371 33.7714 21.5114 33.6297C21.4719 33.5375 21.4324 33.3838 21.3841 33.2477C21.3753 33.1719 21.3448 33.1002 21.2962 33.0413C21.2962 33.0413 21.1031 32.8964 21.0065 33.1511C20.9807 33.2328 20.9616 33.3165 20.9494 33.4014C20.7829 34.4746 20.5169 35.53 20.1546 36.5539C20.0976 36.7296 20.6157 36.3388 20.7254 36.2071C20.9143 35.97 21.046 35.8909 21.2919 35.5572C21.4499 35.3421 21.5773 35.1752 21.7309 34.9557C21.8036 34.8614 21.871 34.7632 21.9329 34.6615C21.9697 34.6472 22.008 34.6369 22.0471 34.6308C22.1612 34.5957 22.271 34.5693 22.3764 34.543C23.878 34.3366 24.9055 33.555 25.8319 32.5671C25.968 32.4222 26.0998 32.2729 26.2315 32.128C26.2666 32.0929 26.2973 32.049 26.3325 32.0095C26.3105 32.049 26.3017 32.0929 26.2798 32.128C25.862 33.5947 25.3366 35.0285 24.7079 36.4178C24.1107 37.7658 23.4653 39.1357 22.9516 40.1939C23.4214 40.1324 23.9175 39.9436 24.3742 39.8514C24.6157 39.2499 24.9011 38.3278 25.1821 37.656C25.8107 35.8578 26.3312 34.0236 26.7408 32.1632C26.9311 32.1857 27.1202 32.218 27.3072 32.2598C26.7656 34.7741 26.0316 37.2431 25.1118 39.6451C25.6868 39.462 26.2499 39.2435 26.7979 38.9908L26.7672 38.925ZM17.9856 20.8525C17.8188 21.2477 17.1075 21.4146 16.4357 21.1862C15.7639 20.9579 15.3248 20.3915 15.4741 19.9612C15.6234 19.5309 16.3522 19.3992 17.0548 19.6319C17.7573 19.8646 18.1437 20.4222 17.9812 20.8525H17.9856ZM22.4071 22.1698C21.6475 22.2664 20.8879 21.9063 20.6903 21.4102C20.4927 20.914 20.9889 20.4179 21.7485 20.352C22.5081 20.2861 23.3028 20.6198 23.4697 21.1423C23.6365 21.6648 23.1975 22.1039 22.4027 22.1742L22.4071 22.1698ZM19.7156 12.5101C17.3198 12.0932 14.8755 12.0326 12.462 12.3301C14.473 11.5397 17.3797 11.8515 19.5575 11.7856C21.7854 10.1301 24.3628 9.0066 27.0921 8.5013C24.4181 9.55947 21.7353 10.8284 19.7156 12.5101Z" fill="#000100"/>
<path d="M12.2074 30.372C12.5063 30.3502 12.8013 30.2912 13.0855 30.1963H13.147L13.327 30.1217C13.1444 30.4714 12.9802 30.8305 12.8352 31.1974C12.6772 31.6058 12.5323 32.0273 12.3962 32.4752C12.3259 32.7166 12.2469 32.9801 12.1722 33.2391C12.1283 33.4016 12.0844 33.5465 12.0405 33.7177C11.8517 34.3807 12.0098 35.0657 12.0625 34.8989C12.3259 34.0646 12.6728 33.0986 13.0548 32.1941C13.0594 32.1742 13.0668 32.155 13.0767 32.1371C13.4279 31.2138 13.9148 30.3481 14.5213 29.5685L14.5652 29.5948C14.5742 29.6251 14.586 29.6545 14.6003 29.6826C14.6911 29.8883 14.8226 30.0735 14.9867 30.2271C15.0722 30.3285 15.1646 30.4239 15.2633 30.5125C15.3863 30.5959 15.5487 30.6091 15.6673 30.6969C15.7688 30.7909 15.8954 30.8534 16.0317 30.8769C16.017 30.6454 15.9112 30.4292 15.7375 30.2754C15.5493 30.16 15.3972 29.9942 15.2985 29.7968C15.4895 29.8206 15.6827 29.8206 15.8737 29.7968C16.3127 29.7353 16.0361 29.7002 15.9088 29.5992C15.782 29.4358 15.6186 29.3046 15.4317 29.2161C15.2448 29.1276 15.0398 29.0844 14.8331 29.0899C14.3149 28.9625 14.2754 28.5235 14.1217 28.1766C13.8276 27.5355 13.9285 26.6354 13.7354 25.5421C13.2963 23.4214 14.8989 23.0174 14.0515 21.4148C14.1174 22.9999 13.1426 23.2194 13.0943 24.7123C13.267 25.3067 13.4048 25.9107 13.507 26.5213C13.4547 26.9588 13.4547 27.401 13.507 27.8385C13.5411 28.079 13.603 28.3148 13.6914 28.541C13.7191 28.6324 13.7529 28.7219 13.7924 28.8089C13.8371 28.9161 13.8914 29.0189 13.9549 29.1162C13.9988 29.1865 14.0515 29.2479 14.091 29.3138C13.8432 29.458 13.5754 29.5645 13.2963 29.6299C12.8237 29.7365 12.3437 29.8069 11.8605 29.8407C11.3422 29.8853 10.8218 29.9014 10.3018 29.889C9.25238 29.8275 8.10639 29.5816 6.85502 29.5816C5.50948 29.6548 4.18011 29.9104 2.90332 30.3412C3.03504 30.5783 3.17994 30.7803 3.3424 31.0262C4.41375 30.5213 7.6234 30.1217 9.34019 30.1832C8.90112 30.53 8.02296 31.9087 7.07894 33.4762C6.96918 33.665 6.56083 34.5652 6.44228 34.7452C6.64426 34.9603 6.85502 35.1843 7.07016 35.3643C7.75952 33.9417 9.3841 30.6179 9.60803 30.1876H9.98125L10.4203 30.2359C9.86269 30.6749 8.72988 32.9669 7.49168 35.7507C7.76391 35.9878 8.03174 36.2293 8.31714 36.4532C8.54985 34.6047 10.3764 30.9647 10.653 30.2622C11.1674 30.3404 11.6872 30.3771 12.2074 30.372Z" fill="#000100"/>
<path d="M20.7871 21.0854C21.0857 22.3719 23.0615 21.9636 22.9825 21.8099C22.2756 21.8099 21.6784 22.0075 20.7871 21.0854Z" fill="#000100"/>
<path d="M13.0376 33.4105C12.8444 33.6739 12.8268 34.0208 12.9893 34.091C13.116 34.1297 13.2518 34.1266 13.3766 34.0824C13.5015 34.0381 13.6089 33.955 13.683 33.8451C13.885 33.5817 13.8806 33.226 13.7489 33.1602C13.6192 33.12 13.4799 33.1226 13.3518 33.1677C13.2237 33.2128 13.1135 33.2979 13.0376 33.4105Z" fill="#000100"/>
<path d="M15.6936 26.1481C15.597 25.5905 15.4038 25.3139 16.2644 24.2864C16.1327 24.2206 15.3379 24.7519 15.1052 25.9066C15.6014 26.6004 15.7638 26.2667 15.6936 26.1481Z" fill="#000100"/>
<path d="M14.6264 27.6059C14.7566 27.8294 14.9177 28.0334 15.105 28.2118C15.2566 28.3698 15.4452 28.4875 15.6538 28.5543H15.7065C15.7084 28.5397 15.7084 28.525 15.7065 28.5104L15.6011 28.4358C15.5365 28.3968 15.4762 28.3512 15.4211 28.2996C15.3728 28.2587 15.3287 28.2131 15.2894 28.1635C15.2505 28.1246 15.2139 28.0836 15.1796 28.0406L15.1401 27.9791C14.7412 27.3391 14.5312 26.5994 14.5342 25.8452C14.5323 25.6249 14.5574 25.4052 14.6088 25.191C14.641 25.0162 14.7066 24.8492 14.802 24.6992L14.8854 24.5675C14.8592 24.5634 14.8326 24.5634 14.8064 24.5675C14.5982 24.7438 14.435 24.9672 14.3304 25.2192C14.2258 25.4712 14.1828 25.7445 14.2049 26.0164C14.2063 26.5737 14.3515 27.1211 14.6264 27.6059Z" fill="#000100"/>
<path d="M14.3058 19.3423C14.2746 19.3111 14.2391 19.2845 14.2004 19.2633C14.0072 19.1667 13.9808 19.5004 14.0335 19.676C14.0862 19.8517 14.3584 20.2337 14.3453 20.2907C14.4463 19.9439 14.4902 19.518 14.3058 19.3423Z" fill="#000100"/>
<path d="M15.6013 19.9614C15.733 21.3138 17.7484 21.1469 17.7177 21.0152C16.9888 20.9186 16.3609 21.0152 15.6013 19.9614Z" fill="#000100"/>
<path d="M22.8243 24.0887C23.057 24.5278 22.4687 26.9954 22.7058 26.3324C23.0307 25.2786 23.0965 25.4543 23.3249 24.7122C23.3644 24.5849 23.562 24.2205 23.3249 23.9263C23.3644 23.8516 23.1624 23.6497 22.776 23.4872C22.2008 23.4082 21.8979 23.2677 21.6564 23.3599C21.6044 23.3802 21.5545 23.4051 21.5071 23.4345C22.1086 23.9702 22.6092 23.6848 22.8243 24.0887Z" fill="#000100"/>
<path d="M17.885 29.1732V29.1337C17.8323 29.3357 18.0387 29.8186 17.7797 29.924C17.5206 30.0294 17.2484 29.6869 17.1518 29.542C17.0106 29.3363 16.89 29.1172 16.7917 28.8878C16.6524 28.659 16.5487 28.4102 16.4844 28.1501C16.5195 29.1732 16.7171 30.0996 17.3625 30.4948C17.4468 30.5155 17.5344 30.5184 17.6199 30.5033C17.7053 30.4881 17.7866 30.4554 17.8587 30.407C17.8859 30.3867 17.9169 30.3721 17.9499 30.3639C17.9829 30.3558 18.0172 30.3544 18.0507 30.3597C18.0843 30.365 18.1164 30.377 18.1453 30.3949C18.1741 30.4128 18.1991 30.4364 18.2187 30.4641C18.3036 30.5554 18.4069 30.6275 18.5219 30.6758C18.6368 30.7241 18.7607 30.7473 18.8853 30.744C19.0099 30.7407 19.1324 30.7109 19.2445 30.6565C19.3567 30.6022 19.4561 30.5246 19.536 30.429C19.8653 29.9899 20.458 29.7045 20.2912 29.766C19.2374 30.1304 18.1792 30.1304 17.885 29.1732Z" fill="#000100"/>
<path d="M19.6629 26.8944C19.136 26.8944 18.675 26.7276 18.1437 26.9252C17.9862 27.5089 18.0343 28.129 18.2798 28.6815C18.3106 27.6892 18.473 27.1315 19.6629 26.8944Z" fill="#000100"/>
<path d="M17.5514 22.3367C17.5865 22.3367 17.0552 22.104 17.8148 21.5464C15.4746 22.104 15.5053 24.0886 15.5712 24.3565C15.6678 24.5497 15.7336 22.7978 17.5514 22.3367Z" fill="#000100"/>
<path d="M13.1299 17.0548C13.1814 17.0361 13.2342 17.0214 13.2879 17.0109C13.0578 17.3196 12.9303 17.6928 12.9235 18.0779C12.9235 18.1218 12.9235 18.1569 12.9235 18.2008C12.9235 18.2447 12.9235 18.2008 12.9586 18.2008C13.1431 18.2008 13.2748 18.0427 13.3977 17.8847C13.4743 17.7954 13.5726 17.7273 13.6831 17.6871C13.6831 17.6871 13.6831 17.6871 13.7095 17.6871C13.795 17.668 13.8843 17.6773 13.9641 17.7134C14.0229 17.7326 14.0789 17.7591 14.131 17.7925C14.2062 17.8396 14.2874 17.8766 14.3725 17.9022C14.4559 17.933 14.4691 17.8056 14.4998 17.6388C14.5348 17.4649 14.5893 17.2955 14.6623 17.1338C14.8203 16.7738 14.9213 16.6948 15.0091 16.4708C14.7106 16.4357 14.6798 16.0976 14.6666 15.8473C14.6666 15.8473 14.6666 15.8078 14.6666 15.7903C14.6786 15.719 14.6786 15.6463 14.6666 15.5751C14.6447 15.5312 14.592 15.518 14.4866 15.5356C14.2787 15.5601 14.0759 15.6163 13.8851 15.7025C13.7041 15.795 13.5347 15.9085 13.3802 16.0405L13.2748 16.124C13.0754 16.2925 12.8984 16.4858 12.7479 16.6992C12.632 16.848 12.5646 17.0289 12.5547 17.2173H12.6688C12.805 17.1426 12.9586 17.0987 13.1299 17.0548Z" fill="#000100"/>
<path d="M21.8408 25.7133C21.5423 25.8407 21.2349 25.9461 20.9276 26.047L19.6103 26.4334C19.6103 26.4334 19.5313 26.5212 20.3831 26.3456C22.5478 26.2227 21.4413 27.7068 20.7519 28.4927C20.5851 28.6113 20.2207 29.0064 20.6158 28.7825C20.6537 28.7567 20.6877 28.7257 20.7168 28.6903C21.2864 28.2581 21.7491 27.7007 22.0692 27.0613C22.2353 26.6721 22.3262 26.2549 22.337 25.8319C22.337 25.7221 22.337 25.6914 22.2799 25.6519C22.2228 25.6124 22.0033 25.6475 21.8408 25.7133Z" fill="#000100"/>
<path d="M18.5393 18.6225C18.2299 18.3783 17.8444 18.2508 17.4504 18.2625C16.965 18.3511 16.4958 18.5124 16.0585 18.741H16.0278L15.9795 18.7893C15.9795 18.7893 16.0058 18.8508 16.0585 18.8684H16.2605H16.3527H16.4756H16.5371C16.8093 18.8157 16.6645 18.7323 16.8181 18.7279C16.8181 18.7279 16.8445 18.7279 16.8576 18.7279L17.1299 18.7542L17.2967 18.5874C17.0377 19.5797 18.3593 20.0056 18.6535 19.1187L18.6886 19.3514C18.7612 19.3852 18.8424 19.3959 18.9213 19.3821C19.0135 19.3514 19.0486 19.1187 18.9872 19.0528L18.5393 18.6225ZM18.2451 19.1362C18.2451 19.1362 17.9466 19.0396 17.9817 19.0704V18.6708C18.1592 18.7157 18.3262 18.7947 18.4734 18.9035L18.2451 19.1362Z" fill="#000100"/>
<path d="M15.5886 18.3896C15.6417 18.3123 15.7004 18.2389 15.7643 18.1701C15.7853 18.1418 15.8088 18.1153 15.8345 18.0911C15.9083 18.0179 15.9946 17.9585 16.0892 17.9154C16.0892 17.9154 16.2473 17.8715 16.2868 17.9154C16.3263 17.9594 16.2868 17.9374 16.2868 17.9637C16.2868 17.9901 15.9487 18.3062 16.0409 18.4336C16.0409 18.4555 16.0804 18.4555 16.098 18.4643C16.1326 18.4728 16.1687 18.4728 16.2033 18.4643C16.2288 18.4476 16.2571 18.4357 16.2868 18.4292C16.341 18.3983 16.3984 18.3732 16.458 18.3545C16.5107 18.3545 16.8971 18.2931 16.8971 18.3545L16.7346 18.1218C16.7346 18.1218 17.2264 18.0867 17.1957 18.0252C16.9981 17.8584 17.1122 17.7837 17.3142 17.7749C17.5233 17.7571 17.7332 17.7982 17.9201 17.8935C17.9658 17.9198 18.0144 17.9405 18.065 17.955C18.2207 17.9747 18.3748 18.0055 18.5261 18.0472C18.75 18.1438 18.8246 18.3194 18.9651 18.5214C19.1056 18.7233 19.132 18.6267 19.1759 18.4643C19.1759 18.4643 19.1759 18.4248 19.1759 18.3984C19.237 18.2191 19.2782 18.0335 19.2988 17.8452C19.3296 17.5861 19.2988 17.3095 19.2154 17.2744C19.132 17.3359 19.0091 17.5993 19.0661 17.6871C19.0166 17.5654 18.9798 17.4388 18.9564 17.3095C18.9146 17.1902 18.8554 17.0778 18.7807 16.9758H18.7324C18.7317 17.0874 18.7243 17.1988 18.7105 17.3095C18.4734 17.1514 18.6622 16.7958 18.368 16.6772C18.3692 16.7881 18.3371 16.8967 18.2758 16.989C18.1285 16.8619 17.9588 16.7636 17.7752 16.6992C17.7802 16.811 17.7919 16.9225 17.8104 17.0329C17.6874 17.0329 17.5996 16.9495 17.4635 16.9451C17.4635 16.9934 17.4635 17.068 17.4635 17.1119C17.3393 17.1052 17.2158 17.0875 17.0947 17.0592H16.9937H16.9147C16.9147 17.2173 16.8751 17.2612 16.7873 17.27C16.7349 17.2769 16.6817 17.2769 16.6293 17.27C16.4668 17.27 16.4404 17.27 16.4448 17.3359C16.4485 17.3914 16.4485 17.4472 16.4448 17.5027C16.4448 17.3754 15.7994 17.5686 15.7248 17.6476C15.6501 17.7266 15.4042 18.2008 15.5886 18.3896Z" fill="#000100"/>
<path d="M19.6765 35.1007C19.7392 35.0723 19.7956 35.0318 19.8426 34.9815C19.8895 34.9312 19.9261 34.8721 19.9502 34.8077C19.9742 34.7432 19.9853 34.6746 19.9828 34.6059C19.9803 34.5371 19.9643 34.4695 19.9356 34.407C19.9129 34.2693 19.8394 34.1451 19.7297 34.059C19.62 33.9728 19.4819 33.9309 19.3428 33.9416C19.2222 33.9974 19.1271 34.0967 19.0766 34.2197C19.0261 34.3426 19.024 34.4801 19.0706 34.6046C19.0957 34.746 19.1706 34.8738 19.2817 34.9648C19.3929 35.0558 19.5329 35.104 19.6765 35.1007Z" fill="#000100"/>
<path d="M6.54297 23.4524C6.58688 23.4524 7.17524 23.527 7.1928 23.4524C7.20769 23.3432 7.21649 23.2332 7.21915 23.1231C7.21915 23.0133 7.21915 22.7894 7.32892 22.7894C7.43869 22.7894 7.44747 22.9035 7.45625 23.0089C7.47669 23.1721 7.48841 23.3362 7.49138 23.5007C7.74876 23.5152 8.00676 23.5152 8.26415 23.5007C8.44803 23.5106 8.63243 23.4973 8.813 23.4611C8.73292 22.6437 8.56058 21.838 8.29928 21.0594C8.20241 20.8262 8.07863 20.6052 7.93045 20.4008C7.87776 20.3261 7.83386 20.2822 7.78995 20.2822C7.72446 20.2877 7.66339 20.3175 7.61871 20.3657C7.35795 20.5982 7.155 20.8884 7.02595 21.2131C6.8088 21.7906 6.6614 22.392 6.58688 23.0045L6.54297 23.4524Z" fill="#000100"/>
<path d="M17.0465 25.011C16.9897 24.9859 16.9309 24.9653 16.8708 24.9496C16.9573 24.8528 17.0529 24.7646 17.1562 24.6861C17.0005 24.6321 16.8354 24.6101 16.6709 24.6214C16.5064 24.6328 16.346 24.6772 16.199 24.752C16.1856 24.8333 16.1782 24.9155 16.1771 24.9979C16.1727 25.071 16.1727 25.1443 16.1771 25.2174C16.1771 25.4896 16.2825 25.7223 16.3264 26.0077C16.3497 25.7814 16.4216 25.5627 16.5371 25.3667C16.679 25.4499 16.8256 25.5246 16.9762 25.5906H17.0069L17.3714 25.7531C17.8545 26.0017 18.387 26.1397 18.9301 26.157C19.2613 26.1377 19.5881 26.0712 19.9005 25.9594C19.988 25.9447 20.0735 25.9197 20.1551 25.8848H20.2166C20.4493 25.797 20.6908 25.7004 20.9235 25.595C21.3738 25.4036 21.8135 25.1881 22.2407 24.9496C22.2978 24.9188 22.3066 24.8837 22.2978 24.853C22.3334 24.7638 22.3469 24.6674 22.3373 24.572C22.3373 24.5237 22.3373 24.4798 22.289 24.4754C22.2176 24.4665 22.1453 24.4665 22.0739 24.4754C21.9807 24.4773 21.888 24.489 21.7973 24.5105C21.6687 24.5564 21.544 24.6121 21.4241 24.6773L21.1123 24.8618L20.6732 25.1076L20.3747 25.2745C20.1226 25.4157 19.8632 25.5432 19.5975 25.6565C19.4737 25.7127 19.3441 25.7554 19.2111 25.7838C19.0816 25.8135 18.9488 25.8268 18.8159 25.8233C18.6808 25.8225 18.5464 25.8033 18.4164 25.7663C18.026 25.5975 17.655 25.387 17.3099 25.1384C17.2177 25.0945 17.1343 25.0462 17.0465 25.011Z" fill="#000100"/>
<path d="M7.86102 16.6068C7.86353 16.5835 7.86353 16.5599 7.86102 16.5366C7.86102 16.5366 7.86102 16.5102 7.86102 16.497C7.86803 16.3713 7.86803 16.2452 7.86102 16.1194C7.86395 16.0418 7.85203 15.9643 7.82589 15.8911C7.71079 15.9512 7.61122 16.0372 7.53503 16.1424C7.45883 16.2475 7.4081 16.3689 7.38682 16.497V16.5629C7.37757 16.6446 7.37757 16.7271 7.38682 16.8088C7.38617 16.8944 7.41397 16.9778 7.46585 17.0459C7.59929 16.9574 7.70447 16.8324 7.76881 16.6858L7.86102 16.62C7.86102 16.62 7.86102 16.6156 7.86102 16.6068Z" fill="#000100"/>
<path d="M7.86113 17.7001C7.86412 17.6753 7.86412 17.6502 7.86113 17.6254C7.86113 17.6254 7.86113 17.6254 7.86113 17.5903C7.86822 17.4645 7.86822 17.3385 7.86113 17.2127C7.87622 17.1329 7.87622 17.051 7.86113 16.9712C7.74645 17.0318 7.64722 17.118 7.57109 17.2231C7.49496 17.3281 7.44398 17.4492 7.42205 17.5771V17.643C7.4127 17.7261 7.4127 17.8101 7.42205 17.8933C7.42029 17.9777 7.44826 18.0601 7.50109 18.126C7.63439 18.0393 7.73963 17.9157 7.80405 17.7703L7.82601 17.7132C7.82601 17.7132 7.86113 17.7045 7.86113 17.7001Z" fill="#000100"/>
<path d="M7.86103 18.7933C7.86352 18.7685 7.86352 18.7435 7.86103 18.7187C7.86103 18.7187 7.86103 18.6923 7.86103 18.6836C7.86807 18.5578 7.86807 18.4317 7.86103 18.306C7.86354 18.2283 7.85163 18.1509 7.8259 18.0776C7.71121 18.1383 7.61198 18.2245 7.53586 18.3295C7.45973 18.4346 7.40875 18.5557 7.38682 18.6836V18.7538C7.37757 18.834 7.37757 18.9151 7.38682 18.9953C7.38617 19.0809 7.41397 19.1643 7.46586 19.2324C7.63555 19.1556 7.77466 19.0242 7.86103 18.8592C7.86103 18.8592 7.86103 18.8329 7.88298 18.8065C7.90493 18.7802 7.86103 18.7977 7.86103 18.7933Z" fill="#000100"/>
<path d="M7.86091 19.869C7.86329 19.8427 7.86329 19.8163 7.86091 19.79C7.86091 19.79 7.86091 19.79 7.86091 19.7592C7.86792 19.6335 7.86792 19.5074 7.86091 19.3816C7.86343 19.304 7.85151 19.2266 7.82579 19.1533C7.71068 19.2134 7.61111 19.2994 7.53492 19.4046C7.45873 19.5097 7.40799 19.6312 7.38671 19.7592V19.8295C7.37761 19.9097 7.37761 19.9908 7.38671 20.071C7.38606 20.1566 7.41386 20.24 7.46574 20.3081C7.5976 20.2179 7.70235 20.0934 7.76871 19.9481L7.79066 19.8954C7.79066 19.8954 7.86091 19.891 7.86091 19.869Z" fill="#000100"/>
<path d="M17.6168 34.9032C17.8847 35.1096 18.1437 35.496 18.5389 35.8297C18.6278 35.9048 18.7217 35.9737 18.8199 36.036C18.9828 36.1446 19.1582 36.2331 19.3424 36.2995C19.1492 35.8604 18.9033 35.3467 18.8375 35.1579C18.528 34.4217 18.1746 33.7047 17.7793 33.0108C17.5861 32.6903 17.2875 32.0492 17.1163 32.0404C16.945 32.0317 16.5806 32.4049 16.4225 32.5234C16.102 32.7605 15.8605 32.9625 15.5444 33.1952C15.0746 33.5377 14.596 33.8714 14.113 34.2007C13.7661 34.4334 13.4105 34.6398 13.068 34.8944C13.0065 34.9383 12.8309 35.0218 12.9099 35.092C13.0724 35.2457 14.7672 35.0218 15.1053 34.7891C15.0043 34.8593 15.2722 35.4608 15.2722 35.4608C14.8303 36.4565 14.1484 37.3269 13.2875 37.9943L12.6377 38.7495C13.7984 39.24 15.0003 39.6264 16.2293 39.9043C16.3303 38.9076 16.5587 36.5585 16.6948 35.777C17.1909 35.7462 17.7529 35.0042 17.6168 34.9032Z" fill="#000100"/>
<path d="M24.7564 13.4895L24.7257 13.6915L24.3086 14.315C24.1373 14.315 23.9354 14.1745 23.7246 14.1745C23.8554 14.0212 24.0027 13.8828 24.1637 13.7617C24.3423 13.6426 24.5376 13.5509 24.7433 13.4895H24.7564Z" fill="white"/>
<path d="M24.5459 14.2842C24.686 14.3534 24.8136 14.4454 24.9235 14.5565C25.0067 14.43 25.1211 14.3271 25.2557 14.2578C25.3904 14.1886 25.5406 14.1553 25.6919 14.1613C25.3112 14.0549 24.9038 14.1038 24.5591 14.2974L24.5459 14.2842Z" fill="white"/>
<path d="M0.703695 20.5893C0.712375 16.7796 1.84979 13.0579 3.9723 9.89425C6.09482 6.73058 9.10723 4.26681 12.6291 2.81411C16.151 1.36141 20.0243 0.984925 23.76 1.7322C27.4957 2.47948 30.9262 4.31701 33.6183 7.01272C36.3103 9.70843 38.1431 13.1414 38.8853 16.8781C39.6275 20.6149 39.2457 24.4877 37.7882 28.0076C36.3307 31.5275 33.8628 34.5365 30.6963 36.6547C27.5297 38.7729 23.8065 39.9052 19.9967 39.9087C17.4564 39.9251 14.938 39.4364 12.5882 38.4709C10.2383 37.5055 8.1038 36.0827 6.30866 34.2851C4.51352 32.4875 3.09358 30.351 2.13136 27.9998C1.16915 25.6487 0.683859 23.1297 0.703695 20.5893ZM5.84529 6.42031C2.5768 9.69463 0.544564 14.0008 0.0947744 18.6054C-0.355016 23.21 0.805458 27.828 3.37852 31.673C5.95157 35.5179 9.77805 38.3519 14.2061 39.6922C18.6342 41.0324 23.39 40.7961 27.6634 39.0233C31.9368 37.2506 35.4634 34.0512 37.6425 29.97C39.8216 25.8889 40.5185 21.1785 39.6143 16.6413C38.7102 12.104 36.261 8.02051 32.6839 5.08641C29.1069 2.15231 24.6232 0.54909 19.9967 0.549842C17.367 0.544733 14.7624 1.06091 12.3334 2.06854C9.90439 3.07617 7.6992 4.55525 5.84529 6.42031Z" fill="#EB681B"/>
</svg>
