<svg width="168" height="40" viewBox="0 0 168 40" fill="none" xmlns="http://www.w3.org/2000/svg">
<path d="M47.832 18.7578H48.9875C50.0703 18.7578 50.3399 18.2758 50.4554 17.8815C50.5999 17.2571 50.6887 16.6206 50.7208 15.9798C50.7657 15.4055 50.8544 14.8356 50.9861 14.2754C51.0921 13.7707 51.3851 13.3277 51.8036 13.0397C52.2113 12.7764 52.6871 12.6451 53.1688 12.6629C53.3925 12.6498 53.616 12.6934 53.8193 12.79V14.6259H53.6567C53.3485 14.6259 52.9035 14.6697 52.7793 15.6074C52.6552 16.5451 52.6809 16.7335 52.5568 17.4652C52.5069 18.0182 52.2934 18.5425 51.9448 18.9681C51.697 19.2504 51.3694 19.4465 51.0075 19.529V19.5903C51.3789 19.6331 51.7333 19.7729 52.0368 19.9961C52.3403 20.2194 52.5827 20.5187 52.7408 20.8654C53.0233 21.5595 53.1688 22.3041 53.1688 23.0562C53.2287 24.0158 53.2501 24.5591 53.4341 24.8921C53.4988 25.0206 53.5991 25.1266 53.7225 25.1968C53.8459 25.2669 53.9868 25.2981 54.1275 25.2864H54.2088V27.1267C54.0193 27.2234 53.8078 27.2658 53.5968 27.2494C52.8221 27.2494 51.9662 27.0873 51.4954 26.1452C51.3542 25.8341 51.1702 25.2251 51.0075 23.0781C50.9647 22.5567 50.9262 21.5314 50.4383 21.0538C50.0207 20.7393 49.5028 20.597 48.9875 20.655H47.832V27.1048H45.5081V12.79H47.832V18.7578Z" fill="#EB681B"/>
<path d="M60.851 17.1103C62.1349 18.4248 62.2376 20.7821 62.2376 21.676C62.2376 22.5698 62.1563 24.9753 60.851 26.2898C60.1067 26.9857 59.1281 27.3595 58.1205 27.3327C57.1165 27.3379 56.1453 26.967 55.39 26.2898C54.2687 25.2032 53.9648 23.1394 53.9648 21.676C53.9648 19.8444 54.3928 18.048 55.39 17.0884C56.1629 16.3942 57.1658 16.0289 58.1932 16.0675C59.1817 16.0479 60.1391 16.4217 60.8638 17.1103H60.851ZM56.9393 18.2758C56.4086 18.9462 56.2459 20.1336 56.2459 21.7417C56.2459 22.0747 56.2459 24.1823 56.9179 25.0586C57.0582 25.2474 57.2405 25.3992 57.4497 25.5014C57.6589 25.6035 57.8888 25.653 58.1205 25.6457C58.3438 25.6528 58.5655 25.6052 58.7672 25.5069C58.969 25.4086 59.1448 25.2624 59.2803 25.0805C59.8152 24.3926 59.9565 22.7013 59.9565 21.676C59.9565 20.6507 59.8538 19.0075 59.2803 18.2758C59.1333 18.1066 58.953 17.9712 58.7513 17.8785C58.5496 17.7858 58.3309 17.7378 58.1098 17.7378C57.8886 17.7378 57.67 17.7858 57.4682 17.8785C57.2665 17.9712 57.0862 18.1066 56.9393 18.2758Z" fill="#EB681B"/>
<path d="M65.1688 16.2516V20.6332H68.0448V16.2516H70.1632V27.1049H68.0448V22.3859H65.1688V27.1049H63.0503V16.2516H65.1688Z" fill="#EB681B"/>
<path d="M78.9671 23.5163C78.7659 24.7695 78.4792 25.7071 77.7046 26.4126C76.9942 27.008 76.0971 27.3194 75.1795 27.2889C74.1595 27.3094 73.172 26.921 72.4276 26.2067C71.0196 24.7651 70.9768 22.158 70.9768 21.5753C70.9768 19.0909 71.8328 17.6712 72.6288 16.9658C73.3709 16.3352 74.3143 16.0075 75.2779 16.0456C76.0645 16.0108 76.84 16.2451 77.482 16.7116C78.5819 17.588 78.8687 19.069 78.9286 19.9059L76.9299 20.1775C76.9036 19.4946 76.7156 18.8285 76.3821 18.2364C76.2531 18.0748 76.0895 17.9458 75.904 17.8592C75.7184 17.7726 75.516 17.7307 75.3122 17.7369C75.0955 17.7373 74.8811 17.7816 74.6813 17.8674C74.4815 17.9531 74.3003 18.0786 74.1481 18.2364C73.4377 18.9682 73.2921 20.3046 73.2921 21.6147C73.2921 23.4725 73.596 24.4146 74.0026 24.9754C74.1299 25.1845 74.3081 25.3562 74.5196 25.4737C74.7311 25.5912 74.9688 25.6505 75.2095 25.6458C75.4445 25.653 75.6781 25.6059 75.893 25.5081C76.1079 25.4102 76.2984 25.2641 76.4506 25.0806C76.7687 24.5278 76.9563 23.9067 76.9984 23.2666L78.997 23.5163H78.9671Z" fill="#EB681B"/>
<path d="M80.3368 16.2516L82.7249 21.9915H82.7634L84.6593 16.2516H86.5767L83.8719 24.2656C83.6202 25.1253 83.1943 25.9211 82.6222 26.601C82.0734 27.0974 81.3596 27.3593 80.6278 27.3328C80.28 27.3195 79.9337 27.2785 79.5921 27.2101V25.4136C79.8463 25.511 80.1171 25.5542 80.3881 25.5407C80.7768 25.557 81.1604 25.4465 81.4838 25.2252C81.6726 25.0715 81.8077 24.8594 81.8689 24.6205L78.1841 16.2516H80.3368Z" fill="#EB681B"/>
<path d="M92.9569 16.2516V27.1049H90.8171V18.0042H88.7157C88.6772 19.5729 88.6772 20.2564 88.5531 21.5096C88.3947 23.3893 88.1893 25.6195 87.0466 26.5835C86.5584 26.9736 85.9538 27.1794 85.3347 27.1663C85.1122 27.1663 84.5986 27.1224 84.3975 27.1049V25.4136C84.6742 25.4743 84.9621 25.4515 85.2264 25.3481C85.4908 25.2446 85.7202 25.065 85.8868 24.8308C86.2506 24.3532 86.456 23.5163 86.5972 21.8294C86.7359 20.1362 86.7902 18.4368 86.7599 16.7379V16.2516H92.9569Z" fill="#EB681B"/>
<path d="M96.2823 16.2516V20.5325H97.6904C98.4436 20.5325 99.7061 20.5719 100.601 21.365C100.921 21.6549 101.173 22.0161 101.336 22.4209C101.499 22.8257 101.57 23.2634 101.542 23.7004C101.542 25.0587 101.114 25.8299 100.686 26.2461C100.385 26.5389 100.031 26.7672 99.6427 26.9177C99.2546 27.0682 98.8411 27.1378 98.4265 27.1224H94.1467V16.2516H96.2823ZM96.2823 25.453H97.853C98.171 25.425 98.4746 25.3044 98.728 25.1055C98.9813 24.9066 99.1737 24.6377 99.2826 24.3304C99.3915 24.0232 99.4122 23.6905 99.3424 23.3715C99.2727 23.0526 99.1152 22.7608 98.8887 22.5305C98.4892 22.2163 97.9847 22.0762 97.4849 22.1405H96.2823V25.453Z" fill="#EB681B"/>
<path d="M106.798 16.2516V18.0042H104.534V27.1049H102.416V18.0042H100.053V16.2516H106.798Z" fill="#EB681B"/>
<path d="M110.5 16.2516L113.402 27.1049H111.262L110.59 24.4759H107.718L107.042 27.1049H105.056L108.215 16.2516H110.5ZM109.195 18.4862L108.133 22.8065H110.273L109.195 18.4862Z" fill="#EB681B"/>
<path d="M115.614 16.2516V20.6332H118.486V16.2516H120.604V27.1049H118.486V22.3859H115.614V27.1049H113.496V16.2516H115.614Z" fill="#EB681B"/>
<path d="M127.798 16.2516V18.0042H125.539V27.1049H123.42V18.0042H121.058V16.2516H127.798Z" fill="#EB681B"/>
<path d="M136.953 12.79V27.1049H134.668V14.6873H130.632V27.1049H128.351V12.79H136.953Z" fill="#EB681B"/>
<path d="M146.061 16.2516V27.1049H143.942V18.0042H141.841C141.798 19.5729 141.798 20.2564 141.678 21.5096C141.516 23.3893 141.31 25.6195 140.168 26.5835C139.68 26.9752 139.075 27.1812 138.456 27.1663C138.229 27.1663 137.72 27.1224 137.519 27.1049V25.4136C137.795 25.4745 138.082 25.4518 138.346 25.3483C138.609 25.2448 138.838 25.065 139.004 24.8308C139.372 24.3532 139.577 23.5163 139.718 21.8294C139.778 21.2247 139.881 19.8883 139.881 16.7379V16.2516H146.061Z" fill="#EB681B"/>
<path d="M149.403 16.2515V20.5499H150.906C150.969 19.2713 151.452 18.0519 152.275 17.0884C153.015 16.4014 153.986 16.0354 154.984 16.0675C155.463 16.0546 155.939 16.1403 156.384 16.3195C156.83 16.4986 157.236 16.7675 157.578 17.1103C158.862 18.4467 158.96 20.7427 158.96 21.676C158.96 22.6093 158.879 24.9359 157.578 26.268C157.229 26.6127 156.817 26.8826 156.365 27.0617C155.913 27.2408 155.43 27.3255 154.946 27.3108C154.457 27.3302 153.969 27.25 153.51 27.0747C153.052 26.8995 152.632 26.6327 152.275 26.2899C151.441 25.4749 150.867 23.788 150.867 22.3026H149.403V27.1224H147.285V16.2515H149.403ZM153.764 18.2978C153.272 18.9681 153.093 20.1118 153.093 21.7417C153.093 24.0771 153.619 24.8483 153.743 25.0411C153.875 25.2324 154.051 25.3875 154.256 25.493C154.46 25.5984 154.687 25.6509 154.916 25.6458C155.138 25.6493 155.358 25.5978 155.557 25.4956C155.756 25.3934 155.928 25.2435 156.058 25.0586C156.118 24.9973 156.709 24.1823 156.709 21.676C156.709 21.0757 156.67 19.0689 156.058 18.2758C155.923 18.0996 155.749 17.9588 155.551 17.8651C155.352 17.7714 155.134 17.7274 154.916 17.7369C154.695 17.722 154.474 17.7658 154.274 17.8641C154.075 17.9623 153.904 18.1117 153.777 18.2978H153.764Z" fill="#EB681B"/>
<path d="M167.378 23.5163C167.173 24.7695 166.89 25.7071 166.115 26.4126C165.404 27.0083 164.505 27.3197 163.586 27.2889C162.566 27.3103 161.578 26.9218 160.834 26.2067C159.43 24.7651 159.388 22.158 159.388 21.5753C159.388 19.0909 160.222 17.6712 161.035 16.9658C161.779 16.3349 162.724 16.0073 163.689 16.0456C164.474 16.0108 165.248 16.2452 165.889 16.7116C166.989 17.588 167.275 19.069 167.335 19.9059L165.341 20.1775C165.313 19.4943 165.124 18.8282 164.789 18.2365C164.661 18.0688 164.496 17.9342 164.308 17.8437C164.12 17.7531 163.914 17.709 163.706 17.715C163.49 17.7157 163.276 17.7602 163.077 17.846C162.878 17.9317 162.698 18.057 162.546 18.2145C161.831 18.9463 161.69 20.2827 161.69 21.5928C161.69 23.4506 161.994 24.3927 162.401 24.9535C162.527 25.1629 162.704 25.3349 162.915 25.4524C163.126 25.57 163.363 25.6291 163.603 25.6239C163.838 25.6311 164.072 25.584 164.287 25.4862C164.502 25.3883 164.692 25.2422 164.844 25.0587C165.164 24.5062 165.353 23.8851 165.396 23.2447L167.395 23.4944L167.378 23.5163Z" fill="#EB681B"/>
<path d="M19.5217 0.521485C23.3139 0.520618 27.0211 1.67104 30.1746 3.82726C33.328 5.98348 35.7862 9.04867 37.2382 12.6352C38.6901 16.2217 39.0707 20.1685 38.3317 23.9765C37.5927 27.7845 35.7674 31.2826 33.0866 34.0285C30.4058 36.7743 26.9898 38.6447 23.2707 39.4029C19.5517 40.1612 15.6965 39.7734 12.1927 38.2884C8.68892 36.8035 5.69392 34.2882 3.58644 31.0606C1.47895 27.833 0.35363 24.038 0.352783 20.1556C0.352783 14.9498 2.37209 9.95715 5.96672 6.27529C9.56136 2.59342 14.437 0.523808 19.5217 0.521485Z" fill="white"/>
<path d="M34.7235 31.859L34.8091 31.9072C36.6377 29.422 37.8627 26.5271 38.3826 23.4615C38.9025 20.3959 38.7026 17.2476 37.7993 14.2768C36.896 11.3059 35.3152 8.59776 33.1876 6.37598C31.06 4.15419 28.4466 2.48256 25.5632 1.49918C22.6799 0.515796 19.6094 0.248883 16.6054 0.72049C13.6014 1.1921 10.7501 2.38869 8.28708 4.21141C5.82403 6.03414 3.81993 8.43069 2.44031 11.2031C1.0607 13.9755 0.345174 17.0442 0.352844 20.1556C0.349663 23.5948 1.23561 26.9735 2.92069 29.9486C2.88217 29.8785 2.83937 29.8171 2.80514 29.747C4.04964 29.3171 5.34539 29.0621 6.65691 28.989C7.88519 28.989 8.99364 29.2344 10.0165 29.2957C10.5234 29.3081 11.0306 29.292 11.5358 29.2475C12.0068 29.2138 12.4747 29.1435 12.9353 29.0372C13.2073 28.9719 13.4684 28.8656 13.7099 28.7217C13.6714 28.656 13.62 28.5947 13.5772 28.5246C13.5154 28.4275 13.4624 28.3248 13.4189 28.2178C13.3803 28.1311 13.3474 28.0418 13.3205 27.9506C13.2343 27.7248 13.1739 27.4895 13.1407 27.2495C13.0897 26.8129 13.0897 26.3716 13.1407 25.935C13.0606 25.3166 12.9448 24.7036 12.7941 24.0991C12.8411 22.6093 13.7912 22.3903 13.727 20.8085L13.7741 20.9136C13.7636 20.8306 13.7464 20.7485 13.7228 20.6683C13.1236 20.734 13.4917 19.6517 13.3804 19.5816C13.0038 19.3275 13.0765 17.7282 13.4489 17.4697C13.5332 17.4101 13.6332 17.3783 13.7356 17.3783C13.838 17.3783 13.938 17.4101 14.0223 17.4697C14.0587 17.4172 14.0875 17.3596 14.1079 17.2988C14.1099 17.2828 14.1099 17.2666 14.1079 17.2506C14.1079 17.2857 14.0737 17.3032 14.0395 17.29C13.9566 17.2644 13.8774 17.2276 13.8041 17.1805C13.7533 17.1472 13.6987 17.1207 13.6414 17.1016C13.5637 17.0655 13.4766 17.0563 13.3932 17.0753C13.3932 17.0753 13.3932 17.0753 13.3675 17.0753C13.2598 17.1155 13.164 17.1834 13.0894 17.2725C12.9524 17.4302 12.824 17.5924 12.6614 17.588C12.6614 17.588 12.6614 17.588 12.6271 17.588C12.5929 17.588 12.6271 17.5091 12.6271 17.4653C12.6338 17.0811 12.758 16.7087 12.9824 16.4006C12.93 16.4111 12.8785 16.4257 12.8283 16.4444C12.6699 16.4882 12.5202 16.532 12.3704 16.5627H12.2591C12.2687 16.3747 12.3344 16.1942 12.4474 16.0456C12.5941 15.8328 12.7667 15.6399 12.961 15.4717L13.0637 15.3884C13.2143 15.2566 13.3795 15.1434 13.5559 15.051C13.7418 14.9651 13.9396 14.9089 14.1422 14.8845C14.2449 14.8845 14.2962 14.8845 14.3176 14.9239C14.3293 14.995 14.3293 15.0676 14.3176 15.1386C14.3176 15.1386 14.3176 15.1781 14.3176 15.1956C14.3176 15.4454 14.3604 15.7827 14.6515 15.8178C14.6515 15.8441 14.6515 15.866 14.6215 15.8967C14.69 15.8134 14.7627 15.7345 14.8398 15.6513C14.9261 15.5638 15.0176 15.4819 15.1137 15.4059C15.4946 15.1737 15.3491 15.2482 14.9639 15.4979C14.7371 15.6338 14.5787 15.4979 14.6087 15.3665C14.6343 14.7487 13.8169 13.0223 13.2648 12.3694L8.12914 13.8329L7.80388 13.9994C7.80921 14.2388 7.79056 14.4781 7.74824 14.7136C7.70972 14.9678 7.54709 15.5593 7.34594 15.1518C7.2664 14.9296 7.22163 14.696 7.21327 14.4595C7.21327 14.4113 7.21327 14.3762 7.21327 14.3499C7.05492 14.4201 6.90085 14.4902 6.7425 14.5471C12.2035 10.3364 17.1722 8.16307 21.773 5.98978C24.7688 6.42794 29.4765 7.16844 32.2369 7.703C29.8301 8.20446 27.4627 8.88692 25.154 9.74485L25.415 12.9478C26.4152 13.4747 27.1885 14.3633 27.5848 15.441C27.7194 15.7243 27.8338 16.0171 27.9272 16.3173V16.3567C27.942 16.4129 27.9534 16.47 27.9615 16.5276C27.9615 16.5583 27.9615 16.5627 27.9615 16.5758C27.9871 16.7949 27.9871 17.014 27.8844 17.014C27.7817 17.014 27.6918 16.8738 27.5977 16.773L27.5335 16.7467C27.5143 17.3813 27.4194 18.011 27.251 18.6221C27.3346 18.585 27.4263 18.5716 27.5166 18.5831C27.6069 18.5947 27.6925 18.6308 27.7646 18.6878C28.0128 18.9375 27.9272 19.643 27.6062 20.3966C27.3495 21.0582 27.0156 20.9881 27.0584 21.3255C27.2296 22.789 26.4636 22.2369 26.348 22.5743C26.0045 23.6697 25.8737 24.8233 25.9628 25.9701C26.0784 27.4817 25.7488 28.1127 25.4236 28.3449C25.4008 28.4051 25.3913 28.4697 25.3957 28.5341C25.4002 28.5985 25.4184 28.661 25.4493 28.7174C25.5334 28.9144 25.6063 29.1163 25.6675 29.322C25.7274 29.5148 25.8045 29.6988 25.8772 29.8916C25.95 30.0844 26.0441 30.3298 26.1212 30.5314C26.1329 30.573 26.1502 30.6128 26.1725 30.6497L26.2196 30.6935L26.5192 30.803C28.6591 31.2412 28.1712 31.8853 30.1998 31.6268C30.6124 31.635 31.0241 31.6702 31.4323 31.7319C31.4323 31.7319 34.7021 31.5347 34.7877 31.7801C34.7705 31.8064 34.7534 31.8327 34.7235 31.859ZM7.29031 15.9054C7.31105 15.7776 7.3605 15.6565 7.43477 15.5515C7.50904 15.4466 7.60609 15.3608 7.71828 15.3008C7.74376 15.3738 7.75538 15.4511 7.75252 15.5286C7.75935 15.6541 7.75935 15.7799 7.75252 15.9054V15.9449C7.75496 15.9682 7.75496 15.9917 7.75252 16.015L7.73112 16.0719C7.6684 16.2182 7.56589 16.343 7.43582 16.4312C7.38525 16.3633 7.35815 16.2801 7.35878 16.1946C7.34977 16.1131 7.34977 16.0308 7.35878 15.9493L7.29031 15.9054ZM7.29031 16.9921C7.31167 16.8645 7.36137 16.7436 7.43557 16.6388C7.50977 16.5339 7.60649 16.4479 7.71828 16.3874C7.74289 16.4607 7.75449 16.5378 7.75252 16.6153C7.75943 16.7408 7.75943 16.8666 7.75252 16.9921C7.75252 16.9921 7.75252 17.0184 7.75252 17.0271C7.75543 17.0519 7.75543 17.0769 7.75252 17.1016L7.73112 17.1586C7.66833 17.3037 7.56574 17.427 7.43582 17.5135C7.38433 17.4477 7.35706 17.3655 7.35878 17.2813C7.34967 17.1983 7.34967 17.1145 7.35878 17.0315L7.29031 16.9921ZM7.29031 18.0831C7.31167 17.9555 7.36137 17.8346 7.43557 17.7298C7.50977 17.625 7.60649 17.539 7.71828 17.4784C7.74336 17.5516 7.75497 17.6288 7.75252 17.7063C7.75938 17.8318 7.75938 17.9576 7.75252 18.0831C7.75252 18.0831 7.75252 18.105 7.75252 18.1182C7.75495 18.1429 7.75495 18.1679 7.75252 18.1926C7.75252 18.1926 7.75252 18.2321 7.73112 18.2452C7.6684 18.3915 7.56589 18.5163 7.43582 18.6045C7.38525 18.5366 7.35815 18.4533 7.35878 18.3679C7.34976 18.2878 7.34976 18.207 7.35878 18.1269L7.29031 18.0831ZM7.29031 19.1741C7.31105 19.0463 7.3605 18.9252 7.43477 18.8202C7.50904 18.7153 7.60609 18.6295 7.71828 18.5695C7.74336 18.6426 7.75497 18.7199 7.75252 18.7973C7.75935 18.9228 7.75935 19.0486 7.75252 19.1741C7.75252 19.1741 7.75252 19.196 7.75252 19.2048C7.73529 19.2318 7.71519 19.2568 7.6926 19.2793L7.6712 19.3319C7.60653 19.4769 7.50443 19.6011 7.3759 19.6912C7.32533 19.6232 7.29823 19.54 7.29887 19.4546C7.29 19.3745 7.29 19.2936 7.29887 19.2136L7.29031 19.1741ZM6.88801 20.6201C7.01379 20.2961 7.21162 20.0065 7.46578 19.7744C7.50932 19.7263 7.56886 19.6966 7.63269 19.6912C7.67548 19.6912 7.71828 19.735 7.76964 19.8095C7.91407 20.0135 8.03472 20.234 8.12914 20.4667C8.38612 21.2406 8.55696 22.0416 8.63843 22.8547C8.46242 22.8908 8.28269 22.904 8.10346 22.8942C7.85258 22.9087 7.6011 22.9087 7.35022 22.8942C7.34748 22.7301 7.33605 22.5662 7.31599 22.4034C7.31599 22.2982 7.25607 22.1843 7.19187 22.1843C7.12768 22.1843 7.09772 22.4078 7.08488 22.5173C7.08229 22.6273 7.07371 22.737 7.0592 22.846C7.0592 22.9423 6.4686 22.846 6.4258 22.846L6.47288 22.4078C6.54137 21.7971 6.68073 21.197 6.88801 20.6201Z" fill="#AAA1CC"/>
<path d="M25.1064 17.8639C25.0807 17.6974 25.0593 17.5265 25.0165 17.3425C24.992 17.1915 24.9488 17.0443 24.8882 16.9044C24.8618 16.8455 24.8318 16.7884 24.7983 16.7335L24.7555 16.659C24.7239 16.6114 24.6834 16.5706 24.6364 16.5391C24.5894 16.5075 24.5368 16.4857 24.4816 16.475H24.4473C24.4473 16.6458 24.3532 16.7817 24.2077 16.7992C24.1404 16.6971 24.0831 16.5885 24.0365 16.475C23.9038 16.1814 23.7626 15.8659 23.6085 15.5986C23.4544 15.3313 23.356 15.0597 23.2576 14.8494C23.2576 14.8099 23.2105 14.7705 23.1934 14.7267C23.1063 14.5664 22.9983 14.419 22.8724 14.2885C22.7312 14.1483 22.56 13.9906 22.4187 13.8504L22.3032 13.7627C22.2454 13.6988 22.1774 13.6454 22.102 13.605C22.0293 13.5699 22.0164 13.5524 22.0079 13.5524L21.9565 13.5217C18.6611 13.8065 16.4785 14.6084 15.1089 15.4365C15.0128 15.5125 14.9213 15.5944 14.835 15.6819C14.758 15.7651 14.6852 15.844 14.6168 15.9272C14.5355 16.1025 14.4456 16.1901 14.3086 16.51C14.2375 16.6713 14.1843 16.8404 14.1503 17.0139C14.1414 17.0906 14.1227 17.1657 14.0946 17.2374C14.0966 17.2534 14.0966 17.2696 14.0946 17.2856C14.0433 17.3951 14.0304 17.4433 14.0005 17.4608C14.3738 17.7886 14.6669 18.2012 14.8564 18.6658C14.917 18.7339 14.9986 18.7788 15.0875 18.7928C15.3317 18.6575 15.603 18.5813 15.8804 18.5699C16.1579 18.5585 16.4342 18.6123 16.6882 18.7271C17.1262 18.8686 17.5038 19.1593 17.7581 19.5509C18.3487 18.6176 18.9992 18.6745 19.5256 19.0119C19.5971 19.05 19.6645 19.0955 19.7268 19.1478C19.7858 19.1918 19.8415 19.2401 19.8937 19.2923C19.9243 19.2232 19.9486 19.1513 19.9664 19.0776C19.9882 19.0233 20.0068 18.9677 20.0221 18.9111C20.0863 18.5869 20.0777 18.2188 20.1548 17.8946C20.1548 17.842 20.1548 17.7938 20.1548 17.7456C20.1505 17.6873 20.1505 17.6287 20.1548 17.5704C20.1636 17.5216 20.1751 17.4733 20.189 17.4258C20.2484 17.1414 20.3781 16.8774 20.5656 16.659C20.6505 16.5759 20.7471 16.5064 20.8524 16.453C21.0749 16.3216 21.3445 16.1901 21.4173 16.1332C21.4224 16.3001 21.3871 16.4656 21.3146 16.6152C21.5328 16.6152 21.6955 16.5889 21.8367 16.5801C22.1942 16.565 22.5482 16.5017 22.8895 16.3917C22.934 16.4473 22.9727 16.5075 23.0051 16.5713C23.0048 16.5834 23.0072 16.5953 23.0121 16.6062C23.0169 16.6171 23.0242 16.6268 23.0333 16.6344C23.0424 16.642 23.053 16.6474 23.0645 16.6501C23.0759 16.6529 23.0878 16.6529 23.0992 16.6502H23.1249C23.1512 16.6381 23.1807 16.6355 23.2086 16.6426C23.2365 16.6498 23.2613 16.6663 23.279 16.6897C23.3018 16.726 23.3218 16.7641 23.3389 16.8036C23.4101 16.8245 23.4801 16.8493 23.5486 16.8781L23.5743 16.9044L23.6513 16.7554L23.6984 16.6502C23.7897 16.724 23.8629 16.8185 23.9124 16.9263C23.9469 16.9987 23.9728 17.0753 23.9894 17.1541C23.9921 17.1715 23.9921 17.1893 23.9894 17.2067C23.9894 17.2461 23.9894 17.2899 23.9894 17.325C23.9962 17.3434 24.0048 17.361 24.0151 17.3776C24.0427 17.5255 24.0248 17.6787 23.9637 17.8157C23.9025 17.8032 23.8424 17.7856 23.784 17.7632H23.7198L23.6427 17.7325C23.5743 17.7106 23.4972 17.6799 23.4288 17.6624C23.383 17.6424 23.3358 17.6263 23.2875 17.6142C23.1977 17.5791 23.1078 17.5441 23.035 17.5222C22.9376 17.5013 22.839 17.4866 22.7397 17.4783C22.4999 17.413 22.2513 17.3878 22.0036 17.4039C21.4258 17.4039 20.6854 18.1619 21.1006 17.9297C21.1648 17.899 21.2204 17.8858 21.2803 17.8596C21.5245 17.7671 21.7819 17.7168 22.0421 17.7106C22.0421 17.7719 21.8239 17.8157 21.8239 17.8815C21.8239 17.9472 21.9694 17.9297 21.9694 17.9297L22.3246 17.8946L22.8082 17.8639L23.5828 18.1619V18.5212C23.5828 18.4905 23.938 18.7227 24.0622 18.7227C24.1453 18.8185 24.2225 18.9194 24.2933 19.0251C24.1306 18.9374 23.8311 18.8717 24.0022 19.0251C24.1734 19.1784 24.1221 19.3099 24.0022 19.2792C23.7404 19.2014 23.4941 19.0768 23.2747 18.9111C23.1763 18.8279 23.1035 18.7227 23.0093 18.6351C22.7113 18.3865 22.3478 18.234 21.9651 18.1969C21.9402 18.2002 21.9174 18.2127 21.9009 18.232C21.9993 18.2933 22.1577 18.3634 22.1748 18.3766V18.3503C22.3539 18.3896 22.524 18.464 22.6755 18.5694C22.7654 18.7227 22.821 18.841 22.7611 18.9725C22.6667 19.1149 22.5262 19.2187 22.3644 19.2655C22.2026 19.3124 22.0299 19.2993 21.8765 19.2287C21.7232 19.1581 21.5991 19.0343 21.5261 18.8793C21.453 18.7242 21.4357 18.5478 21.4772 18.381C21.2846 18.4467 21.1519 18.5431 21.1519 18.6088C21.1698 18.7543 21.1698 18.9015 21.1519 19.047C21.1519 18.9813 20.8652 19.0119 20.831 19.047C20.7967 19.082 20.831 19.0776 20.7796 19.1346C20.9722 19.1346 21.1648 19.1872 21.2076 19.3668C21.6309 19.3296 22.056 19.413 22.4359 19.6078L22.6327 19.4764C22.7544 19.4634 22.8731 19.4293 22.9837 19.3756L23.2447 19.0119L23.4031 19.3055C23.2105 19.4107 22.9537 19.7437 22.7911 19.805C22.9152 19.922 23.0245 20.0545 23.1163 20.1993L23.8054 20.1555C23.9252 20.0854 24.1734 19.9671 24.4088 19.8094C24.5221 19.7355 24.6269 19.6487 24.7212 19.5509C24.7732 19.4986 24.8218 19.443 24.8668 19.3844C25.0108 19.1441 25.0974 18.8723 25.1193 18.5913C25.1258 18.4965 25.1258 18.4013 25.1193 18.3065C25.1244 18.1588 25.1201 18.011 25.1064 17.8639ZM18.46 18.8104C18.3831 18.8242 18.3039 18.8135 18.2332 18.7797L18.1989 18.5475C17.9122 19.4238 16.624 19.0075 16.8765 18.0173L16.7138 18.1838L16.4485 18.1575C16.4485 18.1575 16.4485 18.1575 16.41 18.1575C16.2602 18.1575 16.41 18.2451 16.1361 18.2977H16.0762H15.9563H15.8665H15.6696C15.6182 18.2977 15.5926 18.2495 15.5926 18.2188L15.6396 18.1706H15.6696C16.0958 17.9425 16.5531 17.7815 17.0263 17.6931C17.4103 17.6814 17.7861 17.8086 18.0876 18.0523L18.5156 18.4905C18.5841 18.5475 18.5499 18.7797 18.46 18.8104ZM18.8623 17.2155C18.8422 17.4034 18.802 17.5885 18.7424 17.7675C18.7424 17.7938 18.7424 17.8157 18.7424 17.8333C18.6996 17.9954 18.6954 18.1093 18.537 17.8902C18.3787 17.6711 18.3145 17.5134 18.109 17.417C17.9616 17.3754 17.8114 17.3447 17.6597 17.325C17.6103 17.3105 17.5629 17.2899 17.5184 17.2636C17.3362 17.1685 17.1316 17.1276 16.9278 17.1453C16.731 17.1453 16.6197 17.2286 16.8123 17.3951C16.8422 17.4564 16.3629 17.4915 16.3629 17.4915L16.5213 17.7237C16.4956 17.6799 16.1318 17.7237 16.0933 17.7237C16.0352 17.7424 15.9793 17.7674 15.9264 17.7982C15.8974 17.8047 15.8699 17.8166 15.8451 17.8333C15.8113 17.8418 15.7761 17.8418 15.7423 17.8333C15.7423 17.8333 15.6995 17.8333 15.6867 17.8026C15.5968 17.6755 15.8493 17.4082 15.9264 17.3338C16.0034 17.2593 15.9563 17.2943 15.9264 17.2856C15.8964 17.2768 15.7552 17.2856 15.7338 17.2856C15.6416 17.3285 15.5575 17.3878 15.4856 17.4608C15.4605 17.485 15.4376 17.5114 15.4171 17.5397C15.3549 17.6083 15.2977 17.6816 15.2459 17.7588C15.0661 17.5704 15.3186 17.1059 15.4214 16.992C15.5241 16.8781 16.1232 16.7203 16.1232 16.8474C16.1268 16.792 16.1268 16.7363 16.1232 16.6809C16.1232 16.6195 16.1232 16.6108 16.303 16.6152C16.3541 16.622 16.4059 16.622 16.4571 16.6152C16.5427 16.6152 16.594 16.5626 16.5812 16.4048H16.6582H16.7566C16.8747 16.4331 16.995 16.4507 17.1161 16.4574C17.1161 16.4136 17.1161 16.3391 17.1161 16.2909C17.2488 16.2909 17.3344 16.3829 17.4542 16.3786C17.4363 16.2684 17.4248 16.1572 17.42 16.0456C17.5989 16.1098 17.7644 16.2079 17.9079 16.3347C17.9676 16.2426 17.9989 16.1342 17.9978 16.0236C18.2845 16.1419 18.1005 16.4969 18.3316 16.6546C18.3451 16.5441 18.3522 16.4329 18.353 16.3216H18.4001C18.4728 16.4234 18.5305 16.5356 18.5713 16.6546C18.5941 16.7837 18.6299 16.9099 18.6782 17.0314C18.6226 16.9438 18.7424 16.6809 18.8238 16.6195C18.8494 16.6809 18.8922 16.9569 18.8623 17.2155Z" fill="#FFE6C2"/>
<path d="M24.3577 20.4229L24.2636 20.4799C24.0838 20.5719 23.9212 20.6595 23.7757 20.7165C23.622 20.7973 23.4576 20.8548 23.2878 20.8874C23.2193 21.3825 22.7058 21.8075 21.9654 21.882C21.5684 21.9327 21.1654 21.8753 20.797 21.7155C20.797 21.7681 20.797 21.8163 20.797 21.8688C21.0238 21.9784 21.225 22.1361 21.0495 22.4034C20.874 22.6707 19.6329 23.1614 19.6329 23.1614C19.2435 23.455 18.3747 23.7573 17.9553 23.5996C17.4716 23.398 17.0565 22.1142 17.1849 21.8163L17.446 21.9521L17.4674 22.4209C17.8611 23.7354 18.8026 23.2403 19.1493 22.7452C19.1793 22.6093 19.2777 22.25 18.7641 22.25C19.2526 21.814 19.6003 21.2365 19.7613 20.5938C19.7613 20.4886 19.7998 20.3922 19.8169 20.3134C19.8072 20.1675 19.7694 20.025 19.7058 19.8941C19.6422 19.7631 19.554 19.6463 19.4463 19.5503C19.3386 19.4542 19.2135 19.3809 19.0781 19.3344C18.9427 19.2879 18.7996 19.2692 18.6571 19.2793C18.5099 19.326 18.3777 19.4125 18.2745 19.5297C18.1713 19.6469 18.1009 19.7905 18.0708 19.9453C17.9424 20.3835 17.7969 21.7374 17.7498 21.79C17.7138 21.4173 17.7023 21.0425 17.7156 20.6683C17.3646 21.0363 16.6542 21.1064 15.9138 20.8654C15.0579 20.5675 14.5614 19.8445 14.754 19.2837C14.724 19.3669 14.4715 18.8192 14.463 18.7973C14.3776 18.5165 14.2459 18.2527 14.0735 18.0174C13.5343 17.4171 13.2861 18.587 13.3502 18.9813C13.4016 19.2924 13.667 19.5422 13.7311 19.8577C13.7848 20.1369 13.7848 20.4241 13.7311 20.7033C13.7548 20.7835 13.772 20.8656 13.7825 20.9487C14.4844 22.4604 13.0036 22.8985 13.4273 24.9623C13.6156 26.0402 13.5172 26.9384 13.8039 27.5913C13.9537 27.9374 13.9922 28.3756 14.4972 28.5026C14.6966 28.4958 14.8947 28.5366 15.076 28.6217C15.2572 28.7069 15.4166 28.8342 15.5415 28.9934C15.6656 29.0942 15.9695 29.1292 15.5072 29.1906C15.3211 29.2143 15.1328 29.2143 14.9466 29.1906C14.9626 29.2242 14.9812 29.2564 15.0022 29.287C15.259 29.414 15.5329 29.5236 15.7811 29.6769C15.7555 29.4447 15.7811 29.3089 15.7811 29.2826C16.1172 29.6712 16.4899 30.0249 16.8939 30.3386C17.3136 30.5652 17.7779 30.692 18.2521 30.7094C18.7264 30.7269 19.1984 30.6346 19.6329 30.4393L19.7442 30.3868H19.7699C20.0187 30.2248 20.2424 30.0254 20.4332 29.7952C20.6192 29.6051 20.795 29.4047 20.9596 29.1949C21.0238 29.1161 21.0837 29.0547 21.1351 28.9934L21.1993 28.9189C21.2892 28.8225 21.3705 28.7173 21.4604 28.6253C21.6554 28.4475 21.8676 28.2904 22.0938 28.1565C22.1985 28.0798 22.2959 27.9933 22.3848 27.898L22.4747 27.7884C22.5474 27.6964 22.6073 27.6263 22.6587 27.5518C22.8162 27.3417 22.9444 27.1102 23.0396 26.8639C23.2208 26.4185 23.3334 25.9469 23.3734 25.4662C23.4804 24.4978 23.4547 23.49 23.8014 22.4954C23.9586 22.3203 24.0898 22.1225 24.1908 21.9083C24.3791 21.4384 24.4369 20.9243 24.3577 20.4229ZM17.3946 20.9531C16.6542 21.5095 17.1721 21.7418 17.1378 21.7418C15.366 22.2018 15.3018 23.9326 15.2077 23.7573C15.1435 23.49 15.1135 21.5095 17.3946 20.9531ZM13.7097 19.0865C13.6584 18.9112 13.6841 18.5782 13.8724 18.6746C13.9101 18.6958 13.9447 18.7224 13.9751 18.7535C14.1548 18.9288 14.0992 19.3538 14.0136 19.6999C14.0264 19.643 13.7739 19.31 13.7097 19.0865ZM15.3574 27.9681H15.3061C15.0944 27.8979 14.9041 27.7726 14.754 27.6044C14.5705 27.4223 14.4134 27.2143 14.2875 26.9866C14.0144 26.5058 13.8669 25.961 13.8595 25.4048C13.8383 25.1284 13.8828 24.8508 13.9894 24.5959C14.096 24.341 14.2615 24.1164 14.4715 23.9414C14.4971 23.9373 14.523 23.9373 14.5486 23.9414L14.4501 24.0684C14.3511 24.2211 14.2827 24.3923 14.249 24.5723C14.1989 24.7861 14.1745 25.0053 14.1762 25.2252C14.1733 25.9778 14.378 26.7159 14.7668 27.3547L14.8054 27.416C14.8387 27.4589 14.8745 27.4999 14.9124 27.5387C14.9507 27.5882 14.9937 27.6337 15.0407 27.6745C15.0944 27.726 15.1532 27.7715 15.2162 27.8103L15.3189 27.8848C15.3392 27.9083 15.3525 27.9372 15.3574 27.9681ZM15.3275 25.545C15.4002 25.6633 15.2376 25.9832 14.754 25.304C14.9808 24.1517 15.7555 23.6215 15.8839 23.6872C15.045 24.7125 15.2333 24.9754 15.3275 25.545ZM15.9481 25.4136C15.9053 25.1288 15.8239 24.8966 15.8025 24.6249C15.7983 24.5519 15.7983 24.4788 15.8025 24.4058C15.8037 24.3236 15.8108 24.2416 15.8239 24.1604C15.9668 24.0871 16.1227 24.0439 16.2822 24.0333C16.4417 24.0228 16.6017 24.0452 16.7526 24.0991C16.6519 24.1774 16.5588 24.2655 16.4745 24.362C16.533 24.3777 16.5903 24.3982 16.6456 24.4233C16.7312 24.4584 16.8126 24.5066 16.9024 24.5548C17.2351 24.7881 17.5909 24.9849 17.9638 25.1419C18.0905 25.1789 18.2215 25.1981 18.3533 25.1989C18.4828 25.2023 18.6122 25.1891 18.7384 25.1595C18.8681 25.1311 18.9944 25.0885 19.1151 25.0324C19.3741 24.9193 19.6269 24.7921 19.8726 24.6512L20.1636 24.4847L20.5916 24.2393L20.8954 24.0553C21.0123 23.9902 21.1339 23.9345 21.2592 23.8888C21.3476 23.8674 21.438 23.8556 21.5288 23.8537C21.5985 23.8449 21.6689 23.8449 21.7385 23.8537C21.7642 23.8537 21.7771 23.9019 21.7856 23.9501C21.795 24.0454 21.7818 24.1416 21.7471 24.2305C21.7471 24.2612 21.7471 24.2963 21.6915 24.3269C21.2751 24.565 20.8465 24.78 20.4075 24.971C20.1807 25.0762 19.9453 25.1726 19.7185 25.2602H19.6586C19.586 25.295 19.51 25.3214 19.4318 25.3391C19.1272 25.4495 18.8086 25.5144 18.4859 25.5319C17.9569 25.5161 17.4379 25.3799 16.9666 25.1332L16.6114 24.971H16.5815C16.4346 24.9052 16.2917 24.8306 16.1535 24.7476C16.0373 24.9511 15.9671 25.1787 15.9481 25.4136ZM19.1964 26.2899C18.0366 26.5221 17.8782 27.0786 17.8483 28.0645C17.6089 27.5132 17.5621 26.8943 17.7156 26.3118C18.2334 26.1278 18.6828 26.2899 19.1964 26.2899ZM19.038 29.7952C18.9602 29.8907 18.8633 29.9681 18.754 30.0223C18.6446 30.0765 18.5252 30.1063 18.4038 30.1096C18.2823 30.1129 18.1616 30.0897 18.0496 30.0416C17.9376 29.9934 17.8368 29.9214 17.7541 29.8303C17.735 29.8026 17.7106 29.7791 17.6825 29.7612C17.6544 29.7434 17.6231 29.7314 17.5904 29.7261C17.5577 29.7208 17.5242 29.7222 17.4921 29.7303C17.46 29.7385 17.4297 29.7531 17.4032 29.7733C17.3329 29.8216 17.2537 29.8543 17.1704 29.8694C17.0871 29.8845 17.0017 29.8816 16.9196 29.861C16.3076 29.4622 16.115 28.5465 16.0636 27.5212C16.1263 27.7807 16.2273 28.0289 16.3632 28.2573C16.4625 28.4897 16.5844 28.7114 16.727 28.9189C16.8211 29.0635 17.1549 29.3571 17.339 29.3001C17.523 29.2431 17.3903 28.713 17.4417 28.5114V28.5508C17.7284 29.506 18.7598 29.506 19.7527 29.1424C19.9368 29.0942 19.359 29.3877 19.038 29.8171V29.7952ZM21.5288 26.4345C21.2169 27.0726 20.7659 27.6288 20.2107 28.0601C20.1823 28.0954 20.1491 28.1264 20.1122 28.1521C19.7271 28.3756 20.0823 27.9812 20.2449 27.8629C20.9168 27.0786 21.9953 25.5976 19.8854 25.7203C19.0551 25.8956 19.1322 25.8079 19.1322 25.8079L20.4161 25.4224C20.7157 25.3216 21.0153 25.2164 21.3063 25.0893C21.4646 25.0236 21.623 24.9535 21.7343 25.028C21.8455 25.1025 21.7942 25.0981 21.7899 25.2077C21.7821 25.6372 21.6934 26.0612 21.5288 26.4564V26.4345ZM22.7657 24.0991C22.5431 24.8308 22.4789 24.6643 22.1622 25.7159C21.9311 26.3775 22.5046 23.9019 22.2778 23.4769C22.051 23.0519 21.5802 23.3542 20.9939 22.8328C21.0401 22.8035 21.0888 22.7786 21.1394 22.7583C21.3662 22.6663 21.6701 22.8065 22.2307 22.8854C22.6073 23.0387 22.8042 23.2403 22.7657 23.3235C22.9968 23.6215 22.8042 23.9852 22.7657 24.0991Z" fill="#FFE6C2"/>
<path d="M26.1211 38.2956C26.1211 38.2956 27.0455 32.7221 27.1097 31.7626C27.5377 31.9028 27.9956 32.0912 28.7489 32.4242C29.3566 33.0157 29.6605 33.5196 31.3167 32.9631L32.438 32.4242C32.869 32.2569 33.3169 32.1393 33.7733 32.0737C34.2013 32.043 34.8004 31.9641 34.7662 31.7976C34.6806 31.5522 31.4109 31.7494 31.4109 31.7494C31.0026 31.6877 30.5909 31.6525 30.1783 31.6443C28.1497 31.9028 28.6333 31.2806 26.4977 30.8205L26.1982 30.711L26.1511 30.6672C26.1287 30.6303 26.1114 30.5905 26.0997 30.5488C26.0227 30.3298 25.9457 30.1107 25.8558 29.9091C25.7659 29.7076 25.706 29.5323 25.6461 29.3395C25.5895 29.1431 25.5224 28.95 25.4449 28.7611C25.4141 28.7048 25.3958 28.6422 25.3914 28.5779C25.387 28.5135 25.3965 28.4489 25.4192 28.3887C25.7445 28.1565 26.074 27.5124 25.9585 26.0138C25.8693 24.867 26.0002 23.7135 26.3437 22.6181C26.4592 22.2807 27.2253 22.8328 27.0541 21.3693C27.0113 21.0319 27.3451 21.102 27.6019 20.4404C27.9229 19.6868 28.0299 18.9813 27.7603 18.7316C27.6882 18.6746 27.6026 18.6385 27.5122 18.6269C27.4219 18.6154 27.3302 18.6288 27.2467 18.6658C27.4151 18.0548 27.5099 17.4251 27.5292 16.7905L27.5933 16.8168C27.6875 16.9176 27.8202 17.0578 27.8801 17.0578C27.94 17.0578 27.9828 16.8343 27.9571 16.6196C27.9571 16.6196 27.9571 16.6196 27.9571 16.5714C27.9491 16.5138 27.9376 16.4567 27.9229 16.4005V16.3611C27.8295 16.0609 27.7151 15.7681 27.5805 15.4848C27.1841 14.4071 26.4108 13.5185 25.4107 12.9916L25.1496 9.78864C27.4584 8.93071 29.8258 8.24825 32.2326 7.74679C29.455 7.21223 24.7516 6.4805 21.7686 6.03357C17.1679 8.22439 12.1991 10.3802 6.73389 14.569C6.89224 14.512 7.04631 14.4419 7.20466 14.3718C7.20466 14.3981 7.20466 14.4332 7.20466 14.4814C7.21202 14.7348 7.26122 14.9852 7.35017 15.2219C7.55132 15.66 7.71395 15.0597 7.75247 14.7837C7.79479 14.5482 7.81343 14.3089 7.8081 14.0695L8.13336 13.903L13.2691 12.4395C13.8211 13.0924 14.6386 14.8188 14.6129 15.4366C14.5829 15.568 14.7413 15.7038 14.9681 15.568C16.3119 14.6917 18.5374 13.8548 21.9526 13.5612L22.004 13.5919C22.004 13.5919 22.0254 13.5919 22.0982 13.6445C22.1735 13.6849 22.2416 13.7383 22.2993 13.8022L22.4149 13.8899C22.5561 14.0388 22.7273 14.1966 22.8685 14.328C22.9944 14.4585 23.1024 14.6059 23.1895 14.7662C23.1895 14.81 23.2366 14.8494 23.2537 14.8889C23.3521 15.0992 23.4334 15.327 23.6046 15.6381C23.7758 15.9492 23.8914 16.2121 24.0326 16.5145C24.0792 16.628 24.1365 16.7366 24.2038 16.8387C24.3493 16.8387 24.4306 16.6853 24.4435 16.5145H24.4777C24.5329 16.5252 24.5855 16.547 24.6325 16.5786C24.6795 16.6101 24.72 16.6509 24.7516 16.6985L24.7944 16.773C24.8279 16.8279 24.8579 16.885 24.8843 16.9439C24.945 17.0838 24.9881 17.231 25.0127 17.382C25.0555 17.566 25.0769 17.7369 25.1025 17.9034C25.1203 18.0488 25.1289 18.1951 25.1282 18.3416C25.1347 18.4364 25.1347 18.5316 25.1282 18.6264C25.1063 18.9074 25.0198 19.1792 24.8757 19.4195C24.8307 19.4781 24.7821 19.5337 24.7302 19.586C24.6358 19.6839 24.531 19.7706 24.4178 19.8445C24.1824 20.0022 23.9342 20.1205 23.8143 20.1907L23.1681 20.2126C23.0762 20.0677 22.9669 19.9352 22.8428 19.8182C23.0055 19.7525 23.2708 19.4239 23.4548 19.3187L23.2965 19.0251L23.0354 19.3888C22.9249 19.4425 22.8062 19.4766 22.6845 19.4896L22.4876 19.621C22.1077 19.4262 21.6826 19.3428 21.2593 19.38C21.2123 19.2004 21.0197 19.1478 20.8314 19.1478C20.8699 19.0909 20.8998 19.0427 20.8827 19.0602C20.8656 19.0777 21.2037 18.9945 21.2037 19.0602C21.2216 18.9147 21.2216 18.7675 21.2037 18.622C21.2037 18.5563 21.3364 18.4599 21.529 18.3942C21.4875 18.561 21.5048 18.7375 21.5778 18.8925C21.6509 19.0476 21.775 19.1713 21.9283 19.2419C22.0816 19.3126 22.2544 19.3256 22.4162 19.2787C22.578 19.2319 22.7184 19.1281 22.8129 18.9857C22.8771 18.8499 22.8129 18.7228 22.7144 18.5475V18.5782L22.4876 18.9419L22.4234 18.8981C22.3293 18.8323 22.1838 18.7272 22.2223 18.714V18.3635C22.2223 18.3635 22.0468 18.2803 21.9484 18.2189C21.9649 18.1996 21.9877 18.1871 22.0126 18.1839C22.3953 18.2209 22.7587 18.3734 23.0568 18.622C23.151 18.7097 23.2237 18.8148 23.3222 18.8981C23.5416 19.0637 23.7879 19.1883 24.0497 19.2661C24.1653 19.2968 24.1824 19.1215 24.0497 19.012C23.9171 18.9024 24.1781 18.9331 24.3407 19.012C24.27 18.9064 24.1928 18.8054 24.1096 18.7097C23.9855 18.7097 23.6303 18.4774 23.6303 18.5081V18.1488L22.8557 17.8509L22.3721 17.8815L22.0168 17.9166C22.0168 17.9166 21.8414 17.9166 21.8713 17.8684C21.9013 17.8202 22.1024 17.7588 22.0896 17.6975C21.8294 17.7037 21.5719 17.754 21.3278 17.8465C21.2679 17.8728 21.2123 17.8859 21.1481 17.9166C20.7201 18.1488 21.4733 17.3908 22.0511 17.3908C22.2988 17.3748 22.5474 17.3999 22.7872 17.4653C22.8864 17.4736 22.9851 17.4882 23.0825 17.5091C23.1553 17.531 23.2451 17.566 23.335 17.6011C23.3833 17.6132 23.4305 17.6293 23.4762 17.6493C23.5447 17.6493 23.6217 17.6975 23.6902 17.7194L23.7673 17.7501H23.8315C23.8899 17.7725 23.95 17.7901 24.0112 17.8027C24.0722 17.6656 24.0902 17.5125 24.0626 17.3645C24.0523 17.3479 24.0437 17.3303 24.0369 17.3119C24.0369 17.2769 24.0369 17.233 24.0369 17.1936C24.0395 17.1762 24.0395 17.1584 24.0369 17.141C24.0203 17.0622 23.9944 16.9857 23.9598 16.9132C23.9104 16.8054 23.8372 16.7109 23.7459 16.6371L23.7159 16.7029C23.7159 16.7029 23.6431 16.8387 23.6389 16.8518L23.6132 16.8256C23.5447 16.7968 23.4747 16.772 23.4035 16.7511C23.3864 16.7116 23.3664 16.6735 23.3436 16.6371C23.3306 16.6224 23.3145 16.6108 23.2966 16.6033C23.2786 16.5958 23.2592 16.5925 23.2399 16.5938C23.2205 16.5951 23.2017 16.6008 23.1848 16.6106C23.1679 16.6204 23.1534 16.6339 23.1424 16.6503H23.0996C23.0851 16.6514 23.0705 16.6483 23.0577 16.6414C23.0448 16.6344 23.0341 16.6238 23.0269 16.6108C22.9945 16.547 22.9558 16.4868 22.9113 16.4312C22.57 16.5412 22.216 16.6045 21.8585 16.6196C21.7173 16.6196 21.5546 16.6459 21.3364 16.6547C21.4089 16.5051 21.4442 16.3396 21.4391 16.1727C21.3663 16.2296 21.0967 16.3611 20.8742 16.4925C20.7689 16.5459 20.6723 16.6154 20.5874 16.6985C20.3999 16.9169 20.2702 17.1809 20.2108 17.4653C20.1969 17.5128 20.1854 17.5611 20.1766 17.6099C20.1723 17.6682 20.1723 17.7268 20.1766 17.7851C20.1766 17.8333 20.1766 17.8815 20.1766 17.9341C20.0995 18.2583 20.1081 18.6264 20.0439 18.9506C20.0286 19.0072 20.01 19.0628 19.9882 19.1171C19.9704 19.1908 19.9461 19.2627 19.9155 19.3318C19.8634 19.2796 19.8076 19.2312 19.7486 19.1873C19.6863 19.135 19.6189 19.0895 19.5474 19.0514C19.021 18.714 18.3705 18.6571 17.7799 19.5904C17.5256 19.1988 17.148 18.9081 16.71 18.7666C16.456 18.6518 16.1797 18.598 15.9022 18.6094C15.6248 18.6208 15.3535 18.697 15.1093 18.8323C15.0204 18.8183 14.9388 18.7734 14.8782 18.7053C14.6429 18.2671 14.1036 17.0534 13.4402 17.5135C13.0679 17.772 13.0123 19.3713 13.3718 19.6254C13.483 19.6955 13.115 20.7778 13.7141 20.7121C13.772 20.4303 13.772 20.1394 13.7141 19.8576C13.65 19.5509 13.3846 19.3012 13.3332 18.9813C13.2691 18.587 13.5173 17.4171 14.0565 18.0174C14.2289 18.2527 14.3606 18.5165 14.446 18.7973C14.446 18.8192 14.707 19.3669 14.737 19.2836C14.5444 19.8445 15.058 20.5675 15.8968 20.8654C16.6372 21.1283 17.3476 21.0363 17.6986 20.6682C17.6853 21.0425 17.6968 21.4173 17.7328 21.7899C17.7799 21.7374 17.9254 20.3747 18.0538 19.9453C18.0853 19.7884 18.1583 19.6434 18.2647 19.526C18.371 19.4086 18.5068 19.3232 18.6572 19.2793C18.9436 19.2587 19.2263 19.355 19.4436 19.5471C19.6609 19.7392 19.7952 20.0115 19.8171 20.3046C19.8171 20.3834 19.7828 20.4798 19.7614 20.585C19.6075 21.2303 19.2657 21.8125 18.7814 22.2544C19.2949 22.2544 19.2093 22.6137 19.1665 22.7495C18.8199 23.2447 17.8826 23.7442 17.4846 22.4253L17.4632 21.9565L17.2021 21.8206C17.0737 22.1186 17.4889 23.4024 17.9725 23.6039C18.4005 23.7704 19.2564 23.4681 19.6501 23.1658C19.6501 23.1658 20.9341 22.64 21.0667 22.4078C21.1994 22.1755 21.0411 21.9696 20.8142 21.8732C20.8142 21.8206 20.8142 21.7724 20.8142 21.7198C21.1826 21.8797 21.5856 21.9371 21.9826 21.8863C22.723 21.8119 23.2366 21.3868 23.305 20.8917C23.4749 20.8592 23.6392 20.8016 23.7929 20.7208C23.9384 20.6639 24.1011 20.5762 24.2808 20.4842L24.375 20.4273C24.4479 20.9289 24.3842 21.4413 24.191 21.9083C24.0914 22.1286 23.9601 22.3324 23.8015 22.5129C23.4506 23.5076 23.4762 24.5153 23.3735 25.4837C23.3335 25.9645 23.2209 26.436 23.0397 26.8814C22.9471 27.1209 22.8233 27.3464 22.6716 27.5518C22.6203 27.6263 22.5604 27.6964 22.4876 27.7884L22.3977 27.898C22.3089 27.9933 22.2114 28.0798 22.1067 28.1565C21.8806 28.2904 21.6684 28.4474 21.4733 28.6253C21.3834 28.7173 21.3021 28.8225 21.2123 28.9189L21.1481 28.9934C21.0967 29.0547 21.0368 29.1161 20.9726 29.1949C20.8038 29.405 20.6237 29.6054 20.4333 29.7952C20.2331 30.0197 20.0008 30.2117 19.7443 30.3648H19.7186L19.6074 30.4174C19.1728 30.6126 18.7008 30.705 18.2266 30.6875C17.7523 30.6701 17.2881 30.5433 16.8683 30.3166C16.4644 30.003 16.0917 29.6493 15.7556 29.2606C15.7898 29.2869 15.7256 29.4622 15.7855 29.7689C15.8198 29.9412 15.8804 30.1068 15.9653 30.2597C16.1306 30.5584 16.3795 30.7995 16.68 30.952C17.0018 31.1116 17.3591 31.1812 17.7157 31.1535C18.1965 31.0567 18.6824 30.9879 19.1708 30.9476C19.7044 30.9607 20.2357 30.8715 20.7372 30.6847C20.916 30.6173 21.0904 30.5382 21.2593 30.4481C21.6681 30.2291 22.0372 29.9402 22.3507 29.5937C22.3507 29.563 22.402 29.5323 22.4149 29.5016C22.509 29.3614 22.5689 29.3308 22.616 29.3614C22.6852 29.4944 22.705 29.6485 22.6716 29.7952C22.6808 30.0058 22.6154 30.2127 22.4876 30.378C22.3862 30.4465 22.2804 30.508 22.1709 30.562L21.9569 30.6672L21.9013 30.6891C21.7301 30.7635 21.5418 30.838 21.3535 30.9038C21.054 31.0417 20.7393 31.1417 20.4162 31.2017C20.1937 31.2455 20.5703 31.4602 20.7629 31.4734C20.8956 31.4734 21.0453 31.4427 21.1909 31.4164C21.3364 31.3901 21.4177 31.3857 21.529 31.3638C22.2663 31.2692 22.9778 31.0249 23.6217 30.6452C23.6673 30.6162 23.7145 30.5899 23.763 30.5664C23.9599 30.4744 24.3022 30.3692 24.345 30.7811C24.3878 31.1929 24.5804 31.0396 24.7174 31.1228C24.8543 31.2061 24.8286 31.3682 24.636 31.6004C24.4991 31.745 24.3579 31.8809 24.2081 32.0386C24.0583 32.1963 23.8614 32.3409 23.6817 32.4768C23.0596 33.0075 22.3023 33.345 21.499 33.4495C21.4065 33.4583 21.3133 33.4583 21.2208 33.4495C21.1984 33.4364 21.177 33.4218 21.1566 33.4057C21.0773 33.2871 21.0234 33.1527 20.9983 33.0113C20.9598 32.9193 20.9212 32.766 20.8742 32.6301C20.8656 32.5545 20.8359 32.4829 20.7886 32.4242C20.7886 32.4242 20.6003 32.2796 20.5061 32.5337C20.481 32.6153 20.4624 32.6988 20.4505 32.7835C20.2882 33.8545 20.0289 34.9077 19.6758 35.9295C19.6202 36.1048 20.1252 35.7148 20.2322 35.5834C20.4162 35.3467 20.5446 35.2679 20.7843 34.9349C20.9384 34.7202 21.0625 34.5537 21.2123 34.3346C21.2831 34.2405 21.3488 34.1425 21.4091 34.041C21.445 34.0267 21.4823 34.0164 21.5204 34.0103C21.6317 33.9753 21.7387 33.949 21.8414 33.9227C23.305 33.7168 24.3065 32.9368 25.2095 31.951C25.3422 31.8064 25.4706 31.6574 25.599 31.5128C25.6332 31.4778 25.6632 31.4339 25.6974 31.3945C25.676 31.4339 25.6675 31.4778 25.6461 31.5128C25.2388 32.9764 24.7267 34.4072 24.1139 35.7937C23.5319 37.1388 22.9028 38.5059 22.402 39.5619C22.86 39.5005 23.3436 39.3121 23.7887 39.2201C24.024 38.6198 24.3022 37.6997 24.5761 37.0293C25.1889 35.2348 25.6962 33.4044 26.0954 31.5479C26.2809 31.5704 26.4652 31.6025 26.6475 31.6443C26.1196 34.1534 25.4042 36.6173 24.5077 39.0142C25.0681 38.8315 25.617 38.6135 26.1511 38.3613L26.1211 38.2956ZM17.5616 20.2608C17.399 20.6551 16.7057 20.8216 16.0509 20.5938C15.3961 20.3659 14.9681 19.8007 15.1136 19.3713C15.2591 18.9419 15.9696 18.8104 16.6543 19.0427C17.3391 19.2749 17.7157 19.8314 17.5574 20.2608H17.5616ZM21.8713 21.5752C21.1309 21.6716 20.3905 21.3123 20.198 20.8172C20.0054 20.3221 20.489 19.827 21.2294 19.7612C21.9698 19.6955 22.7444 20.0285 22.907 20.5499C23.0697 21.0714 22.6417 21.5095 21.8671 21.5796L21.8713 21.5752ZM19.2479 11.9356C16.9126 11.5197 14.5302 11.4591 12.1777 11.756C14.1378 10.9673 16.971 11.2784 19.0938 11.2127C21.2654 9.56059 23.7775 8.43946 26.4378 7.9352C23.8315 8.99118 21.2165 10.2575 19.2479 11.9356Z" fill="#000100"/>
<path d="M11.9291 29.7602C12.2205 29.7385 12.508 29.6796 12.7851 29.5849H12.845L13.0205 29.5104C12.8424 29.8594 12.6824 30.2178 12.5411 30.584C12.3871 30.9914 12.2458 31.4121 12.1132 31.859C12.0447 32.1 11.9676 32.3629 11.8949 32.6214C11.8521 32.7835 11.8093 32.9281 11.7665 33.099C11.5825 33.7606 11.7365 34.4442 11.7879 34.2777C12.0447 33.4452 12.3828 32.4812 12.7551 31.5786C12.7596 31.5587 12.7668 31.5395 12.7765 31.5216C13.1188 30.6003 13.5934 29.7364 14.1846 28.9584L14.2273 28.9847C14.2362 29.0149 14.2476 29.0442 14.2616 29.0723C14.3501 29.2775 14.4782 29.4623 14.6382 29.6156C14.7215 29.7169 14.8116 29.812 14.9078 29.9004C15.0277 29.9837 15.186 29.9968 15.3016 30.0844C15.4005 30.1782 15.5239 30.2406 15.6568 30.2641C15.6424 30.0331 15.5393 29.8173 15.37 29.6638C15.1866 29.5487 15.0383 29.3832 14.9421 29.1862C15.1282 29.2099 15.3165 29.2099 15.5027 29.1862C15.9307 29.1249 15.6611 29.0898 15.537 28.989C15.4134 28.826 15.2541 28.695 15.072 28.6067C14.8898 28.5184 14.6899 28.4753 14.4884 28.4808C13.9834 28.3537 13.9449 27.9155 13.7951 27.5694C13.5084 26.9297 13.6068 26.0314 13.4185 24.9404C12.9905 22.8241 14.5526 22.421 13.7266 20.8217C13.7908 22.4034 12.8407 22.6225 12.7936 24.1123C12.962 24.7055 13.0963 25.3082 13.1959 25.9175C13.1449 26.3541 13.1449 26.7954 13.1959 27.232C13.2292 27.472 13.2895 27.7073 13.3757 27.9331C13.4027 28.0243 13.4355 28.1136 13.4741 28.2003C13.5176 28.3073 13.5706 28.41 13.6325 28.5071C13.6753 28.5772 13.7266 28.6385 13.7651 28.7042C13.5236 28.8481 13.2626 28.9544 12.9905 29.0197C12.5299 29.126 12.0621 29.1963 11.591 29.23C11.0858 29.2745 10.5786 29.2906 10.0717 29.2782C9.04886 29.2169 7.93185 28.9715 6.71212 28.9715C5.40061 29.0446 4.10485 29.2996 2.86035 29.7295C2.98874 29.9661 3.12998 30.1677 3.28833 30.4131C4.33258 29.9092 7.46108 29.5104 9.13445 29.5718C8.70648 29.9179 7.85053 31.2938 6.93039 32.858C6.82339 33.0464 6.42538 33.9447 6.30982 34.1243C6.50669 34.339 6.71212 34.5625 6.92183 34.7421C7.59375 33.3225 9.17725 30.0056 9.39552 29.5762H9.7593L10.1873 29.6244C9.64374 30.0625 8.53957 32.3498 7.33268 35.1277C7.59803 35.3643 7.85909 35.6053 8.13727 35.8288C8.3641 33.9841 10.1445 30.3517 10.4141 29.6507C10.9154 29.7287 11.4221 29.7653 11.9291 29.7602Z" fill="#000100"/>
<path d="M20.292 20.4929C20.583 21.7767 22.5089 21.3692 22.4319 21.2159C21.7428 21.2159 21.1608 21.4131 20.292 20.4929Z" fill="#000100"/>
<path d="M12.7377 32.7922C12.5493 33.0551 12.5322 33.4012 12.6906 33.4714C12.8141 33.5099 12.9464 33.5069 13.0682 33.4627C13.1899 33.4186 13.2945 33.3356 13.3668 33.226C13.5636 32.9631 13.5594 32.6082 13.431 32.5424C13.3045 32.5023 13.1688 32.5049 13.044 32.5499C12.9191 32.5949 12.8117 32.6799 12.7377 32.7922Z" fill="#000100"/>
<path d="M15.3271 25.545C15.233 24.9885 15.0447 24.7125 15.8835 23.6872C15.7551 23.6215 14.9805 24.1516 14.7537 25.304C15.2373 25.9963 15.3956 25.6633 15.3271 25.545Z" fill="#000100"/>
<path d="M14.2872 26.9997C14.4141 27.2227 14.5712 27.4263 14.7537 27.6044C14.9015 27.7621 15.0854 27.8795 15.2887 27.9462H15.34C15.3419 27.9316 15.3419 27.9169 15.34 27.9023L15.2373 27.8278C15.1743 27.789 15.1155 27.7435 15.0618 27.692C15.0148 27.6512 14.9718 27.6057 14.9334 27.5562C14.8955 27.5174 14.8598 27.4764 14.8264 27.4335L14.7879 27.3722C14.3991 26.7334 14.1944 25.9953 14.1973 25.2427C14.1956 25.0228 14.22 24.8036 14.2701 24.5898C14.3015 24.4154 14.3654 24.2487 14.4584 24.0991L14.5397 23.9676C14.5142 23.9636 14.4882 23.9636 14.4627 23.9676C14.2597 24.1436 14.1007 24.3666 13.9987 24.618C13.8968 24.8695 13.8548 25.1422 13.8763 25.4136C13.8778 25.9697 14.0193 26.516 14.2872 26.9997Z" fill="#000100"/>
<path d="M13.975 18.7535C13.9446 18.7224 13.91 18.6958 13.8723 18.6746C13.684 18.5782 13.6583 18.9113 13.7097 19.0865C13.761 19.2618 14.0264 19.643 14.0135 19.6999C14.112 19.3538 14.1548 18.9288 13.975 18.7535Z" fill="#000100"/>
<path d="M15.2373 19.3712C15.3657 20.7208 17.3301 20.5543 17.3001 20.4228C16.5897 20.3264 15.9777 20.4228 15.2373 19.3712Z" fill="#000100"/>
<path d="M22.2781 23.49C22.5049 23.9281 21.9314 26.3906 22.1625 25.729C22.4792 24.6774 22.5434 24.8527 22.766 24.1122C22.8045 23.9851 22.9971 23.6214 22.766 23.3279C22.8045 23.2534 22.6076 23.0518 22.231 22.8897C21.6703 22.8108 21.375 22.6706 21.1397 22.7626C21.089 22.7829 21.0403 22.8078 20.9941 22.8371C21.5805 23.3673 22.0684 23.0869 22.2781 23.49Z" fill="#000100"/>
<path d="M17.4631 28.564V28.5246C17.4118 28.7261 17.6129 29.2081 17.3604 29.3133C17.1079 29.4184 16.8426 29.0767 16.7484 28.9321C16.6108 28.7268 16.4932 28.5081 16.3975 28.2792C16.2616 28.0509 16.1606 27.8026 16.0979 27.5431C16.1321 28.564 16.3247 29.4842 16.9538 29.8829C17.036 29.9035 17.1214 29.9064 17.2047 29.8913C17.288 29.8762 17.3672 29.8435 17.4375 29.7953C17.464 29.775 17.4942 29.7604 17.5264 29.7523C17.5585 29.7442 17.592 29.7427 17.6247 29.748C17.6574 29.7533 17.6887 29.7653 17.7168 29.7832C17.7449 29.8011 17.7693 29.8245 17.7884 29.8522C17.8711 29.9433 17.9718 30.0153 18.0839 30.0635C18.1959 30.1117 18.3166 30.1349 18.4381 30.1315C18.5595 30.1282 18.6789 30.0985 18.7883 30.0443C18.8976 29.9901 18.9945 29.9126 19.0723 29.8172C19.3933 29.379 19.9711 29.0942 19.8084 29.1555C18.7813 29.5192 17.7499 29.5192 17.4631 28.564Z" fill="#000100"/>
<path d="M19.1964 26.2899C18.6828 26.2899 18.2335 26.1234 17.7156 26.3206C17.5621 26.9031 17.6089 27.5219 17.8483 28.0733C17.8783 27.083 18.0366 26.5265 19.1964 26.2899Z" fill="#000100"/>
<path d="M17.138 21.7417C17.1723 21.7417 16.6544 21.5095 17.3948 20.953C15.1137 21.5095 15.1437 23.49 15.2079 23.7573C15.302 23.95 15.3662 22.2018 17.138 21.7417Z" fill="#000100"/>
<path d="M12.8277 16.4706C12.8779 16.4519 12.9294 16.4373 12.9818 16.4268C12.7575 16.7349 12.6332 17.1073 12.6266 17.4915C12.6266 17.5353 12.6266 17.5704 12.6266 17.6142C12.6266 17.658 12.6266 17.6142 12.6608 17.6142C12.8406 17.6142 12.969 17.4564 13.0888 17.2987C13.1635 17.2096 13.2593 17.1417 13.367 17.1015C13.367 17.1015 13.367 17.1015 13.3927 17.1015C13.476 17.0825 13.5631 17.0917 13.6409 17.1278C13.6981 17.147 13.7528 17.1735 13.8035 17.2067C13.8769 17.2538 13.956 17.2906 14.0389 17.3162C14.1202 17.3469 14.1331 17.2198 14.163 17.0533C14.1971 16.8798 14.2502 16.7108 14.3214 16.5494C14.4754 16.1902 14.5739 16.1113 14.6595 15.8878C14.3684 15.8528 14.3385 15.5154 14.3256 15.2656C14.3256 15.2656 14.3256 15.2262 14.3256 15.2087C14.3373 15.1376 14.3373 15.065 14.3256 14.994C14.3042 14.9502 14.2529 14.937 14.1502 14.9545C13.9476 14.9789 13.7498 15.0351 13.5639 15.121C13.3875 15.2134 13.2223 15.3266 13.0717 15.4584L12.969 15.5417C12.7747 15.7099 12.6021 15.9028 12.4554 16.1157C12.3424 16.2642 12.2767 16.4447 12.2671 16.6327H12.3784C12.511 16.5582 12.6608 16.5144 12.8277 16.4706Z" fill="#000100"/>
<path d="M21.3186 25.1113C21.0276 25.2383 20.728 25.3435 20.4284 25.4443L19.1445 25.8298C19.1445 25.8298 19.0674 25.9175 19.8977 25.7422C22.0076 25.6195 20.9291 27.1005 20.2572 27.8848C20.0946 28.0031 19.7394 28.3975 20.1245 28.174C20.1614 28.1483 20.1946 28.1173 20.223 28.082C20.7782 27.6507 21.2292 27.0945 21.5411 26.4564C21.703 26.068 21.7916 25.6517 21.8022 25.2296C21.8022 25.12 21.8022 25.0893 21.7465 25.0499C21.6909 25.0105 21.4769 25.0455 21.3186 25.1113Z" fill="#000100"/>
<path d="M18.1008 18.0348C17.7992 17.7911 17.4235 17.6639 17.0394 17.6755C16.5663 17.764 16.1089 17.925 15.6827 18.1531H15.6528L15.6057 18.2013C15.6057 18.2013 15.6314 18.2627 15.6827 18.2802H15.8796H15.9695H16.0893H16.1492C16.4146 18.2276 16.2734 18.1444 16.4231 18.14C16.4231 18.14 16.4488 18.14 16.4617 18.14L16.727 18.1663L16.8896 17.9998C16.6371 18.99 17.9253 19.4151 18.2121 18.53L18.2463 18.7622C18.3171 18.796 18.3962 18.8067 18.4731 18.7929C18.563 18.7622 18.5973 18.53 18.5373 18.4642L18.1008 18.0348ZM17.8141 18.5475C17.8141 18.5475 17.523 18.4511 17.5573 18.4818V18.083C17.7303 18.1278 17.8931 18.2067 18.0366 18.3153L17.8141 18.5475Z" fill="#000100"/>
<path d="M15.2249 17.8026C15.2766 17.7254 15.3339 17.6522 15.3961 17.5835C15.4166 17.5552 15.4395 17.5288 15.4645 17.5046C15.5365 17.4316 15.6206 17.3723 15.7128 17.3294C15.7128 17.3294 15.8668 17.2856 15.9054 17.3294C15.9439 17.3732 15.9054 17.3513 15.9054 17.3776C15.9054 17.4039 15.5758 17.7193 15.6657 17.8464C15.6657 17.8683 15.7042 17.8683 15.7213 17.8771C15.7551 17.8856 15.7903 17.8856 15.824 17.8771C15.8488 17.8604 15.8764 17.8486 15.9054 17.842C15.9583 17.8112 16.0142 17.7862 16.0723 17.7675C16.1236 17.7675 16.5002 17.7062 16.5002 17.7675L16.3419 17.5353C16.3419 17.5353 16.8212 17.5003 16.7913 17.4389C16.5987 17.2724 16.71 17.1979 16.9068 17.1892C17.1106 17.1714 17.3152 17.2124 17.4974 17.3075C17.5419 17.3337 17.5893 17.3543 17.6387 17.3688C17.7904 17.3885 17.9406 17.4192 18.088 17.4608C18.3063 17.5572 18.3791 17.7325 18.516 17.934C18.653 18.1356 18.6786 18.0392 18.7214 17.8771C18.7214 17.8771 18.7214 17.8376 18.7214 17.8114C18.781 17.6324 18.8212 17.4472 18.8413 17.2593C18.8712 17.0007 18.8413 16.7247 18.7599 16.6897C18.6786 16.751 18.5588 17.0139 18.6144 17.1015C18.5661 16.9801 18.5303 16.8538 18.5074 16.7247C18.4667 16.6057 18.409 16.4935 18.3363 16.3917H18.2892C18.2884 16.503 18.2813 16.6142 18.2678 16.7247C18.0367 16.567 18.2207 16.2121 17.934 16.0938C17.9351 16.2043 17.9038 16.3127 17.8441 16.4048C17.7006 16.278 17.5351 16.18 17.3562 16.1157C17.361 16.2273 17.3725 16.3385 17.3904 16.4487C17.2706 16.4487 17.185 16.3654 17.0523 16.361C17.0523 16.4092 17.0523 16.4837 17.0523 16.5275C16.9312 16.5208 16.8109 16.5032 16.6928 16.475H16.5944H16.5174C16.5174 16.6327 16.4788 16.6765 16.3933 16.6853C16.3421 16.6921 16.2903 16.6921 16.2392 16.6853C16.0808 16.6853 16.0552 16.6853 16.0594 16.751C16.063 16.8064 16.063 16.8621 16.0594 16.9175C16.0594 16.7904 15.4303 16.9832 15.3576 17.0621C15.2848 17.141 15.0451 17.6142 15.2249 17.8026Z" fill="#000100"/>
<path d="M19.2089 34.4792C19.27 34.4508 19.325 34.4104 19.3708 34.3602C19.4165 34.31 19.4522 34.2511 19.4756 34.1867C19.4991 34.1224 19.5099 34.054 19.5075 33.9854C19.505 33.9167 19.4894 33.8493 19.4614 33.7869C19.4393 33.6495 19.3677 33.5256 19.2608 33.4396C19.1538 33.3536 19.0193 33.3118 18.8837 33.3224C18.7661 33.3781 18.6734 33.4772 18.6242 33.5999C18.575 33.7226 18.5729 33.8598 18.6183 33.984C18.6428 34.1252 18.7158 34.2527 18.8241 34.3435C18.9325 34.4343 19.069 34.4824 19.2089 34.4792Z" fill="#000100"/>
<path d="M6.40869 22.8547C6.45149 22.8547 7.02497 22.9292 7.04209 22.8547C7.0566 22.7457 7.06518 22.636 7.06777 22.5261C7.06777 22.4165 7.06777 22.1931 7.17477 22.1931C7.28176 22.1931 7.29032 22.307 7.29888 22.4122C7.31895 22.575 7.33038 22.7388 7.33312 22.9029C7.58399 22.9174 7.83547 22.9174 8.08635 22.9029C8.26558 22.9128 8.44532 22.8995 8.62132 22.8635C8.54326 22.0478 8.37529 21.2437 8.12059 20.4667C8.02617 20.234 7.90552 20.0135 7.76109 19.8095C7.70973 19.735 7.66694 19.6912 7.62414 19.6912C7.56031 19.6966 7.50078 19.7263 7.45723 19.7744C7.20307 20.0065 7.00525 20.296 6.87946 20.6201C6.6678 21.1964 6.52413 21.7966 6.45149 22.4078L6.40869 22.8547Z" fill="#000100"/>
<path d="M16.6455 24.4102C16.5901 24.3851 16.5329 24.3646 16.4743 24.3488C16.5586 24.2523 16.6518 24.1643 16.7525 24.0859C16.6007 24.0321 16.4398 24.0101 16.2794 24.0214C16.1191 24.0327 15.9627 24.077 15.8195 24.1517C15.8064 24.2328 15.7992 24.3148 15.7981 24.397C15.7939 24.47 15.7939 24.5432 15.7981 24.6161C15.7981 24.8878 15.9008 25.12 15.9436 25.4048C15.9663 25.1789 16.0364 24.9607 16.149 24.7651C16.2873 24.8481 16.4302 24.9227 16.577 24.9886H16.607L16.9622 25.1507C17.4334 25.3974 17.9524 25.5336 18.4815 25.5494C18.8042 25.5319 19.1227 25.467 19.4273 25.3566C19.5127 25.3419 19.596 25.3169 19.6755 25.2821H19.7355C19.9623 25.1945 20.1977 25.0981 20.4245 24.9929C20.8634 24.8019 21.292 24.5869 21.7084 24.3488C21.7641 24.3182 21.7726 24.2831 21.7641 24.2524C21.7987 24.1635 21.8119 24.0673 21.8026 23.972C21.8026 23.9238 21.8026 23.88 21.7555 23.8756C21.6859 23.8668 21.6154 23.8668 21.5458 23.8756C21.455 23.8775 21.3646 23.8893 21.2762 23.9107C21.1509 23.9564 21.0293 24.0121 20.9124 24.0772L20.6085 24.2612L20.1806 24.5066L19.8895 24.6731C19.6439 24.814 19.391 24.9412 19.132 25.0543C19.0113 25.1104 18.885 25.153 18.7554 25.1813C18.6291 25.211 18.4997 25.2242 18.3702 25.2208C18.2385 25.22 18.1075 25.2008 17.9808 25.1638C17.6003 24.9954 17.2387 24.7853 16.9023 24.5372C16.8124 24.4934 16.7311 24.4452 16.6455 24.4102Z" fill="#000100"/>
<path d="M7.69212 16.0237C7.69456 16.0004 7.69456 15.9769 7.69212 15.9535C7.69212 15.9535 7.69212 15.9273 7.69212 15.9141C7.69895 15.7886 7.69895 15.6628 7.69212 15.5373C7.69497 15.4598 7.68335 15.3825 7.65788 15.3094C7.54569 15.3694 7.44863 15.4553 7.37437 15.5602C7.3001 15.6651 7.25065 15.7863 7.2299 15.9141V15.9798C7.22089 16.0614 7.22089 16.1437 7.2299 16.2252C7.22927 16.3106 7.25637 16.3939 7.30694 16.4618C7.43701 16.3735 7.53952 16.2488 7.60224 16.1025L7.69212 16.0368V16.0237Z" fill="#000100"/>
<path d="M7.69238 17.1147C7.69529 17.0899 7.69529 17.0649 7.69238 17.0402C7.69238 17.0402 7.69238 17.0402 7.69238 17.0051C7.69929 16.8796 7.69929 16.7538 7.69238 16.6283C7.70709 16.5487 7.70709 16.467 7.69238 16.3873C7.58059 16.4479 7.48387 16.5338 7.40967 16.6387C7.33547 16.7435 7.28577 16.8644 7.26441 16.992V17.0577C7.25529 17.1407 7.25529 17.2245 7.26441 17.3075C7.26269 17.3917 7.28995 17.4739 7.34144 17.5397C7.47137 17.4532 7.57396 17.3299 7.63674 17.1848L7.65814 17.1278C7.65814 17.1278 7.69238 17.1191 7.69238 17.1147Z" fill="#000100"/>
<path d="M7.69212 18.2058C7.69455 18.181 7.69455 18.1561 7.69212 18.1313C7.69212 18.1313 7.69212 18.105 7.69212 18.0962C7.69899 17.9707 7.69899 17.8449 7.69212 17.7194C7.69457 17.642 7.68296 17.5647 7.65788 17.4916C7.5461 17.5521 7.44938 17.6381 7.37518 17.7429C7.30098 17.8478 7.25128 17.9686 7.22991 18.0962V18.1664C7.22089 18.2464 7.22089 18.3273 7.22991 18.4073C7.22928 18.4928 7.25637 18.576 7.30695 18.6439C7.47235 18.5673 7.60794 18.4362 7.69212 18.2715C7.69212 18.2715 7.69212 18.2452 7.71352 18.2189C7.73492 18.1926 7.69212 18.2102 7.69212 18.2058Z" fill="#000100"/>
<path d="M7.69225 19.2793C7.69457 19.253 7.69457 19.2266 7.69225 19.2004C7.69225 19.2004 7.69225 19.2004 7.69225 19.1697C7.69908 19.0442 7.69908 18.9184 7.69225 18.7929C7.6947 18.7154 7.68309 18.6382 7.65802 18.5651C7.54583 18.625 7.44877 18.7109 7.37451 18.8158C7.30024 18.9207 7.25079 19.0419 7.23004 19.1697V19.2398C7.22117 19.3199 7.22117 19.4008 7.23004 19.4808C7.22941 19.5663 7.25651 19.6495 7.30708 19.7174C7.4356 19.6274 7.5377 19.5032 7.60238 19.3581L7.62378 19.3056C7.62378 19.3056 7.69225 19.3012 7.69225 19.2793Z" fill="#000100"/>
<path d="M17.2019 34.282C17.4629 34.488 17.7154 34.8736 18.1006 35.2066C18.1872 35.2815 18.2788 35.3503 18.3745 35.4125C18.5333 35.5209 18.7043 35.6091 18.8838 35.6754C18.6955 35.2372 18.4558 34.7246 18.3916 34.5362C18.09 33.8015 17.7455 33.086 17.3602 32.3935C17.1719 32.0737 16.8809 31.434 16.714 31.4252C16.5471 31.4164 16.1918 31.7889 16.0378 31.9072C15.7253 32.1438 15.49 32.3453 15.1818 32.5776C14.7239 32.9193 14.2574 33.2523 13.7866 33.581C13.4485 33.8132 13.1019 34.0191 12.768 34.2733C12.7081 34.3171 12.5369 34.4003 12.614 34.4704C12.7723 34.6238 14.4243 34.4003 14.7538 34.1681C14.6554 34.2382 14.9165 34.8385 14.9165 34.8385C14.4858 35.832 13.8211 36.7007 12.982 37.3667L12.3486 38.1203C13.48 38.6098 14.6515 38.9954 15.8495 39.2727C15.9479 38.2781 16.1704 35.9339 16.3031 35.154C16.7867 35.1233 17.3345 34.3828 17.2019 34.282Z" fill="#000100"/>
<path d="M24.1603 12.9127L24.1303 13.1143L23.7237 13.7365C23.5568 13.7365 23.36 13.5963 23.1545 13.5963C23.282 13.4433 23.4256 13.3052 23.5825 13.1844C23.7566 13.0655 23.947 12.974 24.1474 12.9127H24.1603Z" fill="white"/>
<path d="M23.9548 13.7059C24.0914 13.7749 24.2158 13.8667 24.3229 13.9775C24.4039 13.8513 24.5155 13.7486 24.6467 13.6795C24.7779 13.6104 24.9244 13.5772 25.0718 13.5832C24.7007 13.477 24.3036 13.5258 23.9677 13.719L23.9548 13.7059Z" fill="white"/>
<path d="M0.716174 19.9978C0.724634 16.1961 1.83329 12.4821 3.90213 9.32501C5.97097 6.16792 8.9072 3.70928 12.34 2.2596C15.7728 0.809917 19.5482 0.434215 23.1895 1.17994C26.8307 1.92566 30.1745 3.75937 32.7984 6.44947C35.4224 9.13957 37.2089 12.5654 37.9323 16.2944C38.6557 20.0233 38.2836 23.8881 36.8629 27.4007C35.4423 30.9132 33.0368 33.916 29.9503 36.0298C26.8638 38.1436 23.2347 39.2736 19.5214 39.2771C17.0452 39.2934 14.5906 38.8057 12.3001 37.8423C10.0097 36.8789 7.92915 35.459 6.17941 33.6651C4.42966 31.8713 3.04562 29.7392 2.10774 27.3929C1.16986 25.0467 0.696839 22.5329 0.716174 19.9978ZM5.72775 5.85829C2.54191 9.1258 0.561067 13.4231 0.122651 18.018C-0.315765 22.613 0.815364 27.2215 3.32336 31.0584C5.83135 34.8954 9.56107 37.7235 13.8772 39.061C18.1933 40.3984 22.8288 40.1625 26.9941 38.3935C31.1594 36.6245 34.5969 33.4317 36.7209 29.359C38.8449 25.2864 39.5241 20.5858 38.6429 16.058C37.7616 11.5301 35.3743 7.45516 31.8877 4.52717C28.4011 1.59917 24.0308 -0.000712855 19.5214 3.74759e-05C16.9582 -0.00506066 14.4194 0.510044 12.0518 1.51558C9.68421 2.52111 7.53478 3.99712 5.72775 5.85829Z" fill="#EB681B"/>
</svg>
