<svg width="12" height="16" viewBox="0 0 12 16" fill="none" xmlns="http://www.w3.org/2000/svg">
<path fill-rule="evenodd" clip-rule="evenodd" d="M2 0C1.46957 0 0.960859 0.210709 0.585786 0.585773C0.210714 0.960837 1.33869e-07 1.46953 1.33869e-07 1.99995V15.4996C-6.33938e-05 15.5865 0.0224845 15.6718 0.0654246 15.7473C0.108365 15.8227 0.170217 15.8857 0.244892 15.93C0.319567 15.9743 0.404491 15.9984 0.491305 15.9999C0.578119 16.0014 0.66383 15.9803 0.74 15.9386L6 13.0687L11.26 15.9386C11.3362 15.9803 11.4219 16.0014 11.5087 15.9999C11.5955 15.9984 11.6804 15.9743 11.7551 15.93C11.8298 15.8857 11.8916 15.8227 11.9346 15.7473C11.9775 15.6718 12.0001 15.5865 12 15.4996V1.99995C12 1.46953 11.7893 0.960837 11.4142 0.585773C11.0391 0.210709 10.5304 0 10 0L2 0ZM6.16 4.09991C6.14538 4.06992 6.12263 4.04464 6.09434 4.02696C6.06605 4.00928 6.03336 3.99991 6 3.99991C5.96664 3.99991 5.93395 4.00928 5.90566 4.02696C5.87737 4.04464 5.85462 4.06992 5.84 4.09991L5.206 5.38488C5.19331 5.41087 5.17447 5.43338 5.15112 5.45045C5.12778 5.46753 5.10062 5.47866 5.072 5.48287L3.652 5.68887C3.61931 5.69383 3.58865 5.7078 3.56345 5.72921C3.53825 5.75061 3.51952 5.77862 3.50934 5.81008C3.49917 5.84153 3.49796 5.87521 3.50584 5.90731C3.51373 5.93942 3.53041 5.9687 3.554 5.99186L4.58 6.99284C4.622 7.03384 4.641 7.09284 4.631 7.15084L4.39 8.5648C4.38456 8.59745 4.38834 8.63097 4.4009 8.66159C4.41347 8.69222 4.43432 8.71873 4.46112 8.73815C4.48792 8.75758 4.51961 8.76915 4.55262 8.77156C4.58563 8.77397 4.61866 8.76713 4.648 8.7518L5.918 8.08381C5.94346 8.0705 5.97177 8.06354 6.0005 8.06354C6.02923 8.06354 6.05754 8.0705 6.083 8.08381L7.353 8.7518C7.38231 8.76685 7.41522 8.77347 7.44806 8.77093C7.48091 8.76839 7.51241 8.75678 7.53905 8.73739C7.56569 8.71801 7.58643 8.69161 7.59896 8.66114C7.61148 8.63067 7.6153 8.59732 7.61 8.5648L7.368 7.14984C7.3629 7.12142 7.36478 7.09219 7.37349 7.06466C7.3822 7.03714 7.39748 7.01215 7.418 6.99184L8.446 5.99086C8.46959 5.9677 8.48627 5.93842 8.49416 5.90631C8.50204 5.87421 8.50083 5.84053 8.49066 5.80908C8.48048 5.77762 8.46175 5.74961 8.43655 5.72821C8.41135 5.7068 8.38069 5.69283 8.348 5.68787L6.928 5.48187C6.89938 5.47766 6.87222 5.46653 6.84888 5.44945C6.82553 5.43238 6.80669 5.40987 6.794 5.38388L6.16 4.09991Z" fill="#EB671C"/>
</svg>
