<svg width="17" height="18" viewBox="0 0 17 18" fill="none" xmlns="http://www.w3.org/2000/svg">
<path fill-rule="evenodd" clip-rule="evenodd" d="M11.0933 11.5948C11.1919 11.496 11.3091 11.4177 11.4381 11.3642C11.5671 11.3107 11.7054 11.2832 11.845 11.2832C11.9846 11.2832 12.1229 11.3107 12.2519 11.3642C12.3808 11.4177 12.498 11.496 12.5967 11.5948L16.6873 15.6854C16.8867 15.8847 16.9988 16.1549 16.9989 16.4368C16.999 16.7186 16.8871 16.989 16.6879 17.1884C16.4886 17.3877 16.2184 17.4998 15.9365 17.4999C15.6547 17.5 15.3843 17.3881 15.185 17.1889L11.0943 13.0983C10.9955 12.9996 10.9172 12.8824 10.8637 12.7534C10.8102 12.6244 10.7827 12.4862 10.7827 12.3465C10.7827 12.2069 10.8102 12.0687 10.8637 11.9397C10.9172 11.8107 10.9955 11.6935 11.0943 11.5948H11.0933Z" fill="currentColor"/>
<path fill-rule="evenodd" clip-rule="evenodd" d="M6.90625 13.25C7.67366 13.25 8.43356 13.0988 9.14256 12.8052C9.85155 12.5115 10.4958 12.081 11.0384 11.5384C11.581 10.9958 12.0115 10.3516 12.3052 9.64256C12.5988 8.93356 12.75 8.17366 12.75 7.40625C12.75 6.63884 12.5988 5.87894 12.3052 5.16994C12.0115 4.46095 11.581 3.81674 11.0384 3.27409C10.4958 2.73145 9.85155 2.301 9.14256 2.00733C8.43356 1.71365 7.67366 1.5625 6.90625 1.5625C5.35639 1.5625 3.87001 2.17818 2.77409 3.27409C1.67818 4.37001 1.0625 5.85639 1.0625 7.40625C1.0625 8.95611 1.67818 10.4425 2.77409 11.5384C3.87001 12.6343 5.35639 13.25 6.90625 13.25ZM13.8125 7.40625C13.8125 9.2379 13.0849 10.9945 11.7897 12.2897C10.4945 13.5849 8.7379 14.3125 6.90625 14.3125C5.0746 14.3125 3.31797 13.5849 2.02279 12.2897C0.727621 10.9945 0 9.2379 0 7.40625C0 5.5746 0.727621 3.81797 2.02279 2.52279C3.31797 1.22762 5.0746 0.5 6.90625 0.5C8.7379 0.5 10.4945 1.22762 11.7897 2.52279C13.0849 3.81797 13.8125 5.5746 13.8125 7.40625Z" fill="currentColor"/>
</svg>
