<svg width="22" height="22" viewBox="0 0 22 22" fill="none" xmlns="http://www.w3.org/2000/svg">
<path fill-rule="evenodd" clip-rule="evenodd" d="M6 7.07143C6 6.78727 6.11288 6.51475 6.31381 6.31381C6.51475 6.11288 6.78727 6 7.07143 6H14.9286C15.2127 6 15.4853 6.11288 15.6862 6.31381C15.8871 6.51475 16 6.78727 16 7.07143V11.4186C15.9998 11.7026 15.8867 11.975 15.6857 12.1757L12.1757 15.6864C11.9749 15.8872 11.7025 15.9999 11.4186 16H7.07143C6.78727 16 6.51475 15.8871 6.31381 15.6862C6.11288 15.4853 6 15.2127 6 14.9286V7.07143ZM7.07143 6.71429C6.97671 6.71429 6.88587 6.75191 6.81889 6.81889C6.75191 6.88587 6.71429 6.97671 6.71429 7.07143V14.9286C6.71429 15.0233 6.75191 15.1141 6.81889 15.1811C6.88587 15.2481 6.97671 15.2857 7.07143 15.2857H11.4186C11.5131 15.2857 11.6038 15.2482 11.6707 15.1814L15.1814 11.6707C15.2482 11.6038 15.2857 11.5131 15.2857 11.4186V7.07143C15.2857 6.97671 15.2481 6.88587 15.1811 6.81889C15.1141 6.75191 15.0233 6.71429 14.9286 6.71429H7.07143Z" fill="#349936"/>
<path fill-rule="evenodd" clip-rule="evenodd" d="M12.1538 11.7692C12.0518 11.7692 11.954 11.8098 11.8819 11.8819C11.8098 11.954 11.7692 12.0518 11.7692 12.1538V16H11V12.1538C11 11.8478 11.1216 11.5543 11.338 11.338C11.5543 11.1216 11.8478 11 12.1538 11H16V11.7692H12.1538Z" fill="#349936"/>
</svg>
